<svg width="38" height="27" viewBox="0 0 38 27" fill="none" xmlns="http://www.w3.org/2000/svg">
<path d="M33.6833 13.6479H32.4013V14.9412H33.6833V13.6479Z" fill="#173F5B"/>
<path d="M0.351952 16.7151C0.351952 15.7923 0.806412 14.9361 1.56726 14.4245C6.09648 11.378 11.3686 9.76768 16.8119 9.76768H19.8751C20.2815 9.002 21.0732 8.47429 21.9923 8.47429H25.0921C27.6144 8.47429 29.9983 9.52388 31.7264 11.354C32.1289 11.1697 32.5725 11.0611 33.0423 11.0611C33.2744 11.0611 33.4993 11.0889 33.7179 11.1367L34.2749 10.2941L32.4206 2.81118L33.6641 2.49689L35.6556 10.5353L34.9037 11.6735C35.1877 11.8798 35.4364 12.1301 35.6402 12.4165L36.2101 12.0337L34.9691 0.134513L36.2434 0L37.5664 12.6759L36.1729 13.6136C36.2197 13.8335 36.2473 14.0604 36.2473 14.2945C36.2473 15.6649 35.9915 17.0042 35.487 18.2756L35.3082 18.727C34.9743 19.5703 34.1775 20.1148 33.2769 20.1148C32.5129 20.1148 31.7943 19.7041 31.4007 19.0432L30.9181 18.231C30.5591 17.6283 30.288 16.9809 30.1066 16.3084L29.747 16.5263L29.2925 21.0913C29.24 21.6197 28.9579 22.0704 28.5554 22.3582V23.1672L29.5271 22.9215C29.9137 22.8251 30.3149 22.9098 30.6271 23.1575C30.9399 23.4045 31.1194 23.7757 31.1194 24.1767V25.2884H32.4013V26.5818H31.1194C30.4123 26.5818 29.8374 26.0017 29.8374 25.2884V24.176L28.8656 24.4218C28.4798 24.5181 28.0779 24.4328 27.7657 24.1857C27.4529 23.9387 27.2734 23.5675 27.2734 23.1666V22.6621C26.4946 22.5386 25.8671 21.8932 25.7915 21.0777L25.6895 19.9648L24.9409 20.3082C24.7005 20.4187 24.4556 20.5203 24.2114 20.6231L24.1646 21.092C24.1121 21.6203 23.83 22.0711 23.4275 22.3588V23.1678L24.3992 22.9221C24.7858 22.8257 25.187 22.9105 25.4992 23.1581C25.812 23.4045 25.9915 23.7757 25.9915 24.1767V25.2884H27.2734V26.5818H25.9915C25.2844 26.5818 24.7095 26.0017 24.7095 25.2884V24.176L23.7377 24.4218C23.3519 24.5181 22.95 24.4328 22.6378 24.1857C22.325 23.9387 22.1455 23.5675 22.1455 23.1666V22.6621C21.6071 22.5768 21.1449 22.2418 20.8834 21.7723C19.5976 22.1228 18.2829 22.3795 16.9606 22.5302C16.7311 22.6389 16.4779 22.7016 16.2119 22.7016C16.0529 22.7016 15.9017 22.6731 15.7549 22.633L14.7088 24.3927C14.5293 24.6947 14.2306 24.9126 13.8902 24.9896C13.5505 25.0665 13.1877 24.9986 12.898 24.8033L12.2916 24.3959L11.9923 25.6014C11.8493 26.1789 11.3378 26.5818 10.7481 26.5818H9.32578V25.2884L10.7488 25.2877L11.0475 24.0829C11.1481 23.6749 11.4404 23.3412 11.8288 23.1892C12.2166 23.0385 12.6563 23.0864 13.0025 23.3192L13.6095 23.7272L14.2229 22.6951C14.1434 22.6958 14.0646 22.7016 13.9858 22.7016C12.125 22.7016 10.2584 22.5018 8.43865 22.1086L4.02096 21.1534C2.96654 20.9251 2.12428 20.1439 1.79225 19.1267C0.939095 18.661 0.351952 17.7608 0.351952 16.7151ZM23.4275 9.76768V9.84852C23.4275 10.4053 23.6909 10.9376 24.1326 11.2712L25.0941 11.9988C25.3979 12.2284 25.7735 12.3545 26.1517 12.3545C27.1241 12.3545 27.9144 11.5571 27.9144 10.5761V10.3038C27.0228 9.95975 26.0709 9.76768 25.0921 9.76768H23.4275ZM32.0174 17.5655L32.5 18.3778C32.6629 18.6513 32.9609 18.8214 33.2769 18.8214C33.6493 18.8214 33.9794 18.5957 34.1179 18.2471L34.2967 17.7958C34.7403 16.6776 34.9653 15.4993 34.9653 14.2945C34.9653 13.2249 34.1025 12.3545 33.0423 12.3545C31.9821 12.3545 31.1194 13.2249 31.1194 14.2945C31.1194 15.4476 31.4296 16.578 32.0174 17.5655ZM30.6848 12.1223C30.2233 11.6541 29.7156 11.2415 29.1631 10.9065C28.997 12.4431 27.7183 13.6479 26.1517 13.6479C25.4973 13.6479 24.8492 13.4299 24.3249 13.0335L23.3634 12.306C22.6006 11.7291 22.1455 10.8102 22.1455 9.84852V9.76768H21.9923C21.3699 9.76768 20.8636 10.2786 20.8636 10.9059C20.8636 11.2312 21.002 11.5409 21.2424 11.7569L25.5863 15.6526C26.3139 16.3045 27.4452 16.4112 28.2791 15.9061L29.8803 14.9367C29.8624 14.7233 29.8374 14.5099 29.8374 14.2945C29.8374 13.4558 30.1636 12.6979 30.6848 12.1223ZM15.7357 18.8214H17.4106L17.8451 17.506L15.7357 17.8604V18.8214ZM19.2758 17.2655L18.0163 21.0771C18.8912 20.9342 19.7578 20.7421 20.6116 20.5067L20.2988 17.0934L19.2758 17.2655ZM21.7449 18.8214H23.1025L23.3249 16.5845L21.5667 16.88L21.7449 18.8214ZM26.8728 18.8214H28.2298L28.383 17.2816C27.9766 17.4394 27.5439 17.528 27.1036 17.528C26.9843 17.528 26.8683 17.5073 26.751 17.4957L26.8728 18.8214ZM27.5426 21.3946C27.5446 21.3946 27.5471 21.3946 27.5491 21.3946C27.792 21.3914 27.9933 21.2058 28.017 20.9626L28.1016 20.1148H26.9914L27.069 20.9581C27.0914 21.2045 27.2984 21.3946 27.5426 21.3946ZM24.4101 19.1305L25.5646 18.6009L25.4261 17.0921C25.1812 16.9596 24.9454 16.8089 24.7345 16.6194L24.6204 16.5172L24.3582 19.1532C24.3749 19.1448 24.3928 19.1383 24.4101 19.1305ZM22.4212 21.3946C22.6641 21.3914 22.8654 21.2058 22.8891 20.9626L22.9737 20.1148H21.8635L21.9411 20.9581C21.9641 21.2064 22.1705 21.3907 22.4212 21.3946ZM16.6644 21.079L16.983 20.1148H15.7357V20.9277C15.7357 21.1928 15.9491 21.4082 16.2119 21.4082C16.417 21.4082 16.5997 21.2763 16.6644 21.079ZM14.5216 21.3888C14.4819 21.2407 14.4537 21.0881 14.4537 20.9277V18.0764L11.8897 18.5078V21.317C12.766 21.3901 13.6448 21.4075 14.5216 21.3888ZM8.70722 20.8443C9.33539 20.9801 9.96997 21.0842 10.6078 21.1709V18.7225L9.22514 18.9553C8.8335 19.0212 8.43865 19.0749 8.0438 19.1286V20.7007L8.70722 20.8443ZM4.29018 19.8891L6.76183 20.4239V19.2773C5.67151 19.386 4.57734 19.4481 3.4851 19.4603C3.7088 19.6666 3.98122 19.8225 4.29018 19.8891ZM3.08064 18.1747C5.06257 18.1747 7.0586 18.0079 9.0149 17.6793L23.248 15.2859L20.3911 12.7237C19.9155 12.2976 19.6393 11.6974 19.5982 11.0611H16.8119C11.6218 11.0611 6.59645 12.5963 2.27812 15.5006C1.87494 15.7722 1.63393 16.2262 1.63393 16.7151C1.63393 17.5196 2.28325 18.1747 3.08064 18.1747Z" fill="#173F5B"/>
<path d="M8.03034 15.2917L18.8457 13.655L19.0361 14.9341L8.22071 16.5709C7.77651 16.6382 7.32718 16.6718 6.87785 16.6718C5.90098 16.6718 4.92219 16.5134 3.99532 16.2017L4.40107 14.9749C5.56318 15.3648 6.81823 15.4754 8.03034 15.2917Z" fill="#173F5B"/>
</svg>
