<svg width="23" height="23" viewBox="0 0 23 23" fill="none" xmlns="http://www.w3.org/2000/svg">
<path d="M19.55 0H3.45C1.55205 0 0 1.55261 0 3.45V19.55C0 21.4474 1.55205 23 3.45 23H19.55C21.4479 23 23 21.4474 23 19.55V3.45C23 1.55261 21.4479 0 19.55 0ZM16.629 9.44145L10.879 15.1915C10.6487 15.4099 10.3612 15.525 10.0625 15.525C9.76377 15.525 9.47627 15.4099 9.24605 15.1915L6.37104 12.3165C5.92295 11.8678 5.92295 11.1322 6.37104 10.6835C6.81914 10.2349 7.55586 10.2349 8.00395 10.6835L10.0625 12.7533L14.996 7.80854C15.4441 7.35989 16.1809 7.35989 16.629 7.80854C17.0771 8.2572 17.0771 8.9928 16.629 9.44145Z" fill="#173F5B"/>
</svg>
