<svg width="27" height="27" viewBox="0 0 27 27" fill="none" xmlns="http://www.w3.org/2000/svg">
<path d="M25.5394 21.4796L17.4195 13.3597L25.5394 5.23979C26.6606 4.11863 26.6606 2.30094 25.5394 1.17978C24.4182 0.0586213 22.6006 0.0586213 21.4794 1.17978L13.3595 9.29967L5.23973 1.1799C4.11857 0.0587411 2.30088 0.0587411 1.17972 1.1799C0.0585615 2.30106 0.0586813 4.11863 1.17984 5.23979L9.29973 13.3597L1.17984 21.4796C0.0586813 22.6007 0.0586795 24.4184 1.17984 25.5396C2.301 26.6607 4.11869 26.6605 5.23973 25.5395L13.3596 17.4196L21.4795 25.5395C22.6007 26.6606 24.4184 26.6606 25.5395 25.5395C26.6607 24.4183 26.6604 22.6006 25.5394 21.4796Z" fill="white"/>
</svg>
