<svg width="32" height="33" viewBox="0 0 32 33" fill="none" xmlns="http://www.w3.org/2000/svg">
<path d="M1.33779 33L24.4162 33C24.6852 33 24.9033 32.7836 24.9033 32.5166C24.9033 32.2496 24.6852 32.0332 24.4162 32.0332L1.33779 32.0332C1.1373 32.0332 0.974152 31.8713 0.974151 31.6723L0.974151 23.7025L2.07825 23.7025L2.07825 30.4541C2.07825 30.7211 2.29628 30.9375 2.56536 30.9375L29.4346 30.9375C29.7037 30.9375 29.9217 30.7211 29.9217 30.4541L29.9217 9.1798C29.9217 8.91283 29.7037 8.6964 29.4346 8.6964L25.9894 8.6964L25.9894 7.6007L30.6621 7.6007C30.8626 7.6007 31.0258 7.7626 31.0258 7.96157L31.0258 31.6723C31.0258 31.8713 30.8626 32.0332 30.6622 32.0332L26.3646 32.0332C26.0955 32.0332 25.8775 32.2496 25.8775 32.5166C25.8775 32.7836 26.0955 33 26.3646 33L30.6622 33C31.3998 33 32 32.4044 32 31.6723L32 7.96157C32 7.22951 31.3999 6.6339 30.6621 6.6339L13.1623 6.6339C12.9618 6.6339 12.7987 6.47199 12.7987 6.27303L12.7986 1.32767C12.7986 0.595609 12.1985 -2.0836e-06 11.4608 -2.0191e-06L7.66664 -1.68741e-06C7.39757 -1.66388e-06 7.17954 0.216433 7.17954 0.483397C7.17954 0.750361 7.39757 0.966795 7.66664 0.966795L11.4608 0.966795C11.6613 0.966795 11.8244 1.1287 11.8244 1.32767L11.8244 6.27303C11.8244 7.00508 12.4246 7.6007 13.1623 7.6007L18.2446 7.6007L18.2446 8.6964L13.1623 8.6964C11.8158 8.6964 10.7203 7.60927 10.7203 6.27303L10.7203 2.5459C10.7203 2.27893 10.5023 2.0625 10.2332 2.0625L2.56542 2.0625C2.29635 2.0625 2.07832 2.27893 2.07832 2.5459L2.07832 16.0166L0.974211 16.0166L0.97421 1.32767C0.97421 1.1287 1.13736 0.966796 1.33785 0.966796L6.36776 0.966795C6.63684 0.966795 6.85487 0.750361 6.85487 0.483397C6.85487 0.216433 6.63684 -1.59738e-06 6.36776 -1.57386e-06L1.33785 -1.13413e-06C0.600181 -1.06964e-06 9.81815e-07 0.595611 1.04581e-06 1.32767L3.69863e-06 31.6723C3.76263e-06 32.4044 0.600119 33 1.33779 33ZM3.05253 5.87039L5.05498 5.87039C5.28775 5.87039 5.47714 6.05827 5.47714 6.28933L5.47714 11.7938C5.47714 12.0248 5.28775 12.2128 5.05498 12.2128L3.05253 12.2128L3.05253 5.87039ZM5.25502 29.9707L5.25502 29.4258C5.25502 28.9587 5.63789 28.5788 6.10843 28.5788L8.04451 28.5788C8.51512 28.5788 8.89798 28.9588 8.89798 29.4258L8.89798 29.9707L5.25502 29.9707ZM12.0944 29.8418L12.0944 29.4258C12.0944 28.8888 12.5345 28.4519 13.0756 28.4519C13.6167 28.4519 14.0569 28.8888 14.0569 29.4258L14.0569 29.8418L12.0944 29.8418ZM26.0821 27.8257L21.0474 27.8257L21.0474 26.3491L26.0821 26.3491L26.0821 27.8257ZM21.0475 29.9707L21.0475 28.7925L26.0821 28.7925L26.0821 29.9707L21.0475 29.9707ZM29.3921 15.1299L29.3921 12.0671L28.4179 12.0671L28.4179 15.1299L29.3921 15.1299ZM29.3921 12.0671L28.9474 12.0672L28.9474 15.1299L29.3921 15.1299L29.3921 12.0671ZM19.2188 7.6007L25.0152 7.6007L25.0152 8.6964L19.2188 8.6964L19.2188 7.6007ZM9.74613 3.0293L9.74613 6.27303C9.74613 8.14236 11.2786 9.6632 13.1623 9.6632L14.5344 9.6632L14.5344 9.62852L15.2492 9.62852L15.2492 9.46268C15.2492 9.19572 15.0312 8.97928 14.7621 8.97928C14.493 8.97928 14.275 9.19572 14.275 9.46268L14.275 10.8334C14.275 11.1004 14.493 11.3168 14.7621 11.3168C15.0312 11.3168 15.2492 11.1004 15.2492 10.8334L15.2492 10.5953L15.0215 10.5953C15.2905 10.5953 15.5086 10.3789 15.5086 10.1119L15.5086 9.6632L28.9475 9.6632L28.9475 11.1004L29.2876 11.1004C28.808 11.1004 28.4179 11.4875 28.4179 11.9635L28.4179 15.2336C28.4179 15.7095 28.808 16.0967 29.2876 16.0967L28.9475 16.0967L28.9475 17.2981L29.9217 17.0311L29.9217 16.9137C29.9217 16.6468 29.7037 16.4303 29.4346 16.4303C29.1655 16.4303 28.9475 16.6468 28.9475 16.9137L28.9475 18.1354C28.9475 18.4024 29.1655 18.6188 29.4346 18.6188C29.7037 18.6188 29.9217 18.4024 29.9217 18.1354L29.9217 17.9978L28.9475 18.2648L28.9475 29.9707L27.0563 29.9707L27.0563 26.2454C27.0563 25.7695 26.6662 25.3823 26.1866 25.3823L20.943 25.3824C20.4634 25.3824 20.0733 25.7695 20.0733 26.2454L20.0733 29.9707L17.4672 29.9707L17.362 30.4541L17.4803 30.4541C17.7494 30.4541 17.9674 30.2377 17.9674 29.9707C17.9674 29.7037 17.7494 29.4873 17.4803 29.4873L16.2492 29.4873C15.9802 29.4873 15.7621 29.7037 15.7621 29.9707C15.7621 30.2377 15.9802 30.4541 16.2492 30.4541L16.3878 30.4541L16.493 29.9707L15.0312 29.9707L15.0312 29.4258C15.0312 28.3557 14.1539 27.4851 13.0757 27.4851C11.9974 27.4851 11.1202 28.3557 11.1202 29.4258L11.1202 29.9707L9.87212 29.9707L9.87212 29.4258C9.87212 28.4256 9.05223 27.612 8.04444 27.612L6.10836 27.612C5.10058 27.612 4.28075 28.4257 4.28075 29.4258L4.28075 29.9707L3.05246 29.9707L3.05246 13.1795L5.05492 13.1795C5.82493 13.1795 6.45128 12.5579 6.45128 11.7938L6.45128 6.28927C6.45128 5.52518 5.82493 4.90353 5.05492 4.90353L3.05246 4.90353L3.05246 3.0293L9.74613 3.0293ZM2.07832 16.9834L2.07832 22.7357L0.974212 22.7357L0.974211 16.9834L2.07832 16.9834Z" fill="white"/>
</svg>
