<svg width="25" height="25" viewBox="0 0 25 25" fill="none" xmlns="http://www.w3.org/2000/svg">
<path d="M19.0068 16.538C18.1901 15.7316 17.1704 15.7316 16.3588 16.538C15.7397 17.1519 15.1207 17.7657 14.512 18.39C14.3455 18.5617 14.205 18.5981 14.0021 18.4836C13.6016 18.2651 13.175 18.0883 12.79 17.849C10.9952 16.7201 9.49167 15.2686 8.15986 13.6351C7.49916 12.8236 6.91129 11.9548 6.5003 10.9768C6.41706 10.7791 6.43267 10.649 6.59394 10.4878C7.21302 9.8895 7.8165 9.27563 8.42518 8.66176C9.27317 7.80859 9.27317 6.80976 8.41998 5.95139C7.93616 5.46237 7.45233 4.98377 6.96851 4.49475C6.46908 3.99534 5.97486 3.49072 5.47022 2.9965C4.65345 2.20056 3.63378 2.20056 2.82221 3.0017C2.19792 3.61557 1.59964 4.24504 0.964953 4.84851C0.377083 5.40515 0.0805467 6.08664 0.018118 6.88259C-0.0807274 8.17795 0.236618 9.40049 0.684024 10.5918C1.59964 13.0577 2.99389 15.2478 4.68466 17.2559C6.96851 19.9715 9.69456 22.12 12.8836 23.6703C14.3195 24.3674 15.8074 24.9032 17.4253 24.9917C18.5386 25.0541 19.5063 24.7732 20.2814 23.9044C20.8121 23.3113 21.4104 22.7703 21.9722 22.2032C22.8046 21.3605 22.8098 20.3408 21.9826 19.5085C20.9942 18.5148 20.0005 17.5264 19.0068 16.538Z" fill="#F35F30"/>
<path d="M18.0132 12.3918L19.9329 12.064C19.6311 10.3005 18.7987 8.70338 17.5346 7.43403C16.1976 6.09705 14.5068 5.25428 12.6443 4.99417L12.3738 6.92421C13.8149 7.1271 15.1259 7.77738 16.1611 8.81263C17.1392 9.79066 17.7791 11.0288 18.0132 12.3918Z" fill="#F35F30"/>
<path d="M21.015 4.04736C18.7988 1.8312 15.9947 0.431788 12.8992 0L12.6287 1.93004C15.3027 2.3046 17.7271 3.51673 19.6415 5.42596C21.4572 7.24155 22.6485 9.53574 23.0803 12.0588L25 11.7311C24.4954 8.80743 23.1167 6.15427 21.015 4.04736Z" fill="#F35F30"/>
</svg>
