<svg width="17" height="18" viewBox="0 0 17 18" fill="none" xmlns="http://www.w3.org/2000/svg">
<path d="M12.9247 11.9074C12.3692 11.3268 11.6759 11.3268 11.124 11.9074C10.703 12.3493 10.282 12.7913 9.86815 13.2408C9.75494 13.3644 9.65943 13.3906 9.52146 13.3082C9.24906 13.1509 8.95898 13.0235 8.69719 12.8512C7.47671 12.0384 6.45434 10.9934 5.54871 9.81729C5.09943 9.23297 4.69967 8.60745 4.4202 7.90327C4.3636 7.76094 4.37421 7.6673 4.48388 7.55119C4.90486 7.12044 5.31522 6.67845 5.72912 6.23647C6.30576 5.62219 6.30576 4.90303 5.72559 4.285C5.39659 3.93291 5.06759 3.58831 4.73859 3.23622C4.39898 2.87664 4.0629 2.51332 3.71975 2.15748C3.16434 1.5844 2.47097 1.5844 1.9191 2.16123C1.49459 2.60321 1.08776 3.05643 0.656168 3.49092C0.256416 3.89171 0.0547717 4.38238 0.0123202 4.95547C-0.0548947 5.88813 0.160901 6.76835 0.465136 7.6261C1.08776 9.40153 2.03584 10.9784 3.18557 12.4242C4.73859 14.3795 6.5923 15.9264 8.76087 17.0426C9.73725 17.5445 10.749 17.9303 11.8492 17.994C12.6063 18.0389 13.2643 17.8367 13.7914 17.2112C14.1522 16.7842 14.559 16.3946 14.9411 15.9863C15.5071 15.3795 15.5107 14.6454 14.9482 14.0461C14.276 13.3307 13.6003 12.619 12.9247 11.9074Z" fill="white"/>
<path d="M12.249 8.92209L13.5544 8.68611C13.3492 7.41634 12.7831 6.26644 11.9235 5.3525C11.0143 4.38988 9.86461 3.78308 8.59814 3.5958L8.41418 4.98543C9.3941 5.13151 10.2856 5.59971 10.9896 6.34509C11.6546 7.04927 12.0898 7.94073 12.249 8.92209Z" fill="white"/>
<path d="M14.2902 2.9141C12.7832 1.31846 10.8764 0.310887 8.77148 0L8.58753 1.38963C10.4059 1.65931 12.0544 2.53204 13.3562 3.90669C14.5909 5.21391 15.401 6.86574 15.6946 8.68237L17 8.44639C16.6569 6.34135 15.7194 4.43108 14.2902 2.9141Z" fill="white"/>
</svg>
