<svg width="69" height="53" viewBox="0 0 69 53" fill="none" xmlns="http://www.w3.org/2000/svg">
<path d="M49.709 32.4229C51.5378 32.4229 53.0255 30.9351 53.0255 29.1064C53.0255 28.5481 52.5729 28.0957 52.0147 28.0957C51.4565 28.0957 51.004 28.5481 51.004 29.1064C51.004 29.8206 50.423 30.4014 49.709 30.4014C48.995 30.4014 48.4141 29.8204 48.4141 29.1064C48.4141 28.5481 47.9615 28.0957 47.4033 28.0957C46.8451 28.0957 46.3926 28.5481 46.3926 29.1064C46.3924 30.9351 47.8803 32.4229 49.709 32.4229Z" fill="white"/>
<path d="M55.0078 26.7536C55.566 26.7536 56.0186 26.3011 56.0186 25.7428V24.6867C56.5176 24.6248 56.904 24.1993 56.904 23.6836C56.904 23.1253 56.4514 22.6729 55.8932 22.6729H55.0078C54.4496 22.6729 53.9971 23.1253 53.9971 23.6836V25.7428C53.9971 26.3011 54.4496 26.7536 55.0078 26.7536Z" fill="white"/>
<path d="M43.3981 24.6867V25.7428C43.3981 26.3012 43.8507 26.7536 44.4089 26.7536C44.9671 26.7536 45.4196 26.3012 45.4196 25.7428V23.6836C45.4196 23.1253 44.9671 22.6729 44.4089 22.6729H43.5234C42.9652 22.6729 42.5127 23.1253 42.5127 23.6836C42.5127 24.1992 42.8991 24.6248 43.3981 24.6867Z" fill="white"/>
<path d="M64.8149 25.9245C65.1018 25.3174 65.2631 24.6398 65.2631 23.925C65.2631 22.7354 64.8177 21.6484 64.086 20.8199C64.2022 20.6553 64.2709 20.4551 64.2709 20.2382C64.2709 17.2529 64.42 15.4825 63.5219 12.9147C63.3376 12.3877 62.761 12.1095 62.2341 12.2942C61.7072 12.4784 61.4294 13.0551 61.6136 13.582C62.3477 15.6805 62.2493 17.1361 62.2493 19.2275C60.9602 19.2275 57.4871 19.2275 56.0229 19.2275C53.0985 19.2275 50.7192 16.8483 50.719 13.9239C50.719 13.3656 50.2665 12.9132 49.7083 12.9132C49.1501 12.9132 48.6976 13.3656 48.6976 13.9239C48.6976 16.8483 46.3183 19.2275 43.3937 19.2275H39.002H37.1673V17.3446C37.1673 11.0631 42.2776 5.95282 48.559 5.95282C48.6354 5.95282 48.6976 6.01495 48.6976 6.09136C48.6976 6.64956 49.1501 7.10196 49.7083 7.10196C50.2665 7.10196 50.719 6.64956 50.719 6.09136C50.719 6.01495 50.7812 5.95282 50.8576 5.95282C54.1506 5.95295 57.2813 7.3777 59.4473 9.8617C59.8141 10.2826 60.4526 10.326 60.8734 9.9594C61.2941 9.59243 61.3378 8.95405 60.9709 8.53331C58.421 5.6089 54.7349 3.9316 50.8577 3.93147C50.4356 3.93147 50.0414 4.05316 49.7084 4.26326C49.3754 4.05316 48.9812 3.93147 48.5592 3.93147C41.1631 3.93147 35.1459 9.94862 35.1459 17.3447V20.2384C35.1459 20.4551 35.2148 20.6555 35.3308 20.82C34.9915 21.2042 34.7136 21.6437 34.5136 22.1237C34.3922 20.6332 33.6402 19.3243 32.5175 18.468V14.6173C32.5175 7.03593 26.3496 0.868113 18.7683 0.868113C16.8859 0.868113 17.6401 0.835634 15.0365 1.03913C11.445 1.31944 8.23095 3.24133 6.28533 6.23124L3.24152 5.25837C2.61081 5.05622 1.95599 5.50823 1.92418 6.17289C1.90976 6.47746 1.60479 13.2462 2.83897 17.9607C1.1575 18.8041 0 20.5438 0 22.5497C0 25.1526 1.94817 27.3091 4.46303 27.6377C5.09603 30.3535 6.59139 32.8187 8.73052 34.6471C9.29142 35.1265 9.88991 35.5531 10.5166 35.9281H8.3897C4.89509 35.9281 2.05208 38.7712 2.05208 42.2657V51.1229C2.05208 51.6812 2.50462 52.1336 3.06282 52.1336H4.74186C5.30006 52.1336 5.75261 51.6812 5.75261 51.1229C5.75261 50.5645 5.30006 50.1121 4.74186 50.1121H4.07356V42.2657C4.07356 39.8857 6.00974 37.9495 8.3897 37.9495H11.33C11.8323 40.9297 14.5276 43.1705 17.6764 42.9673C20.5268 42.7836 22.7852 40.6389 23.239 37.9495H26.1797C28.5597 37.9495 30.496 39.8857 30.496 42.2657V50.1121H9.45879C8.9006 50.1121 8.44805 50.5645 8.44805 51.1229C8.44805 51.6812 8.9006 52.1336 9.45879 52.1336H31.5069C32.0651 52.1336 32.5176 51.6812 32.5176 51.1229V42.2657C32.5176 41.4241 32.3513 40.6209 32.0521 39.8855H33.676C34.6928 39.8855 35.6626 39.6824 36.549 39.3166C35.9254 40.2809 35.5618 41.4282 35.5618 42.6595V51.1229C35.5618 51.6812 36.0144 52.1336 36.5726 52.1336H62.9125C63.4707 52.1336 63.9232 51.6812 63.9232 51.1229V42.6595C63.9232 41.4435 63.5685 40.3093 62.9591 39.3525C63.8208 39.695 64.7589 39.8855 65.7414 39.8855H67.9893C68.5475 39.8855 69 39.433 69 38.8747V32.6844C69 29.805 67.3312 27.187 64.8149 25.9245ZM43.394 21.2491C46.0804 21.2491 48.4337 19.7958 49.7086 17.6338C50.9836 19.7958 53.3367 21.2491 56.0231 21.2491H60.5657C62.0412 21.2491 63.2416 22.4495 63.2416 23.925C63.2416 24.6466 62.9533 25.301 62.4876 25.7826C61.9554 26.3325 61.2174 26.6288 60.4584 26.598C59.9473 26.5744 59.5029 26.9378 59.4188 27.4411C58.6499 32.0383 54.6729 35.6504 49.7086 35.6504C46.2012 35.6504 42.9249 33.7962 41.162 30.7125C41.1456 30.6709 41.1267 30.63 41.1047 30.5907C40.6932 29.8524 40.381 29.0725 40.1727 28.2634C40.1685 28.2472 40.1651 28.2308 40.1611 28.2146C40.1037 27.9866 40.0491 27.7447 39.9983 27.4409C39.9143 26.9389 39.4681 26.5746 38.9587 26.5978C37.4461 26.6593 36.1755 25.439 36.1755 23.9248C36.1755 22.4492 37.376 21.2488 38.8514 21.2488C38.8882 21.2488 38.9249 21.2505 38.9614 21.2518C39.0045 21.2536 39.047 21.2525 39.089 21.2488H43.394V21.2491ZM49.7251 41.9236C47.802 41.9236 46.2374 40.359 46.2374 38.4358V37.4948V37.1551C47.3845 37.5071 48.5825 37.6722 49.7084 37.6722C50.8713 37.6722 52.0823 37.4957 53.2127 37.145V38.4359C53.2127 40.299 51.7443 41.8257 49.9042 41.9192C49.845 41.9222 49.7853 41.9236 49.7251 41.9236ZM41.7358 36.4841C41.7356 36.4841 41.735 36.4841 41.7346 36.4841C41.0418 36.4844 40.376 36.6011 39.7538 36.8127C40.3785 35.9682 40.8309 34.9896 41.0605 33.9285C41.357 34.2443 41.6705 34.546 42.0023 34.8296C42.6854 35.4134 43.4289 35.9128 44.2159 36.3236V36.4841H41.7358ZM55.2344 36.307C56.3785 35.7053 57.4254 34.9203 58.3565 33.9287C58.5834 34.977 59.0283 35.9448 59.6416 36.7823C58.4876 36.4096 57.8855 36.4841 55.2345 36.4841V36.307H55.2344ZM3.91036 7.59426L6.43169 8.40003C6.89111 8.54652 7.39055 8.34855 7.62396 7.92619C9.17255 5.12468 12.0025 3.30333 15.1939 3.05441C17.7349 2.85604 16.9644 2.88946 18.7683 2.88946C25.2349 2.88946 30.496 8.15044 30.496 14.6172V17.5369C29.6127 17.3467 29.8921 17.4225 16.0301 17.4225C15.0223 17.4225 14.057 17.1985 13.1872 16.794C11.2737 15.9043 9.82253 14.1412 9.39748 11.9685C9.23508 11.1383 8.21329 10.8886 7.66749 11.472C6.20946 13.0307 5.19009 14.8771 4.63661 16.7934C3.94162 13.6496 3.88543 9.63771 3.91036 7.59426ZM6.29585 26.4993C6.21404 26.0105 5.79101 25.6553 5.29939 25.6553C5.28578 25.6553 5.27203 25.6556 5.25829 25.6561C5.2161 25.6578 5.17392 25.6595 5.13134 25.6595C3.41658 25.6595 2.02148 24.2645 2.02148 22.5497C2.02148 20.8638 3.36537 19.5011 5.0184 19.4427C5.02245 19.4426 5.02662 19.4426 5.03067 19.4425C5.10587 19.4402 5.18106 19.4402 5.25586 19.4433C5.25748 19.4433 5.25909 19.4433 5.26071 19.4434C5.26381 19.4435 5.26691 19.4431 5.27001 19.4433C5.77417 19.4589 6.21243 19.0987 6.29585 18.6002C6.524 17.2359 7.0031 15.9381 7.70576 14.7616C7.80616 14.5936 7.91115 14.428 8.02058 14.265C9.4119 17.3551 12.5227 19.4441 16.0301 19.4441H29.5464H29.5471C30.0378 19.4667 30.5488 19.6148 30.9894 19.8772C30.9972 19.8819 31.0055 19.885 31.0135 19.8895C31.914 20.4341 32.5107 21.4205 32.5107 22.5496C32.5107 24.2644 31.1156 25.6593 29.4009 25.6593C29.3583 25.6593 29.316 25.6576 29.2738 25.656C28.7653 25.6378 28.3203 25.9969 28.2362 26.4992C27.3202 31.9766 22.6069 35.7739 17.266 35.7739C11.884 35.774 7.20538 31.9377 6.29585 26.4993ZM17.0819 40.9547C15.1041 40.8558 13.4915 39.3173 13.2891 37.3554C13.2876 37.3407 13.2868 37.3257 13.2855 37.3109C13.2814 37.2672 13.2781 37.2233 13.2755 37.1792C14.6066 37.604 15.9945 37.7954 17.2663 37.7954C18.5621 37.7954 19.9612 37.5973 21.2955 37.1667C21.1733 39.368 19.2862 41.0648 17.0819 40.9547ZM26.1798 35.9281H24.0159C24.6426 35.5531 25.2411 35.1265 25.802 34.6471C27.941 32.8189 29.4365 30.3536 30.0693 27.6377C31.9481 27.3923 33.5103 26.1264 34.1803 24.4165C34.2361 24.9507 34.3818 25.4585 34.602 25.9245C32.0857 27.187 30.4169 29.8048 30.4169 32.6844V37.5574C29.2935 36.5453 27.8075 35.9281 26.1798 35.9281ZM32.4385 37.864V32.6844C32.4385 30.4353 33.8279 28.4029 35.8781 27.5613C36.5495 28.1095 37.358 28.454 38.1663 28.5727C38.3997 29.5477 38.7672 30.5001 39.211 31.3396V32.3285C39.211 35.3806 36.7279 37.8638 33.6758 37.8638H32.4385V37.864ZM61.9016 50.1121H37.5832V42.6595C37.5832 40.369 39.4467 38.5056 41.7372 38.5056H44.2165C44.2537 41.4902 46.6937 43.9451 49.7251 43.9451C52.7219 43.9451 55.1961 41.528 55.234 38.5056H57.7476C60.0381 38.5056 61.9015 40.369 61.9015 42.6595V50.1121H61.9016ZM66.9785 37.864H65.7411C62.6889 37.864 60.2059 35.3808 60.2059 32.3286V31.3397C60.6563 30.4877 61.0201 29.5355 61.2506 28.5728C62.01 28.4614 62.7757 28.1528 63.4417 27.6354C63.4739 27.6105 63.5072 27.5873 63.5388 27.5615C65.5891 28.403 66.9785 30.4353 66.9785 32.6844V37.864Z" fill="white"/>
<path d="M17.2657 31.9463C19.2441 31.9463 20.8536 30.3368 20.8536 28.3584C20.8536 27.8001 20.4011 27.3477 19.8429 27.3477C19.2847 27.3477 18.8321 27.8001 18.8321 28.3584C18.8321 29.2221 18.1294 29.9248 17.2657 29.9248C16.402 29.9248 15.6992 29.2221 15.6992 28.3584C15.6992 27.8001 15.2467 27.3477 14.6885 27.3477C14.1303 27.3477 13.6777 27.8001 13.6777 28.3584C13.6779 30.3366 15.2874 31.9463 17.2657 31.9463Z" fill="white"/>
<path d="M11.3428 21.3203C10.7846 21.3203 10.332 21.7727 10.332 22.3311V24.5657C10.332 25.1241 10.7846 25.5765 11.3428 25.5765C11.901 25.5765 12.3535 25.1241 12.3535 24.5657V22.3311C12.3535 21.7729 11.901 21.3203 11.3428 21.3203Z" fill="white"/>
<path d="M23.1895 25.5765C23.7477 25.5765 24.2002 25.1241 24.2002 24.5657V22.3311C24.2002 21.7727 23.7477 21.3203 23.1895 21.3203C22.6313 21.3203 22.1787 21.7727 22.1787 22.3311V24.5657C22.1787 25.1241 22.6313 25.5765 23.1895 25.5765Z" fill="white"/>
</svg>
