<svg width="58" height="60" viewBox="0 0 58 60" fill="none" xmlns="http://www.w3.org/2000/svg">
<path d="M57.7091 50.2194C57.4753 49.4957 57.2993 48.7507 57.1859 48.0049L56.1239 41.0204C55.7783 38.7472 54.924 36.5328 53.6532 34.6166C53.3854 34.2125 52.8404 34.1022 52.4364 34.3702C52.0323 34.6381 51.9219 35.1829 52.1899 35.5871C53.3205 37.2918 54.0806 39.2619 54.3881 41.2842L55.4501 48.2688C55.5575 48.9758 55.715 49.6819 55.9191 50.3731H54.6193C53.7778 47.0044 50.7268 44.5011 47.1012 44.5011C43.4755 44.5011 40.4245 47.0044 39.583 50.3731H33.4802C33.6023 48.9939 34.1078 47.662 34.9431 46.5523L36.9512 43.8849C37.3969 43.293 37.4236 42.5094 37.0193 41.8885C36.6151 41.2678 35.8879 40.9755 35.1662 41.1431L33.2195 41.5962C32.9239 41.671 32.6061 41.485 32.4884 41.1778L32.12 40.2118C31.9795 39.8436 31.6835 39.5635 31.3075 39.4434C30.5834 39.2125 29.9169 38.8057 29.3802 38.2671L29.345 38.2317L29.4388 38.2248C29.9223 38.1889 30.2852 37.7678 30.2494 37.2843C30.2154 36.8255 29.835 36.477 29.3824 36.4722L30.7461 34.9707C30.9376 34.7599 31.015 34.4694 30.9536 34.1912L30.6136 32.6511C30.2658 31.0757 30.8209 29.4573 32.0624 28.4269L33.0923 27.5724C34.9649 26.0187 37.3707 25.2514 39.7832 25.4132C39.7155 26.0555 39.8845 26.706 40.2648 27.2361L43.3197 31.4953C44.0264 32.5478 45.7464 32.4083 46.2762 31.2614L46.8463 30.1232C46.9614 29.8934 47.0615 29.6582 47.149 29.4195L49.812 32.6064C49.9856 32.8142 50.235 32.9214 50.4861 32.9214C50.6847 32.9214 50.8843 32.8544 51.0486 32.7172C51.4207 32.4064 51.4703 31.8527 51.1594 31.4807L48.0096 27.7113C47.8672 27.5408 47.7172 27.3737 47.5643 27.2114C47.5895 26.0622 47.3291 24.9086 46.7788 23.8669L44.1287 18.8503C43.8107 18.2482 43.1687 17.9172 42.4942 18.008C41.8787 18.0905 41.3832 18.5041 41.1881 19.0801C40.2601 17.4254 39.2586 15.8043 38.1993 14.2364C38.5805 13.7217 38.8709 13.1342 39.0475 12.4946L41.0619 5.19909C41.2475 4.52667 41.051 3.80819 40.5491 3.32374C40.0471 2.83952 39.3222 2.66866 38.6568 2.87808L34.3832 4.22362L34.5463 2.04464C34.5983 1.34901 34.2666 0.682217 33.6805 0.304052C33.0943 -0.0739945 32.35 -0.101534 31.7377 0.232802L26.9524 2.84515C25.7636 3.49413 24.7753 4.48706 24.1256 5.67288C21.9872 5.86378 19.8959 6.58144 18.0368 7.81214L14.3836 10.2307C12.6446 11.3819 11.517 13.231 11.2895 15.3041L10.9611 18.2973C10.8816 19.0221 10.382 19.6359 9.68836 19.8608L2.80254 22.0944C1.7775 22.4268 0.946287 23.1856 0.522185 24.1762C0.0979662 25.1668 0.122458 26.292 0.589216 27.2633L1.60383 29.3745C2.93461 32.1437 5.55129 34.0064 8.60367 34.3573L10.6632 34.5939C11.6457 35.8815 13.2696 36.491 14.8714 36.1542L18.1359 35.4675C18.2134 35.5009 18.2603 35.5565 18.2842 35.5928C18.3169 35.6424 18.3656 35.7455 18.3258 35.8781L15.7741 44.358C15.2745 46.0182 15.0212 47.7392 15.0212 49.473V50.666C15.0212 51.4728 15.6776 52.1292 16.4844 52.1292H39.3552C39.3546 52.1698 39.3521 52.21 39.3521 52.2508C39.3521 56.5238 42.8285 60.0002 47.1015 60.0002C51.3745 60.0002 54.8509 56.5239 54.8509 52.2508C54.8509 52.21 54.8484 52.1698 54.8479 52.1292H56.3169C56.7834 52.1292 57.2259 51.9039 57.5005 51.5267C57.7739 51.1503 57.852 50.6616 57.7091 50.2194ZM36.2442 24.0164L35.6849 20.7501L39.1379 23.6339C38.1574 23.635 37.1845 23.765 36.2442 24.0164ZM42.7649 20.0274L45.2263 24.6868C45.9911 26.1345 46.0098 27.8728 45.2764 29.3366L44.7237 30.4399L41.6914 26.2123C41.5431 26.0056 41.4898 25.7445 41.5452 25.4962L42.7649 20.0274ZM27.7937 4.38616L32.5789 1.77382C32.5977 1.76339 32.6555 1.73198 32.7287 1.77933C32.802 1.82655 32.797 1.89206 32.7954 1.91351L32.5747 4.86101C31.6843 5.27726 30.8973 5.86823 30.2571 6.59737C28.9587 6.06898 27.6082 5.75655 26.252 5.65612C26.6809 5.14237 27.2044 4.70784 27.7937 4.38616ZM2.13609 24.8673C2.32863 24.4174 2.68043 24.059 3.11883 23.8545L4.78289 25.5605L3.71672 25.5239C3.08144 25.5017 2.48484 25.7457 2.04984 26.1699C1.93172 25.7412 1.95844 25.2822 2.13609 24.8673ZM16.7767 49.4728C16.7767 47.9105 17.005 46.3598 17.4552 44.8637L20.0068 36.3837C20.1861 35.7876 20.0929 35.1474 19.7505 34.6273C19.4082 34.1074 18.8572 33.7682 18.2388 33.6972C18.1451 33.6867 18.0503 33.6909 17.9579 33.7102L14.5097 34.4357C13.5273 34.6426 12.5303 34.2378 11.97 33.4046C11.7716 33.1096 11.4527 32.9171 11.0948 32.876L8.80394 32.6128C6.35426 32.3312 4.25426 30.8363 3.18621 28.6137L2.95582 28.1344L3.1507 27.6155C3.22933 27.4062 3.43277 27.2746 3.65578 27.2785L5.19972 27.3318C5.84344 27.3577 6.42445 26.9887 6.68414 26.401C6.94383 25.8134 6.82172 25.1367 6.37324 24.6767L4.96922 23.2372L10.2299 21.5307C11.5795 21.093 12.5515 19.8989 12.7063 18.4885L13.0346 15.4953C13.205 13.9422 14.05 12.5568 15.3527 11.6944L19.0059 9.27593C22.062 7.2528 25.8428 6.82694 29.2527 8.09034C29.1625 8.26976 29.077 8.45222 29.0014 8.64066L26.9341 13.7898C26.7314 14.2948 26.7857 14.8698 27.0795 15.328C27.3731 15.7862 27.873 16.0754 28.4166 16.102L31.1464 16.2352C31.161 16.2359 31.1755 16.2363 31.19 16.2363C31.6552 16.2363 32.0433 15.8708 32.0661 15.4012C32.0897 14.9169 31.7163 14.5051 31.2321 14.4815L28.6002 14.3531L30.6309 9.2948C31.2295 7.80394 32.4516 6.67226 33.9839 6.19003L39.1842 4.5528C39.2047 4.54636 39.2672 4.52667 39.33 4.58714C39.3928 4.64773 39.3752 4.71089 39.3695 4.73175L37.355 12.0273C37.0345 13.1879 36.1568 14.0944 35.0071 14.4523C34.5441 14.5965 34.2857 15.0885 34.4298 15.5516C34.5739 16.0146 35.0659 16.2726 35.529 16.1288C36.0277 15.9735 36.4907 15.7476 36.9107 15.4653C38.2471 17.4627 39.4856 19.5471 40.5959 21.6728C40.5966 21.6743 40.5975 21.6753 40.5982 21.6767L40.4311 22.426L36.5003 19.1435C35.9776 18.7071 35.2586 18.6446 34.6684 18.9842C34.0784 19.3239 33.7712 19.9771 33.8862 20.6483L34.5648 24.6112C33.6387 25.0242 32.7643 25.5629 31.9712 26.221L30.9414 27.0755C29.1914 28.5276 28.4089 30.809 28.8993 33.0294L29.1414 34.126L27.3429 36.1062C26.7021 36.8076 26.6607 37.9352 27.2905 38.6565L28.1365 39.5059C28.8175 40.1893 29.651 40.7177 30.558 41.0428L30.848 41.8032C31.2742 42.9289 32.4732 43.5816 33.6196 43.3057L35.5228 42.863L33.5405 45.4961C32.4765 46.9093 31.8457 48.6137 31.7195 50.373H28.0264L28.2906 49.4818C28.5038 48.7626 28.3686 48.0055 27.9199 47.4043C27.4711 46.8032 26.7836 46.4585 26.0334 46.4585C25.3867 46.4151 25.362 45.8496 25.5497 45.3522C25.74 44.6397 25.5915 43.8957 25.1422 43.3108C24.693 42.7259 24.0125 42.3905 23.2751 42.3905C22.4536 42.4636 22.3827 41.8186 22.5976 41.1882C22.7893 40.5956 22.4933 39.8753 21.8079 39.8566C21.3227 39.8371 20.9156 40.216 20.8973 40.7006C20.8998 40.7741 20.7929 41.2055 20.7784 41.2853C20.6241 41.9858 20.7932 42.7078 21.2423 43.2668C21.6915 43.8257 22.3604 44.1462 23.0774 44.1462C23.8123 44.0705 24.0111 44.6497 23.7588 45.2525C23.5685 45.965 23.717 46.709 24.1662 47.2939C24.6154 47.8788 25.2959 48.2142 26.0333 48.2142C26.224 48.2142 26.3988 48.3018 26.5129 48.4545C26.6269 48.6073 26.6612 48.7999 26.6071 48.9827L26.1952 50.3728H16.7768V49.4728H16.7767ZM47.1012 58.244C43.7963 58.244 41.1076 55.5553 41.1076 52.2505C41.1076 48.9455 43.7964 46.2568 47.1012 46.2568C50.406 46.2568 53.0947 48.9455 53.0947 52.2505C53.0947 55.5554 50.406 58.244 47.1012 58.244Z" fill="white"/>
<path d="M17.5741 22.3317C18.1623 21.7434 18.1623 20.7898 17.5741 20.2015C16.9859 19.6133 16.0322 19.6133 15.444 20.2015C14.8557 20.7898 14.8557 21.7434 15.444 22.3317C16.0322 22.9199 16.9859 22.9199 17.5741 22.3317Z" fill="white"/>
<path d="M10.3244 28.8526C10.8629 28.7653 11.2287 28.258 11.1414 27.7195C11.0541 27.181 10.5468 26.8152 10.0083 26.9025C9.46975 26.9898 9.10397 27.4971 9.19127 28.0356C9.27856 28.5741 9.78587 28.9399 10.3244 28.8526Z" fill="white"/>
<path d="M13.9908 28.8654C14.5364 28.8654 14.9787 28.4231 14.9787 27.8775C14.9787 27.3319 14.5364 26.8896 13.9908 26.8896C13.4452 26.8896 13.0029 27.3319 13.0029 27.8775C13.0029 28.4231 13.4452 28.8654 13.9908 28.8654Z" fill="white"/>
<path d="M13.3055 31.007C13.5145 30.5029 13.2752 29.9248 12.7711 29.7158C12.267 29.5069 11.6889 29.7462 11.4799 30.2503C11.271 30.7544 11.5102 31.3325 12.0144 31.5414C12.5185 31.7504 13.0966 31.5111 13.3055 31.007Z" fill="white"/>
<path d="M34.4147 35.7796C35.1879 35.7796 35.8147 35.1528 35.8147 34.3795C35.8147 33.6063 35.1879 32.9795 34.4147 32.9795C33.6415 32.9795 33.0146 33.6063 33.0146 34.3795C33.0146 35.1528 33.6415 35.7796 34.4147 35.7796Z" fill="white"/>
<path d="M42.3817 37.4232L45.3676 37.8345C45.8478 37.9004 46.2909 37.5648 46.357 37.0846C46.4232 36.6042 46.0873 36.1611 45.6071 36.0951L42.6213 35.6839C40.9617 35.4553 39.295 35.7348 37.7978 36.4931L35.9553 37.4359C35.1654 37.8088 35.2218 39.0425 36.0407 39.3469L38.0885 40.1741C38.9763 40.5241 39.7655 41.0989 40.3707 41.8365L41.3912 43.0802C41.5647 43.2919 41.8165 43.4013 42.0704 43.4013C42.2663 43.4013 42.4634 43.3361 42.6267 43.2021C43.0014 42.8946 43.056 42.3415 42.7484 41.9665L41.728 40.7228C41.3246 40.2312 40.8587 39.795 40.3464 39.4246C41.0433 39.5791 41.7138 39.8466 42.3297 40.2207L44.948 41.8116C45.0904 41.8982 45.2478 41.9394 45.4031 41.9394C45.6996 41.9394 45.989 41.7892 46.1542 41.5173C46.406 41.1029 46.2742 40.5629 45.8599 40.3112L43.2416 38.7204C42.216 38.0973 41.0716 37.707 39.8875 37.5693C40.6959 37.3589 41.5399 37.3076 42.3817 37.4232Z" fill="white"/>
<path d="M49.2108 49.8333L46.3286 52.7156L45.1998 51.5867C44.8571 51.2441 44.3011 51.2441 43.9583 51.5867C43.6154 51.9296 43.6154 52.4855 43.9583 52.8283L45.7078 54.5778C45.8725 54.7425 46.0957 54.835 46.3286 54.835C46.5614 54.835 46.7848 54.7425 46.9493 54.5778L50.4523 51.0748C50.7952 50.7319 50.7952 50.176 50.4523 49.8331C50.1095 49.4905 49.5536 49.4905 49.2108 49.8333Z" fill="white"/>
</svg>
