<svg width="60" height="60" viewBox="0 0 60 60" fill="none" xmlns="http://www.w3.org/2000/svg">
<path d="M54.375 23.4375H49.6875C49.4389 23.4376 49.2005 23.5364 49.0247 23.7122L47.4244 25.3125H44.4506L42.8503 23.7122C42.6745 23.5364 42.4361 23.4376 42.1875 23.4375H37.5C37.2514 23.4375 37.0129 23.5363 36.8371 23.7121C36.6613 23.8879 36.5625 24.1264 36.5625 24.375V54.375C36.5625 54.6236 36.6613 54.8621 36.8371 55.0379C37.0129 55.2137 37.2514 55.3125 37.5 55.3125H54.375C54.6236 55.3125 54.8621 55.2137 55.0379 55.0379C55.2137 54.8621 55.3125 54.6236 55.3125 54.375V24.375C55.3125 24.1264 55.2137 23.8879 55.0379 23.7121C54.8621 23.5363 54.6236 23.4375 54.375 23.4375ZM53.4375 53.4375H38.4375V25.3125H41.7994L43.3997 26.9128C43.5755 27.0886 43.8139 27.1874 44.0625 27.1875H47.8125C48.0611 27.1874 48.2995 27.0886 48.4753 26.9128L50.0756 25.3125H53.4375V53.4375Z" fill="white"/>
<path d="M53.4375 19.6875H51.5625V1.875C51.5625 1.62636 51.4637 1.3879 51.2879 1.21209C51.1121 1.03627 50.8736 0.9375 50.625 0.9375H1.875C1.62636 0.9375 1.3879 1.03627 1.21209 1.21209C1.03627 1.3879 0.9375 1.62636 0.9375 1.875V37.5C0.9375 37.7486 1.03627 37.9871 1.21209 38.1629C1.3879 38.3387 1.62636 38.4375 1.875 38.4375H21.9206L20.9831 40.3125H14.0625C12.8198 40.314 11.6283 40.8083 10.7496 41.6871C9.87083 42.5658 9.37649 43.7573 9.375 45C9.375 45.2486 9.47377 45.4871 9.64959 45.6629C9.8254 45.8387 10.0639 45.9375 10.3125 45.9375H32.8125V53.4375C32.814 54.9289 33.4071 56.3588 34.4617 57.4133C35.5162 58.4679 36.9461 59.061 38.4375 59.0625H53.4375C54.9289 59.061 56.3588 58.4679 57.4133 57.4133C58.4679 56.3588 59.061 54.9289 59.0625 53.4375V25.3125C59.061 23.8211 58.4679 22.3912 57.4133 21.3367C56.3588 20.2821 54.9289 19.689 53.4375 19.6875ZM2.8125 34.6875H4.6875V36.5625H2.8125V34.6875ZM10.3125 36.5625V34.6875H32.8125V36.5625H10.3125ZM32.8125 38.4375V40.3125H31.5169L30.5794 38.4375H32.8125ZM8.4375 36.5625H6.5625V34.6875H8.4375V36.5625ZM11.4103 44.0625C11.6049 43.5145 11.9643 43.0402 12.4391 42.7045C12.9139 42.3688 13.481 42.1882 14.0625 42.1875H21.5625C21.7367 42.1876 21.9075 42.1391 22.0557 42.0475C22.2039 41.956 22.3237 41.8249 22.4016 41.6691L24.0169 38.4375H28.4831L30.0937 41.6691C30.172 41.8256 30.2925 41.9572 30.4416 42.0488C30.5907 42.1404 30.7625 42.1885 30.9375 42.1875H32.8125V44.0625H11.4103ZM32.8125 25.3125V32.8125H2.8125V2.8125H49.6875V19.6875H38.4375C36.9461 19.689 35.5162 20.2821 34.4617 21.3367C33.4071 22.3912 32.814 23.8211 32.8125 25.3125ZM57.1875 53.4375C57.1875 54.4321 56.7924 55.3859 56.0891 56.0891C55.3859 56.7924 54.4321 57.1875 53.4375 57.1875H38.4375C37.4429 57.1875 36.4891 56.7924 35.7859 56.0891C35.0826 55.3859 34.6875 54.4321 34.6875 53.4375V25.3125C34.6875 24.3179 35.0826 23.3641 35.7859 22.6609C36.4891 21.9576 37.4429 21.5625 38.4375 21.5625H53.4375C54.4321 21.5625 55.3859 21.9576 56.0891 22.6609C56.7924 23.3641 57.1875 24.3179 57.1875 25.3125V53.4375Z" fill="white"/>
</svg>
