<svg width="85" height="85" viewBox="0 0 85 85" fill="none" xmlns="http://www.w3.org/2000/svg">
<path d="M35.3319 35.0226C35.3185 34.941 35.2971 34.8608 35.2682 34.7832C35.1003 34.4468 34.8057 34.191 34.4491 34.0719C34.0925 33.9529 33.7032 33.9805 33.367 34.1486L29.1836 36.2396L27.7018 36.9791C27.1101 37.2706 26.7979 37.932 26.9489 38.5741C27.0998 39.2162 27.674 39.6691 28.3336 39.6665C28.4178 39.664 28.5017 39.6546 28.5843 39.6381C28.6347 39.7863 28.6933 39.9315 28.76 40.0731C28.3503 40.4759 28.2246 41.0864 28.4416 41.6184C28.6587 42.1504 29.1757 42.4986 29.7503 42.4998H35.4169C35.9918 42.4991 36.5092 42.1512 36.7267 41.619C36.9441 41.0869 36.8185 40.4761 36.4086 40.0731C37.2583 38.3434 36.8147 36.257 35.3348 35.0226H35.3319ZM31.1981 38.4014L33.5427 37.2298C33.8317 37.4905 33.9978 37.8606 34.0003 38.2498C34.0003 39.0322 33.366 39.6665 32.5836 39.6665C31.8662 39.6612 31.2684 39.1154 31.1981 38.4014Z" fill="white"/>
<path d="M34 43.917H31.1667C30.3843 43.917 29.75 44.5513 29.75 45.3337C29.75 46.1161 30.3843 46.7503 31.1667 46.7503H34C34.7824 46.7503 35.4167 46.1161 35.4167 45.3337C35.4167 44.5513 34.7824 43.917 34 43.917Z" fill="white"/>
<path d="M56.667 41.0831C56.6677 40.7028 56.5144 40.3385 56.242 40.0731C56.3087 39.9315 56.3673 39.7863 56.4177 39.6381C56.4999 39.6545 56.5833 39.664 56.667 39.6665C57.3249 39.6678 57.8971 39.216 58.0484 38.5757C58.1998 37.9355 57.8905 37.2753 57.3017 36.9819L51.635 34.1486C51.2988 33.9805 50.9095 33.9529 50.5529 34.0719C50.1963 34.191 49.9017 34.4468 49.7338 34.7832C49.7049 34.8608 49.6835 34.941 49.6701 35.0226C48.1902 36.257 47.7465 38.3434 48.5963 40.0731C48.1869 40.4756 48.061 41.0853 48.2774 41.6171C48.4937 42.1488 49.0096 42.4974 49.5837 42.4998H55.2503C56.0327 42.4998 56.667 41.8655 56.667 41.0831ZM51.0003 38.2498C51.0035 37.8608 51.1695 37.4909 51.4579 37.2298L53.8025 38.4014C53.7322 39.1154 53.1344 39.6612 52.417 39.6665C51.6346 39.6665 51.0003 39.0322 51.0003 38.2498Z" fill="white"/>
<path d="M53.833 43.917H50.9997C50.2173 43.917 49.583 44.5513 49.583 45.3337C49.583 46.1161 50.2173 46.7503 50.9997 46.7503H53.833C54.6154 46.7503 55.2497 46.1161 55.2497 45.3337C55.2497 44.5513 54.6154 43.917 53.833 43.917Z" fill="white"/>
<path d="M41.0837 45.3333H43.917C44.6994 45.3333 45.3336 44.6991 45.3336 43.9167C45.3336 43.1343 44.6994 42.5 43.917 42.5H41.0837C40.3013 42.5 39.667 43.1343 39.667 43.9167C39.667 44.6991 40.3013 45.3333 41.0837 45.3333Z" fill="white"/>
<path d="M42.4999 48.167C38.7131 48.167 37.2695 49.9478 37.1165 50.1503C36.6684 50.7551 36.782 51.6066 37.3729 52.0728C37.9749 52.5448 38.8403 52.4666 39.3478 51.8943C40.2368 51.187 41.3719 50.8651 42.4999 51.0003C43.6247 50.8702 44.7555 51.1895 45.6463 51.8886C46.131 52.4903 47.0086 52.5926 47.6188 52.1185C48.2289 51.6443 48.3466 50.7687 47.8832 50.1503C47.7302 49.9478 46.2866 48.167 42.4999 48.167Z" fill="white"/>
<path d="M76.5 -6.0556e-05C73.851 0.0843966 71.6247 2.0161 71.1677 4.62677C64.702 3.17928 58.1374 2.21658 51.5284 1.74669C46.7211 0.559281 41.7851 -0.0274452 36.8333 -6.0556e-05C32.8154 -0.0204999 28.8446 0.86566 25.2167 2.59244C20.5417 3.21577 16.6274 3.99211 13.8281 4.62819C13.371 2.01904 11.1474 0.0875801 8.5 -6.0556e-05C6.39767 -6.0556e-05 0 -6.05581e-05 0 36.8333C0 73.6666 6.39767 73.6666 8.5 73.6666C11.1493 73.5815 13.3754 71.6493 13.8323 69.0384C16.9405 69.7467 21.1834 70.5655 26.2253 71.196C22.7433 73.7249 20.4634 77.5822 19.9268 81.8521C19.8407 82.6556 20.1004 83.4578 20.641 84.0584C21.1816 84.659 21.9521 85.0013 22.7602 85H62.2455C63.0538 85.0014 63.8246 84.6588 64.3653 84.0579C64.9059 83.457 65.1654 82.6544 65.0788 81.8507C64.5422 77.5812 62.2622 73.7243 58.7803 71.196C63.8222 70.5655 68.0652 69.7467 71.1733 69.0398C71.6304 71.6482 73.8533 73.579 76.5 73.6666C78.6023 73.6666 85 73.6666 85 36.8333C85 -6.05581e-05 78.6023 -6.0556e-05 76.5 -6.0556e-05ZM50.7563 4.40152C50.931 4.49793 51.1241 4.55635 51.323 4.57294H51.4278C60.1446 6.96144 68 12.3575 68 24.0833C68.1762 28.1168 67.4331 32.1375 65.8268 35.8416C65.1677 35.5696 64.4629 35.4254 63.75 35.4166V28.873C63.7446 27.2649 62.8346 25.7968 61.3969 25.0764C53.3899 21.1097 50.9207 15.2617 50.8994 15.2079C50.7086 14.7314 50.2751 14.3954 49.7661 14.3295C49.2582 14.2586 48.7521 14.4711 48.4472 14.8834C42.2039 23.2092 30.0532 25.0934 25.1175 25.5184C22.9201 25.7006 21.2343 27.5451 21.25 29.7499V35.4166C20.2959 35.4252 19.3595 35.6757 18.5286 36.1448C16.6702 32.3904 15.6644 28.2717 15.5833 24.0833C15.5833 9.40377 26.2565 2.83327 36.8333 2.83327C41.5208 2.78845 46.1963 3.31508 50.7563 4.40152ZM47.4442 68.2011C45.9579 69.0993 44.2333 69.5233 42.5 69.4166C40.7663 69.5223 39.0413 69.0995 37.553 68.204C38.8659 67.0928 39.6361 65.4697 39.6667 63.75V60.8444C40.137 60.8784 40.6045 60.9166 41.0833 60.9166H43.9167C44.3955 60.9166 44.863 60.8784 45.3333 60.8444V63.75C45.364 65.4682 46.1331 67.0901 47.4442 68.2011ZM43.9167 58.0833H41.0833C31.6987 58.0731 24.0935 50.4679 24.0833 41.0833V29.7499C24.0715 29.0166 24.6278 28.3985 25.3583 28.3333C30.3365 27.9083 42.1572 26.0666 49.3283 18.2424C51.9992 22.3002 55.7387 25.5417 60.1347 27.6094C60.6102 27.8478 60.9106 28.334 60.911 28.8659V41.0833C60.9008 50.4657 53.2991 58.07 43.9167 58.0833ZM19.1859 39.1552C19.7147 38.5748 20.4648 38.2458 21.25 38.2499V41.0833C21.2571 42.032 21.3329 42.9789 21.4767 43.9166L21.25 43.9166C20.1209 43.921 19.0978 43.2522 18.6487 42.2162C18.1996 41.1802 18.4109 39.9763 19.1859 39.1552ZM63.75 41.0833V38.2499C64.386 38.2512 65.0026 38.469 65.4982 38.8676C66.189 39.3938 66.5911 40.2149 66.5833 41.0833C66.5833 42.6481 65.3148 43.9166 63.75 43.9166H63.5233C63.6671 42.9789 63.7429 42.032 63.75 41.0833ZM13.0432 65.943C11.3078 65.518 10.3445 65.2346 10.3232 65.2261C9.57371 65.0016 8.78405 65.4272 8.5595 66.1767C8.33495 66.9263 8.76054 67.7159 9.51008 67.9405C9.51008 67.9405 10.0626 68.1062 11.084 68.3655C10.7242 69.6702 9.91667 70.8333 8.5 70.8333C8.26908 70.8333 2.83333 70.4465 2.83333 36.8333C2.83333 3.22002 8.26908 2.83327 8.5 2.83327C9.91667 2.83327 10.7242 3.99636 11.084 5.29402C10.0626 5.56036 9.51008 5.71902 9.51008 5.71902C8.82336 5.91076 8.38614 6.58297 8.48928 7.28845C8.59243 7.99393 9.2038 8.51283 9.91667 8.49994C10.0543 8.49952 10.1912 8.47949 10.3232 8.44044C10.3445 8.44044 11.3149 8.14577 13.0404 7.72361C14.7121 7.31844 17.0071 6.81269 19.7696 6.30694C15.5493 10.258 12.75 16.1018 12.75 24.0833C12.8307 28.9917 14.0906 33.8087 16.4234 38.1281C15.3552 39.8758 15.3133 42.064 16.3139 43.8513C17.3145 45.6386 19.2017 46.7469 21.25 46.75H22.0858C24.1586 53.6492 29.7999 58.8884 36.8333 60.4463V63.75C36.7043 65.0062 35.955 66.1145 34.8372 66.7023C33.1734 67.2622 31.5566 67.9534 30.0022 68.7692C24.2908 68.219 18.6244 67.2746 13.0432 65.943ZM62.2455 82.1666H22.7446C23.5393 75.0365 30.3365 71.3617 34.9279 69.6759C35.9621 70.7511 38.1777 72.25 42.5 72.25C46.8222 72.25 49.0379 70.7511 50.0749 69.6745C51.4629 70.1813 52.8107 70.7922 54.1067 71.502C54.1237 71.5105 54.1379 71.5232 54.1563 71.5317C57.9247 73.627 61.6746 76.9816 62.2455 82.1666ZM76.5 70.8333C75.0833 70.8333 74.2758 69.6702 73.916 68.3725C74.9374 68.1062 75.4899 67.9475 75.4899 67.9475C75.9748 67.8023 76.3453 67.4094 76.462 66.9168C76.5786 66.4243 76.4236 65.907 76.0554 65.5597C75.6871 65.2124 75.1616 65.088 74.6767 65.2332C74.6555 65.2332 73.6851 65.5279 71.9596 65.95C66.3807 67.2828 60.7167 68.2294 55.0077 68.7834C53.4509 67.9649 51.8312 67.2718 50.1642 66.7108C49.0427 66.1227 48.292 65.0101 48.1667 63.75V60.4463C55.2001 58.8884 60.8414 53.6492 62.9142 46.75H63.75C65.9395 46.7514 67.934 45.4912 68.8729 43.5132C69.8118 41.5351 69.5271 39.1932 68.1416 37.4977C69.921 34.2408 70.8333 29.7499 70.8333 24.0833C70.8333 14.8749 66.5564 9.15019 60.8572 5.60569C65.7942 6.31402 69.6561 7.16402 71.9567 7.73069C73.6922 8.15569 74.6555 8.43902 74.6767 8.44752C74.8091 8.48417 74.946 8.50182 75.0833 8.49994C75.7865 8.5001 76.3834 7.98447 76.4853 7.28873C76.5873 6.593 76.1635 5.92775 75.4899 5.72611C75.4899 5.72611 74.9374 5.56036 73.916 5.30111C74.2758 3.99636 75.0833 2.83327 76.5 2.83327C76.7309 2.83327 82.1666 3.22002 82.1666 36.8333C82.1666 70.4465 76.7309 70.8333 76.5 70.8333Z" fill="white"/>
</svg>
