<svg width="86" height="85" viewBox="0 0 86 85" fill="none" xmlns="http://www.w3.org/2000/svg">
<path d="M59.9648 70.7783L62.1911 68.578L64.0914 70.4562L61.8652 72.6566L59.9648 70.7783Z" fill="white"/>
<path d="M68.2718 66.3395C69.2903 65.3328 69.8749 63.9396 69.8749 62.5158C69.8749 59.6019 67.4776 57.1768 64.5308 57.1104L64.469 59.7653C65.9672 59.7998 67.1874 61.0336 67.1874 62.5158C67.1874 63.2396 66.8904 63.9489 66.3717 64.4602L64.0107 66.7937L65.9108 68.6717L68.2718 66.3395Z" fill="white"/>
<path d="M55.0938 61.0938H57.7812V73.0469H55.0938V61.0938Z" fill="white"/>
<path d="M56.4375 78.3594C57.1796 78.3594 57.7812 77.7648 57.7812 77.0312C57.7812 76.2977 57.1796 75.7031 56.4375 75.7031C55.6954 75.7031 55.0938 76.2977 55.0938 77.0312C55.0938 77.7648 55.6954 78.3594 56.4375 78.3594Z" fill="white"/>
<path d="M77.9375 1.32812H37.625C33.9203 1.32812 30.9062 4.30711 30.9062 7.96875V12.2493C27.9379 12.7819 25.1187 14.0316 22.747 15.907L20.9249 17.348C15.7864 18.3627 12.0938 22.7866 12.0938 28.0009V30.5469C12.0938 37.5275 16.1546 43.9902 22.4648 47.1338C23.3786 48.1605 24.4106 49.0862 25.5312 49.9123V50.818C25.5312 52.4742 24.5234 53.9312 22.9607 54.5315L12.4808 58.5597C5.71497 61.1602 1.34375 67.4767 1.34375 74.6526V83.6719H56.4375C57.663 83.6719 58.8159 83.2004 59.6813 82.3438L72.0734 70.0958C74.1213 68.0717 75.25 65.3796 75.25 62.5162C75.25 56.606 70.3843 51.7969 64.4046 51.7969C61.5075 51.7969 58.7837 52.9125 56.7358 54.9366L56.4375 55.2314L56.1392 54.9366C54.0913 52.9125 51.3675 51.7969 48.4704 51.7969C45.7466 51.7969 43.262 52.8009 41.3552 54.4452C39.9027 53.8037 38.9688 52.4078 38.9688 50.8194V49.9136C40.0894 49.0875 41.1214 48.1618 42.0352 47.1352C43.778 46.2666 45.3462 45.1456 46.7074 43.8295H77.9375C81.6422 43.8295 84.6562 40.8505 84.6562 37.1888V7.96875C84.6562 4.30711 81.6422 1.32812 77.9375 1.32812ZM48.4704 54.4531C50.65 54.4531 52.6978 55.2912 54.2391 56.8145L56.4375 58.9873L58.6359 56.8145C60.1772 55.2912 62.225 54.4531 64.4046 54.4531C68.9021 54.4531 72.5625 58.0709 72.5625 62.5162C72.5625 64.6704 71.7146 66.6945 70.1733 68.2178L57.7812 80.4658C57.0744 81.1644 55.8006 81.1644 55.0938 80.4658L42.7017 68.2178C41.1604 66.6945 40.3125 64.6704 40.3125 62.5162C40.3125 58.0709 43.9729 54.4531 48.4704 54.4531ZM39.5103 56.4865C38.3224 58.2051 37.625 60.2809 37.625 62.5162C37.625 65.3796 38.7537 68.0717 40.8016 70.0958L51.8499 81.0156H14.7812V67.7344H12.0938V81.0156H4.03125V74.6526C4.03125 68.5817 7.73059 63.236 13.455 61.0366L23.9349 57.0084C26.3012 56.0987 27.8922 54.0029 28.1623 51.5552C29.3273 52.1648 30.5582 52.6827 31.863 53.0692L32.25 53.1834L32.637 53.0692C33.9418 52.6827 35.1727 52.1648 36.3377 51.5552C36.5661 53.6177 37.7312 55.4227 39.5103 56.4865ZM32.25 50.4063C24.9991 48.0808 20.1562 41.5159 20.1562 33.9469V32.8153C20.1562 30.8324 21.7889 29.2188 23.7951 29.2188C25.1832 29.2188 26.4302 29.9811 27.0497 31.207L28.9014 34.8659L40.0128 30.7474C40.373 30.6146 40.7519 30.5469 41.1376 30.5469C42.9059 30.5469 44.3438 31.968 44.3438 33.7158V33.9455C44.3438 41.5159 39.5009 48.0795 32.25 50.4063ZM41.1376 27.8906C40.4294 27.8906 39.7333 28.0155 39.0682 28.2612L30.2223 31.539L29.4537 30.0183C28.376 27.8866 26.2072 26.5625 23.7951 26.5625C20.3068 26.5625 17.4688 29.3675 17.4688 32.8153V33.9469C17.4688 36.4132 17.9297 38.7812 18.7574 40.9793C16.25 38.1238 14.7812 34.429 14.7812 30.5469V28.0009C14.7812 23.9713 17.6999 20.5673 21.7217 19.9046L22.0671 19.8475L24.4267 17.9815C27.176 15.806 30.6294 14.6094 34.1514 14.6094C42.7353 14.6094 49.7188 21.5116 49.7188 29.9957V30.5469C49.7188 34.429 48.25 38.1238 45.7426 40.978C46.5717 38.7812 47.0312 36.4132 47.0312 33.9469V33.7171C47.0312 30.5044 44.3867 27.8906 41.1376 27.8906ZM52.2705 27.8906H58.8294L60.8907 19.7426L67.3232 32.458L70.7847 23.9062H76.5938V35.8594H51.6054C52.1254 34.1567 52.4062 32.3691 52.4062 30.5469V29.9957C52.4062 29.2825 52.3525 28.5826 52.2705 27.8906ZM76.5938 21.25H68.9653L67.0518 25.9795L60.0468 12.1324L56.7318 25.2344H51.7398C50.0413 19.1117 45.1634 14.2906 38.9688 12.6119V9.29688H76.5938V21.25ZM81.9688 37.1875C81.9688 39.3842 80.1601 41.1719 77.9375 41.1719H48.9864C49.5817 40.3298 50.1071 39.4427 50.5559 38.5156H76.5938C78.0759 38.5156 79.2812 37.3243 79.2812 35.8594V9.29688C79.2812 7.83195 78.0759 6.64062 76.5938 6.64062H38.9688C37.4866 6.64062 36.2812 7.83195 36.2812 9.29688V12.0873C35.5812 12.0062 34.873 11.9531 34.1514 11.9531C33.9646 11.9531 33.7792 11.9704 33.5938 11.977V7.96875C33.5938 5.77203 35.4024 3.98438 37.625 3.98438H77.9375C80.1601 3.98438 81.9688 5.77203 81.9688 7.96875V37.1875Z" fill="white"/>
</svg>
