<svg width="81" height="83" viewBox="0 0 81 83" fill="none" xmlns="http://www.w3.org/2000/svg">
<path d="M9.95313 53.4531C9.16509 53.4531 8.39475 53.6868 7.73953 54.1246C7.0843 54.5624 6.57361 55.1847 6.27204 55.9128C5.97048 56.6408 5.89157 57.4419 6.04531 58.2148C6.19905 58.9877 6.57852 59.6977 7.13575 60.2549C7.69297 60.8121 8.40292 61.1916 9.17581 61.3453C9.94871 61.4991 10.7498 61.4202 11.4779 61.1186C12.2059 60.817 12.8282 60.3063 13.266 59.6511C13.7038 58.9959 13.9375 58.2255 13.9375 57.4375C13.9363 56.3811 13.5162 55.3684 12.7692 54.6214C12.0222 53.8745 11.0095 53.4543 9.95313 53.4531ZM9.95313 58.7656C9.69045 58.7656 9.43367 58.6877 9.21526 58.5418C8.99685 58.3959 8.82662 58.1884 8.7261 57.9458C8.62558 57.7031 8.59928 57.436 8.65052 57.1784C8.70177 56.9208 8.82826 56.6841 9.014 56.4984C9.19974 56.3126 9.43639 56.1861 9.69402 56.1349C9.95165 56.0837 10.2187 56.11 10.4614 56.2105C10.7041 56.311 10.9115 56.4812 11.0574 56.6996C11.2034 56.918 11.2813 57.1748 11.2813 57.4375C11.2809 57.7896 11.1408 58.1272 10.8918 58.3762C10.6428 58.6252 10.3052 58.7652 9.95313 58.7656Z" fill="white"/>
<path d="M60.4219 53.4531C59.6338 53.4531 58.8635 53.6868 58.2083 54.1246C57.5531 54.5624 57.0424 55.1847 56.7408 55.9128C56.4392 56.6408 56.3603 57.4419 56.5141 58.2148C56.6678 58.9877 57.0473 59.6977 57.6045 60.2549C58.1617 60.8121 58.8717 61.1916 59.6446 61.3453C60.4175 61.4991 61.2186 61.4202 61.9466 61.1186C62.6747 60.817 63.297 60.3063 63.7348 59.6511C64.1726 58.9959 64.4063 58.2255 64.4063 57.4375C64.4051 56.3811 63.9849 55.3684 63.238 54.6214C62.491 53.8745 61.4782 53.4543 60.4219 53.4531ZM60.4219 58.7656C60.1592 58.7656 59.9024 58.6877 59.684 58.5418C59.4656 58.3959 59.2954 58.1884 59.1949 57.9458C59.0943 57.7031 59.068 57.436 59.1193 57.1784C59.1705 56.9208 59.297 56.6841 59.4828 56.4984C59.6685 56.3126 59.9051 56.1861 60.1628 56.1349C60.4204 56.0837 60.6874 56.11 60.9301 56.2105C61.1728 56.311 61.3802 56.4812 61.5262 56.6996C61.6721 56.918 61.75 57.1748 61.75 57.4375C61.7496 57.7896 61.6096 58.1272 61.3606 58.3762C61.1116 58.6252 60.774 58.7652 60.4219 58.7656Z" fill="white"/>
<path d="M69.7187 57.4375C69.7187 56.2033 69.4729 54.9815 68.9958 53.8432C68.5186 52.705 67.8196 51.6731 66.9395 50.8079C66.0593 49.9426 65.0158 49.2613 63.8695 48.8036C62.7233 48.3459 61.4975 48.121 60.2634 48.142C55.2245 48.2262 51.1249 52.4549 51.1249 57.5687V62.0304C47.4867 61.0401 42.1805 60.0938 35.1875 60.0938C28.1944 60.0938 22.8882 61.0401 19.25 62.0304V57.4375C19.25 56.1863 18.9974 54.9479 18.5073 53.7966C18.0173 52.6452 17.2999 51.6047 16.3981 50.7372C15.4963 49.8698 14.4287 49.1933 13.2592 48.7484C12.0898 48.3034 10.8425 48.0991 9.59216 48.1476C7.25563 48.2461 5.04127 49.2184 3.38762 50.8721C1.73398 52.5257 0.761641 54.7401 0.663179 57.0766C0.574537 59.3728 1.33892 61.6204 2.809 63.3865C4.27909 65.1525 6.35083 66.312 8.62496 66.6413V72.0469C8.62654 73.4554 9.18675 74.8057 10.1827 75.8017C11.1786 76.7976 12.529 77.3578 13.9375 77.3594V81.3438C13.9375 81.696 14.0774 82.0339 14.3265 82.2829C14.5755 82.532 14.9133 82.6719 15.2656 82.6719H19.25C19.4966 82.6719 19.7383 82.6032 19.9481 82.4736C20.1579 82.3439 20.3275 82.1584 20.4378 81.9378L22.727 77.3594H47.6479L49.9371 81.9378C50.0474 82.1584 50.217 82.3439 50.4268 82.4736C50.6366 82.6032 50.8783 82.6719 51.1249 82.6719H55.1093C55.4616 82.6719 55.7994 82.532 56.0484 82.2829C56.2975 82.0339 56.4374 81.696 56.4374 81.3438V77.3594C57.8459 77.3578 59.1963 76.7976 60.1922 75.8017C61.1881 74.8057 61.7484 73.4554 61.7499 72.0469V66.6398C63.9615 66.3176 65.9833 65.2107 67.4464 63.5212C68.9094 61.8317 69.7159 59.6724 69.7187 57.4375ZM18.4292 80.0157H16.5937V77.3594H19.7573L18.4292 80.0157ZM53.7812 80.0157H51.9457L50.6176 77.3594H53.7812V80.0157ZM60.4218 64.0782C60.0696 64.0782 59.7318 64.2181 59.4827 64.4672C59.2336 64.7162 59.0937 65.0541 59.0937 65.4063V72.0469C59.0929 72.7511 58.8127 73.4263 58.3148 73.9243C57.8168 74.4222 57.1417 74.7023 56.4374 74.7032H13.9375C13.2332 74.7023 12.5581 74.4222 12.0601 73.9243C11.5622 73.4263 11.282 72.7511 11.2812 72.0469V65.4063C11.2812 65.0541 11.1413 64.7162 10.8922 64.4672C10.6431 64.2181 10.3053 64.0782 9.95308 64.0782C9.05913 64.0782 8.17437 63.8977 7.35185 63.5475C6.52933 63.1974 5.78597 62.6847 5.16634 62.0404C4.54671 61.396 4.06357 60.6332 3.74586 59.7976C3.42816 58.962 3.28244 58.0708 3.31744 57.1776C3.38781 55.5094 4.08205 53.9284 5.26269 52.7478C6.44332 51.5672 8.02425 50.8729 9.69244 50.8026C10.5857 50.7675 11.4769 50.9131 12.3125 51.2307C13.1481 51.5483 13.911 52.0314 14.5554 52.651C15.1999 53.2706 15.7126 54.0139 16.0628 54.8364C16.4131 55.6588 16.5936 56.5436 16.5937 57.4375V62.8497C14.5001 63.5801 13.3999 64.1848 13.2863 64.2487L14.5857 66.5654C14.6543 66.5272 21.6062 62.75 35.1875 62.75C48.7687 62.75 55.7206 66.5272 55.7863 66.5639L57.0886 64.2487C56.975 64.1848 55.8748 63.5795 53.7812 62.8497V57.5687C53.7812 53.8954 56.709 50.858 60.3078 50.7979C61.1846 50.7827 62.0557 50.9413 62.8709 51.2646C63.6861 51.5879 64.4291 52.0695 65.0572 52.6815C65.6853 53.2935 66.1859 54.0238 66.5302 54.8303C66.8745 55.6369 67.0556 56.5036 67.0632 57.3805C67.0707 58.2574 66.9045 59.1271 66.5741 59.9395C66.2437 60.7518 65.7557 61.4906 65.1382 62.1133C64.5207 62.736 63.786 63.2302 62.9765 63.5675C62.167 63.9047 61.2988 64.0783 60.4218 64.0782Z" fill="white"/>
<path d="M11.2812 38.8438C11.2821 38.1395 11.5622 37.4644 12.0602 36.9664C12.5581 36.4685 13.2333 36.1883 13.9375 36.1875H56.4375C57.1417 36.1883 57.8169 36.4685 58.3148 36.9664C58.8128 37.4644 59.0929 38.1395 59.0938 38.8438V45.4844H61.75V38.8438C61.7484 37.4353 61.1882 36.0849 60.1923 35.089C59.1963 34.093 57.846 33.5328 56.4375 33.5312H13.9375C12.529 33.5328 11.1787 34.093 10.1827 35.089C9.1868 36.0849 8.62658 37.4353 8.625 38.8438V45.4844H11.2812V38.8438Z" fill="white"/>
<path d="M27.2188 41.5H29.875V44.1562H27.2188V41.5Z" fill="white"/>
<path d="M33.8594 48.1406H36.5156V50.7969H33.8594V48.1406Z" fill="white"/>
<path d="M20.5781 48.1406H23.2344V50.7969H20.5781V48.1406Z" fill="white"/>
<path d="M27.2188 54.7812H29.875V57.4375H27.2188V54.7812Z" fill="white"/>
<path d="M40.5 41.5H43.1562V44.1562H40.5V41.5Z" fill="white"/>
<path d="M47.1406 48.1406H49.7969V50.7969H47.1406V48.1406Z" fill="white"/>
<path d="M40.5 54.7812H43.1562V57.4375H40.5V54.7812Z" fill="white"/>
<path d="M75.0312 0.328125H37.8438C36.4353 0.329707 35.0849 0.889923 34.089 1.88587C33.093 2.88181 32.5328 4.23215 32.5312 5.64062V6.96875H35.1875V5.64062C35.1883 4.9364 35.4685 4.26126 35.9664 3.76329C36.4644 3.26533 37.1395 2.98521 37.8438 2.98438H55.1094V30.875H57.7656V2.98438H75.0312C75.7355 2.98521 76.4106 3.26533 76.9086 3.76329C77.4065 4.26126 77.6867 4.9364 77.6875 5.64062V72.0469C77.6867 72.7511 77.4065 73.4262 76.9086 73.9242C76.4106 74.4222 75.7355 74.7023 75.0312 74.7031H63.0781V77.3594H66.2417L68.5309 81.9378C68.6412 82.1583 68.8108 82.3439 69.0206 82.4735C69.2304 82.6032 69.4721 82.6719 69.7188 82.6719H73.7031C74.0554 82.6719 74.3932 82.532 74.6423 82.2829C74.8913 82.0338 75.0312 81.696 75.0312 81.3438V77.3594C76.4397 77.3578 77.7901 76.7976 78.786 75.8016C79.782 74.8057 80.3422 73.4554 80.3438 72.0469V5.64062C80.3422 4.23215 79.782 2.88181 78.786 1.88587C77.7901 0.889923 76.4397 0.329707 75.0312 0.328125ZM72.375 80.0156H70.5395L69.2114 77.3594H72.375V80.0156Z" fill="white"/>
<path d="M9.95307 28.2188H21.9062V30.875H24.5624V28.2188H36.5156C36.6993 28.2187 36.881 28.1806 37.0492 28.1068C37.2174 28.033 37.3685 27.9251 37.4929 27.7899C37.6173 27.6547 37.7123 27.4951 37.7719 27.3213C37.8314 27.1476 37.8543 26.9633 37.839 26.7802L36.5109 10.8427C36.4832 10.5108 36.3318 10.2013 36.0867 9.97576C35.8415 9.75021 35.5206 9.62501 35.1874 9.625H24.5624V6.96875H21.9062V9.625H11.2812C10.9481 9.62501 10.6271 9.75021 10.382 9.97576C10.1368 10.2013 9.98541 10.5108 9.95772 10.8427L8.6296 26.7802C8.61433 26.9633 8.6372 27.1476 8.69678 27.3213C8.75636 27.4951 8.85134 27.6547 8.97573 27.7899C9.10011 27.9251 9.25119 28.033 9.41942 28.1068C9.58765 28.1806 9.76936 28.2187 9.95307 28.2188ZM12.5032 12.2812H33.9654L35.0722 25.5625H11.3964L12.5032 12.2812Z" fill="white"/>
</svg>
