<svg width="18" height="18" viewBox="0 0 18 18" fill="none" xmlns="http://www.w3.org/2000/svg">
<path fill-rule="evenodd" clip-rule="evenodd" d="M0.999999 2L1 16C1 16.5523 1.44772 17 2 17L16 17C16.5523 17 17 16.5523 17 16L17 2C17 1.44772 16.5523 0.999999 16 0.999999L2 1C1.44771 1 0.999999 1.44772 0.999999 2ZM-8.74228e-08 16C-3.91405e-08 17.1046 0.89543 18 2 18L16 18C17.1046 18 18 17.1046 18 16L18 2C18 0.895429 17.1046 -7.47665e-07 16 -6.99382e-07L2 -8.74228e-08C0.89543 -3.91405e-08 -7.47665e-07 0.89543 -6.99382e-07 2L-8.74228e-08 16Z" fill="#E2E2E2"/>
<path d="M11.6316 8.44285L7.93347 6.16125C7.76269 6.05581 7.59061 6 7.44758 6C7.17106 6 7 6.20001 7 6.53479L7 11.466C7 11.8004 7.17084 12 7.44672 12C7.58996 12 7.75929 11.9441 7.93046 11.8384L11.6303 9.55686C11.8682 9.40989 12 9.21212 12 8.99973C12.0001 8.78749 11.8698 8.58977 11.6316 8.44285Z" fill="white"/>
</svg>
