<svg width="74" height="74" viewBox="0 0 74 74" fill="none" xmlns="http://www.w3.org/2000/svg">
<path d="M56.1717 55.0777C56.1717 54.771 56.0499 54.4769 55.8331 54.2601C55.6162 54.0432 55.3221 53.9214 55.0155 53.9214H53.8901V45.3513C53.8902 45.1059 53.8123 44.8668 53.6675 44.6686C53.5228 44.4704 53.3187 44.3234 53.0849 44.2489C52.851 44.1744 52.5995 44.1762 52.3668 44.2541C52.1341 44.332 51.9322 44.482 51.7903 44.6822L44.8944 54.4086C44.7722 54.5818 44.6999 54.7852 44.6854 54.9966C44.6708 55.2081 44.7146 55.4195 44.8119 55.6078C44.9092 55.7961 45.0564 55.954 45.2373 56.0644C45.4182 56.1748 45.626 56.2335 45.8379 56.2339H51.5776V58.3291C51.5776 58.6357 51.6994 58.9298 51.9162 59.1466C52.1331 59.3635 52.4272 59.4853 52.7338 59.4853C53.0405 59.4853 53.3346 59.3635 53.5514 59.1466C53.7682 58.9298 53.8901 58.6357 53.8901 58.3291V56.2339H55.0155C55.3221 56.2339 55.6162 56.1121 55.8331 55.8953C56.0499 55.6784 56.1717 55.3843 56.1717 55.0777ZM51.5776 53.9214H48.0764L51.5776 48.9881V53.9214Z" fill="white"/>
<path d="M62.7304 43.8576C62.5893 43.8013 62.4385 43.7734 62.2866 43.7755C62.1347 43.7776 61.9847 43.8096 61.8452 43.8698C61.7057 43.9299 61.5795 44.017 61.4737 44.126C61.3679 44.235 61.2847 44.3639 61.2288 44.5051L55.9069 57.9022C55.8509 58.0433 55.8231 58.1941 55.8253 58.3459C55.8275 58.4977 55.8596 58.6476 55.9197 58.7871C55.9798 58.9265 56.0668 59.0527 56.1757 59.1585C56.2846 59.2644 56.4133 59.3477 56.5544 59.4038C56.6956 59.4598 56.8463 59.4876 56.9982 59.4854C57.15 59.4832 57.2999 59.4511 57.4393 59.391C57.5788 59.3309 57.705 59.2439 57.8108 59.135C57.9166 59.0261 57.9999 58.8974 58.056 58.7563L63.3779 45.3576C63.4339 45.2166 63.4616 45.066 63.4594 44.9143C63.4572 44.7625 63.4251 44.6127 63.365 44.4734C63.3049 44.3341 63.2179 44.208 63.109 44.1024C63.0001 43.9967 62.8714 43.9135 62.7304 43.8576Z" fill="white"/>
<path d="M73.8888 45.1448C73.7951 44.9469 73.6471 44.7796 73.4621 44.6626C73.277 44.5455 73.0626 44.4834 72.8436 44.4834H64.9395C64.6328 44.4834 64.3387 44.6052 64.1219 44.8221C63.905 45.0389 63.7832 45.333 63.7832 45.6396C63.7832 45.9463 63.905 46.2404 64.1219 46.4572C64.3387 46.6741 64.6328 46.7959 64.9395 46.7959H70.528C69.4057 48.3525 68.4317 50.0109 67.6189 51.7493C66.6925 53.802 66.0693 55.9784 65.7689 58.2104C65.7378 58.5153 65.829 58.8201 66.0223 59.058C66.2156 59.2958 66.4954 59.4473 66.8002 59.4792H66.9205C67.2058 59.4789 67.481 59.3731 67.693 59.1821C67.9051 58.9911 68.039 58.7285 68.069 58.4447C68.3499 56.4568 68.9093 54.5184 69.731 52.6866C70.827 50.4367 72.1715 48.3165 73.7393 46.3658C73.8768 46.197 73.9637 45.9929 73.9902 45.7768C74.0167 45.5608 73.9815 45.3417 73.8888 45.1448Z" fill="white"/>
<path d="M44.34 57.1728H38.0994C38.3023 56.7052 38.6148 56.2932 39.0105 55.9718C39.8802 55.2845 40.7843 54.6418 41.7192 54.0463C42.3836 53.6391 43.0165 53.1825 43.6124 52.6804C44.6092 51.7202 45.1913 50.4084 45.2342 49.0251C45.2457 47.7291 44.7544 46.4791 43.8637 45.5378C43.4256 45.0976 42.9022 44.7515 42.3256 44.5209C41.749 44.2902 41.1313 44.1799 40.5105 44.1966C39.8497 44.1555 39.1877 44.2545 38.5679 44.4872C37.948 44.7199 37.3844 45.081 36.9139 45.5469C36.4434 46.0127 36.0767 46.5727 35.8379 47.1902C35.599 47.8077 35.4934 48.4687 35.5279 49.1299C35.5279 49.4366 35.6497 49.7306 35.8665 49.9475C36.0834 50.1643 36.3775 50.2861 36.6841 50.2861C36.9908 50.2861 37.2849 50.1643 37.5017 49.9475C37.7186 49.7306 37.8404 49.4366 37.8404 49.1299C37.8087 48.7735 37.8564 48.4145 37.9801 48.0787C38.1038 47.743 38.3005 47.4388 38.5558 47.1882C38.8112 46.9375 39.1189 46.7466 39.4569 46.6292C39.7949 46.5118 40.1548 46.4707 40.5105 46.5091C40.8223 46.4944 41.1337 46.5441 41.4254 46.655C41.7172 46.7658 41.983 46.9355 42.2064 47.1535C42.6642 47.6474 42.9186 48.2961 42.9186 48.9696C42.8912 49.7366 42.5706 50.4638 42.0229 51.0015C41.5182 51.4045 40.99 51.7772 40.4412 52.1176C39.4395 52.7577 38.4706 53.4477 37.5382 54.185C36.9186 54.6948 36.4174 55.3334 36.0697 56.0566C35.722 56.7797 35.536 57.5699 35.5248 58.3722C35.5363 58.6713 35.6631 58.9544 35.8787 59.1621C36.0942 59.3699 36.3817 59.4862 36.681 59.4868H44.337C44.6436 59.4868 44.9377 59.365 45.1545 59.1482C45.3714 58.9313 45.4932 58.6372 45.4932 58.3306C45.4932 58.0239 45.3714 57.7298 45.1545 57.513C44.9377 57.2961 44.6436 57.1743 44.337 57.1743L44.34 57.1728Z" fill="white"/>
<path d="M30.4155 6.58405C22.3488 6.58405 14.6125 9.78854 8.9085 15.4926C3.20448 21.1966 0 28.9329 0 36.9996C0 45.0663 3.20448 52.8026 8.9085 58.5066C14.6125 64.2106 22.3488 67.4151 30.4155 67.4151C30.5674 67.4153 30.7179 67.3856 30.8583 67.3275C30.9986 67.2695 31.1262 67.1843 31.2336 67.0769C31.341 66.9695 31.4262 66.842 31.4842 66.7016C31.5422 66.5612 31.572 66.4108 31.5718 66.2589V61.3456C31.5718 61.0389 31.45 60.7448 31.2331 60.528C31.0163 60.3112 30.7222 60.1893 30.4155 60.1893C30.1089 60.1893 29.8148 60.3112 29.5979 60.528C29.3811 60.7448 29.2593 61.0389 29.2593 61.3456V65.0795C25.1124 64.9062 21.0567 63.8085 17.3885 61.8667L19.2385 58.6631C19.3144 58.5315 19.3636 58.3862 19.3834 58.2356C19.4032 58.085 19.3931 57.9319 19.3537 57.7852C19.3144 57.6384 19.2465 57.5009 19.154 57.3804C19.0614 57.2599 18.9461 57.1588 18.8145 57.0829C18.6829 57.007 18.5376 56.9577 18.387 56.9379C18.2364 56.9181 18.0833 56.9282 17.9366 56.9676C17.7899 57.007 17.6523 57.0748 17.5318 57.1674C17.4113 57.2599 17.3102 57.3752 17.2343 57.5068L15.3843 60.7073C11.8839 58.4867 8.91401 55.5242 6.68466 52.0293L9.89904 50.1793C10.1648 50.026 10.3588 49.7733 10.4383 49.477C10.5178 49.1807 10.4763 48.8649 10.323 48.5991C10.2471 48.4675 10.146 48.3521 10.0255 48.2596C9.90498 48.1671 9.76743 48.0992 9.6207 48.0598C9.32435 47.9803 9.00856 48.0218 8.74279 48.1751L5.52533 50.0359C3.60439 46.3593 2.52636 42.3011 2.36954 38.1558H6.06954C6.3762 38.1558 6.67029 38.034 6.88713 37.8172C7.10397 37.6003 7.22579 37.3062 7.22579 36.9996C7.22579 36.6929 7.10397 36.3988 6.88713 36.182C6.67029 35.9652 6.3762 35.8433 6.06954 35.8433H2.36954C2.52636 31.6981 3.60439 27.6399 5.52533 23.9633L8.75358 25.8271C9.01935 25.9805 9.33514 26.0219 9.63149 25.9424C9.92784 25.8629 10.1805 25.6689 10.3338 25.4032C10.4871 25.1374 10.5286 24.8216 10.4491 24.5253C10.3696 24.2289 10.1756 23.9763 9.90983 23.823L6.69546 21.973C8.92445 18.477 11.8943 15.5134 15.3951 13.2918L17.2451 16.4923C17.321 16.6239 17.4221 16.7393 17.5426 16.8318C17.6631 16.9243 17.8006 16.9922 17.9474 17.0316C18.0941 17.071 18.2472 17.081 18.3978 17.0613C18.5484 17.0415 18.6937 16.9922 18.8253 16.9163C18.9569 16.8404 19.0722 16.7393 19.1648 16.6188C19.2573 16.4983 19.3252 16.3607 19.3645 16.214C19.4039 16.0673 19.414 15.9142 19.3942 15.7636C19.3744 15.6129 19.3252 15.4677 19.2492 15.3361L17.3992 12.1325C21.0674 10.1906 25.1232 9.09294 29.2701 8.91967V12.6536C29.2701 12.9602 29.3919 13.2543 29.6087 13.4712C29.8256 13.688 30.1197 13.8098 30.4263 13.8098C30.733 13.8098 31.0271 13.688 31.2439 13.4712C31.4608 13.2543 31.5826 12.9602 31.5826 12.6536V7.7403C31.5828 7.58749 31.5527 7.43616 31.494 7.29507C31.4353 7.15399 31.3491 7.02596 31.2406 6.91841C31.132 6.81086 31.0032 6.72592 30.8616 6.66853C30.7199 6.61113 30.5683 6.58242 30.4155 6.58405Z" fill="white"/>
<path d="M30.4159 21.2129C30.1093 21.2129 29.8152 21.3347 29.5983 21.5515C29.3815 21.7684 29.2597 22.0625 29.2597 22.3691V36.3983L21.4296 41.9205C21.1911 42.1023 21.0325 42.3694 20.987 42.6657C20.9416 42.9621 21.0128 43.2645 21.1858 43.5093C21.3587 43.7542 21.6199 43.9224 21.9144 43.9786C22.2089 44.0348 22.5137 43.9746 22.7646 43.8106L31.0896 37.9523C31.2408 37.8441 31.3637 37.7009 31.4477 37.5351C31.5317 37.3692 31.5744 37.1855 31.5722 36.9995V22.3691C31.5722 22.0625 31.4504 21.7684 31.2335 21.5515C31.0167 21.3347 30.7226 21.2129 30.4159 21.2129Z" fill="#F35F30"/>
<path d="M37.9978 9.89792C38.6389 9.89792 39.1587 9.37818 39.1587 8.73705C39.1587 8.09591 38.6389 7.57617 37.9978 7.57617C37.3567 7.57617 36.8369 8.09591 36.8369 8.73705C36.8369 9.37818 37.3567 9.89792 37.9978 9.89792Z" fill="white"/>
<path d="M45.0476 12.8266C45.6887 12.8266 46.2085 12.3069 46.2085 11.6658C46.2085 11.0246 45.6887 10.5049 45.0476 10.5049C44.4065 10.5049 43.8867 11.0246 43.8867 11.6658C43.8867 12.3069 44.4065 12.8266 45.0476 12.8266Z" fill="white"/>
<path d="M51.0974 17.4653C51.7385 17.4653 52.2583 16.9456 52.2583 16.3044C52.2583 15.6633 51.7385 15.1436 51.0974 15.1436C50.4563 15.1436 49.9365 15.6633 49.9365 16.3044C49.9365 16.9456 50.4563 17.4653 51.0974 17.4653Z" fill="white"/>
<path d="M55.7497 23.5278C56.3909 23.5278 56.9106 23.0081 56.9106 22.3669C56.9106 21.7258 56.3909 21.2061 55.7497 21.2061C55.1086 21.2061 54.5889 21.7258 54.5889 22.3669C54.5889 23.0081 55.1086 23.5278 55.7497 23.5278Z" fill="white"/>
<path d="M58.6804 30.5864C59.3215 30.5864 59.8413 30.0667 59.8413 29.4255C59.8413 28.7844 59.3215 28.2646 58.6804 28.2646C58.0393 28.2646 57.5195 28.7844 57.5195 29.4255C57.5195 30.0667 58.0393 30.5864 58.6804 30.5864Z" fill="white"/>
<path d="M59.6736 38.1684C60.3147 38.1684 60.8345 37.6487 60.8345 37.0076C60.8345 36.3664 60.3147 35.8467 59.6736 35.8467C59.0324 35.8467 58.5127 36.3664 58.5127 37.0076C58.5127 37.6487 59.0324 38.1684 59.6736 38.1684Z" fill="white"/>
</svg>
