<svg width="74" height="74" viewBox="0 0 74 74" fill="none" xmlns="http://www.w3.org/2000/svg">
<path d="M63.3111 26.1752C63.9097 26.1752 64.3951 25.6901 64.3951 25.0913V12.9138C64.3951 12.3687 64.0732 11.874 63.5747 11.6526L37.56 0.11857C37.2041 -0.0395474 36.7963 -0.0394028 36.4412 0.118281L10.4254 11.6527C9.92719 11.8739 9.60547 12.3687 9.60547 12.9138V35.4303C9.60547 43.8462 12.1462 51.946 16.9527 58.8542C21.7592 65.7624 28.471 70.9601 36.3621 73.8854C36.7736 74.0381 37.2271 74.0381 37.6387 73.8853C45.5299 70.96 52.2415 65.7622 57.048 58.854C61.8545 51.9459 64.3952 43.8461 64.3952 35.4303V30.15C64.3952 29.5512 63.9099 29.066 63.3112 29.066C62.7126 29.066 62.2273 29.5512 62.2273 30.15V35.4303C62.2273 51.5548 52.094 66.1587 37.0005 71.8097C21.9054 66.1595 11.7733 51.5558 11.7733 35.4303V13.4266L37.0002 2.24188L62.2271 13.4266V25.0913C62.2271 25.6901 62.7125 26.1752 63.3111 26.1752Z" fill="white"/>
<path d="M42.527 36.2866C42.9503 36.7097 43.6367 36.7097 44.0599 36.2866L47.6839 32.6626C48.3546 31.9917 48.3546 30.9003 47.6839 30.2295L44.7506 27.296C44.0798 26.6252 42.9885 26.6254 42.3176 27.296L34.2893 35.3244L30.7357 31.7707C30.0649 31.0999 28.9734 31.0998 28.3027 31.7707L25.3691 34.7042C24.6985 35.3751 24.6986 36.4665 25.3693 37.1373L33.0728 44.8408C33.7438 45.5117 34.8349 45.5113 35.5058 44.8408L40.4196 39.927C40.8429 39.5035 40.8429 38.8173 40.4196 38.394C39.9962 37.9708 39.3099 37.9708 38.8867 38.394L34.2893 42.9915L27.2187 35.9207L29.5192 33.6202L33.0728 37.174C33.7437 37.8449 34.835 37.8443 35.5058 37.174L43.5339 29.1456L45.8344 31.4461L42.5268 34.7537C42.1035 35.177 42.1035 35.8632 42.527 36.2866Z" fill="#F35F30"/>
<path d="M37.0001 69.6172C37.5987 69.6172 38.0841 69.132 38.0841 68.5332V52.9258C47.1747 52.3643 54.3986 44.7905 54.3986 35.561C54.3986 26.3315 47.1748 18.7574 38.0841 18.1959V5.44531C38.0841 4.84652 37.5987 4.36133 37.0001 4.36133C36.4014 4.36133 35.9161 4.84652 35.9161 5.44531V18.1966C33.4959 18.3482 31.1171 19.0049 28.9775 20.1187C28.4464 20.395 28.2399 21.0496 28.5164 21.5806C28.793 22.1119 29.4476 22.3183 29.9785 22.0415C31.8396 21.0728 33.8324 20.5115 35.9161 20.3676V25.5818C35.9161 26.1806 36.4014 26.6658 37.0001 26.6658C37.5987 26.6658 38.0841 26.1806 38.0841 25.5818V20.3685C45.9784 20.9262 52.2307 27.5271 52.2307 35.5609C52.2307 43.5945 45.9784 50.1954 38.0841 50.7531V48.1589C38.0841 47.5601 37.5987 47.0749 37.0001 47.0749C36.4014 47.0749 35.9161 47.5601 35.9161 48.1589V50.7531C28.0218 50.1954 21.7695 43.5945 21.7695 35.5609C21.7695 31.5456 23.3185 27.7565 26.1311 24.8914C26.5505 24.4642 26.5441 23.7779 26.1169 23.3587C25.6897 22.9392 25.0033 22.9456 24.584 23.3728C21.3711 26.6457 19.6016 30.9742 19.6016 35.561C19.6016 44.7905 26.8255 52.3645 35.9161 52.9258V68.5331C35.9161 69.1319 36.4014 69.6172 37.0001 69.6172Z" fill="white"/>
</svg>
