<svg width="70" height="74" viewBox="0 0 70 74" fill="none" xmlns="http://www.w3.org/2000/svg">
<path d="M60.1597 13.594L59.222 17.3438H58.9688C58.3305 17.3438 57.8125 17.8617 57.8125 18.5V26.5938C57.8125 27.232 58.3305 27.75 58.9688 27.75V56.6562C58.9688 57.2945 59.4868 57.8125 60.125 57.8125H61.2812V70.5312C61.2812 71.1683 60.7621 71.6875 60.125 71.6875H54.3438C53.7067 71.6875 53.1875 71.1683 53.1875 70.5312V3.46875C53.1875 1.55631 51.6312 0 49.7188 0H40.4688C38.5563 0 37 1.55631 37 3.46875V11.5625H34.6875C34.0493 11.5625 33.5312 12.0805 33.5312 12.7188V16.1875H31.2188V12.7188C31.2188 10.8063 29.6624 9.25 27.75 9.25H18.5C16.5876 9.25 15.0312 10.8063 15.0312 12.7188V16.1875H3.46875C1.55631 16.1875 0 17.7438 0 19.6562V72.8438C0 73.482 0.518 74 1.15625 74H8.09375C8.732 74 9.25 73.482 9.25 72.8438V71.6875H37V72.8438C37 73.482 37.518 74 38.1562 74H45.0938C45.732 74 46.25 73.482 46.25 72.8438V19.6562C46.25 17.7438 44.6937 16.1875 42.7812 16.1875V12.7188C42.7812 12.0805 42.2632 11.5625 41.625 11.5625H39.3125V3.46875C39.3125 2.83166 39.8317 2.3125 40.4688 2.3125H49.7188C50.3558 2.3125 50.875 2.83166 50.875 3.46875V70.5312C50.875 72.4437 52.4313 74 54.3438 74H60.125C62.0374 74 63.5938 72.4437 63.5938 70.5312V57.8125H64.75C65.3883 57.8125 65.9062 57.2945 65.9062 56.6562V27.75C66.5445 27.75 67.0625 27.232 67.0625 26.5938V18.5C67.0625 17.8617 66.5445 17.3438 65.9062 17.3438H65.653L64.7153 13.594C64.587 13.0795 64.1245 12.7188 63.5938 12.7188H61.2812C60.7505 12.7188 60.288 13.0795 60.1597 13.594ZM17.3438 12.7188C17.3438 12.0817 17.8629 11.5625 18.5 11.5625H27.75C28.3871 11.5625 28.9062 12.0817 28.9062 12.7188V16.1875H17.3438V12.7188ZM43.9375 19.6562V71.6875H39.3125V70.5312C39.3125 69.893 38.7945 69.375 38.1562 69.375H8.09375C7.4555 69.375 6.9375 69.893 6.9375 70.5312V71.6875H2.3125V19.6562C2.3125 19.0192 2.83166 18.5 3.46875 18.5H42.7812C43.4183 18.5 43.9375 19.0192 43.9375 19.6562ZM40.4688 16.1875H35.8438V13.875H40.4688V16.1875ZM64.75 19.6562V25.4375H60.125V19.6562H64.75ZM63.5938 55.5H61.2812V27.75H63.5938V55.5ZM62.6907 15.0312L63.2688 17.3438H61.6062L62.1843 15.0312H62.6907Z" fill="white"/>
<path d="M63.5938 9.25V4.625C63.5938 3.98675 63.0757 3.46875 62.4375 3.46875C61.7993 3.46875 61.2812 3.98675 61.2812 4.625V9.25C61.2812 9.88825 61.7993 10.4062 62.4375 10.4062C63.0757 10.4062 63.5938 9.88825 63.5938 9.25Z" fill="white"/>
<path d="M57.8137 10.4058C57.9871 10.4058 58.164 10.3665 58.3293 10.2832C58.9005 9.99762 59.1318 9.30272 58.8462 8.73153L57.6899 6.41903C57.4043 5.84784 56.7094 5.61544 56.1382 5.90219C55.5671 6.18778 55.3358 6.88269 55.6214 7.45387L56.7777 9.76637C56.9812 10.1722 57.3893 10.4058 57.8137 10.4058Z" fill="white"/>
<path d="M69.2524 7.45367C69.538 6.88248 69.3068 6.18757 68.7356 5.90198C68.1632 5.61523 67.4695 5.84879 67.1839 6.41882L66.0277 8.73132C65.7421 9.30251 65.9733 9.99742 66.5445 10.283C66.711 10.3663 66.8879 10.4056 67.0613 10.4056C67.4857 10.4056 67.8938 10.172 68.0973 9.76617L69.2524 7.45367Z" fill="white"/>
<path d="M28.9062 41.625H26.5938V39.3125C26.5938 38.6743 26.0758 38.1562 25.4375 38.1562H20.8125C20.1743 38.1562 19.6562 38.6743 19.6562 39.3125V41.625H17.3438C16.7055 41.625 16.1875 42.143 16.1875 42.7812V47.4062C16.1875 48.0445 16.7055 48.5625 17.3438 48.5625H19.6562V50.875C19.6562 51.5133 20.1743 52.0312 20.8125 52.0312H25.4375C26.0758 52.0312 26.5938 51.5133 26.5938 50.875V48.5625H28.9062C29.5445 48.5625 30.0625 48.0445 30.0625 47.4062V42.7812C30.0625 42.143 29.5445 41.625 28.9062 41.625ZM27.75 46.25H25.4375C24.7992 46.25 24.2812 46.768 24.2812 47.4062V49.7188H21.9688V47.4062C21.9688 46.768 21.4507 46.25 20.8125 46.25H18.5V43.9375H20.8125C21.4507 43.9375 21.9688 43.4195 21.9688 42.7812V40.4688H24.2812V42.7812C24.2812 43.4195 24.7992 43.9375 25.4375 43.9375H27.75V46.25Z" fill="#F35F30"/>
</svg>
