<svg width="74" height="74" viewBox="0 0 74 74" fill="none" xmlns="http://www.w3.org/2000/svg">
<path d="M5.90687 17.3438C5.71085 17.3439 5.51801 17.2941 5.34648 17.1992C5.17496 17.1043 5.03038 16.9674 4.92633 16.8012C4.82228 16.6351 4.76217 16.4452 4.75166 16.2495C4.74115 16.0537 4.78058 15.8585 4.86625 15.6822C7.01347 11.3278 10.3351 7.66019 14.4562 5.09345C18.5774 2.52671 23.3339 1.16301 28.189 1.15625C33.0173 1.20537 37.7383 2.58656 41.8318 5.1476C45.9252 7.70864 49.2321 11.3501 51.388 15.6707C51.5252 15.945 51.5479 16.2625 51.4509 16.5535C51.354 16.8445 51.1454 17.0851 50.8711 17.2223C50.5968 17.3596 50.2793 17.3822 49.9883 17.2853C49.6973 17.1884 49.4567 16.9798 49.3195 16.7055C47.3574 12.7676 44.3462 9.44793 40.6177 7.11232C36.8893 4.7767 32.5883 3.51585 28.189 3.46875C23.7679 3.47434 19.4364 4.7155 15.6832 7.05216C11.9301 9.38883 8.90477 12.728 6.94866 16.6928C6.85371 16.8882 6.70562 17.0529 6.52137 17.1681C6.33711 17.2832 6.12414 17.3441 5.90687 17.3438Z" fill="white"/>
<path d="M38.1562 67.0625C37.8496 67.0625 37.5555 66.9407 37.3387 66.7238C37.1218 66.507 37 66.2129 37 65.9062V60.125C37 59.8183 37.1218 59.5242 37.3387 59.3074C37.5555 59.0906 37.8496 58.9688 38.1562 58.9688H48.5625C48.8692 58.9688 49.1633 59.0906 49.3801 59.3074C49.5969 59.5242 49.7188 59.8183 49.7188 60.125C49.7188 60.4317 49.5969 60.7258 49.3801 60.9426C49.1633 61.1594 48.8692 61.2812 48.5625 61.2812H39.3125V65.9062C39.3125 66.2129 39.1907 66.507 38.9738 66.7238C38.757 66.9407 38.4629 67.0625 38.1562 67.0625Z" fill="white"/>
<path d="M55.2348 33.5659C55.0439 33.5661 54.856 33.519 54.6877 33.4288C54.5194 33.3386 54.3761 33.2082 54.2705 33.0491L52.7246 30.7135C52.0923 29.7643 51.7555 28.6489 51.7568 27.5083V26.5937C51.7568 26.2871 51.8787 25.993 52.0955 25.7762C52.3123 25.5593 52.6064 25.4375 52.9131 25.4375C53.2197 25.4375 53.5138 25.5593 53.7307 25.7762C53.9475 25.993 54.0693 26.2871 54.0693 26.5937V27.5072C54.0676 28.1923 54.2688 28.8626 54.6475 29.4335L56.1934 31.7714C56.3089 31.9455 56.3752 32.1477 56.385 32.3564C56.3948 32.5652 56.3479 32.7727 56.2492 32.9569C56.1505 33.1411 56.0038 33.2951 55.8246 33.4025C55.6453 33.51 55.4403 33.5668 55.2314 33.5671L55.2348 33.5659Z" fill="white"/>
<path d="M10.4063 72.8436C10.0996 72.8436 9.8055 72.7217 9.58866 72.5049C9.37182 72.2881 9.25001 71.994 9.25001 71.6873V44.3998C4.8226 39.605 2.34807 33.3279 2.3125 26.8017C2.31175 25.512 2.40916 24.224 2.60388 22.9491C2.62402 22.7967 2.67434 22.6499 2.7519 22.5171C2.82946 22.3844 2.9327 22.2685 3.05559 22.1762C3.17847 22.0839 3.31853 22.017 3.46758 21.9794C3.61662 21.9418 3.77166 21.9344 3.92363 21.9574C4.0756 21.9805 4.22144 22.0336 4.35263 22.1137C4.48382 22.1938 4.59773 22.2992 4.68769 22.4239C4.77765 22.5485 4.84186 22.6898 4.87656 22.8396C4.91126 22.9893 4.91576 23.1444 4.88979 23.2959C4.71267 24.4561 4.62415 25.6281 4.625 26.8017C4.66028 32.8923 7.02745 38.7381 11.2399 43.1372C11.4466 43.3523 11.5622 43.639 11.5625 43.9373V71.6873C11.5625 71.994 11.4407 72.2881 11.2238 72.5049C11.007 72.7217 10.7129 72.8436 10.4063 72.8436Z" fill="white"/>
<path d="M48.5624 61.2812H40.4687C40.3066 61.282 40.1462 61.2488 39.9978 61.1836C39.8494 61.1184 39.7164 61.0227 39.6073 60.9028C39.4983 60.7828 39.4157 60.6413 39.3649 60.4874C39.3141 60.3335 39.2962 60.1706 39.3124 60.0094L41.6249 36.8844C41.646 36.6739 41.7244 36.4732 41.8516 36.3042C41.9789 36.1352 42.15 36.0043 42.3464 35.9258C46.7471 34.1683 54.2997 31.2188 55.4999 31.2188C55.6838 31.2189 55.8651 31.263 56.0286 31.3472C56.1921 31.4315 56.3331 31.5535 56.44 31.7032L60.4718 37.3469C61.1192 38.2543 61.5386 39.3042 61.6945 40.4078C61.8505 41.5115 61.7385 42.6365 61.3679 43.6877L57.3569 55.0525C56.713 56.8714 55.5221 58.4465 53.9475 59.5617C52.373 60.6769 50.4919 61.2775 48.5624 61.2812ZM41.7498 58.9687H48.5624C50.0145 58.9674 51.4305 58.5163 52.6158 57.6776C53.8011 56.8389 54.6975 55.6536 55.182 54.2848L59.1884 42.92C59.4358 42.2193 59.5108 41.4693 59.407 40.7334C59.3031 39.9976 59.0235 39.2976 58.5917 38.6927L54.9993 33.6631C53.2649 34.1707 48.4017 36.0068 43.8611 37.814L41.7498 58.9687Z" fill="#F35F30"/>
<path d="M24.2812 35.8438C23.9746 35.8438 23.6805 35.7219 23.4637 35.5051C23.2468 35.2883 23.125 34.9942 23.125 34.6875C23.125 34.3808 23.0032 34.0867 22.7863 33.8699C22.5695 33.6531 22.2754 33.5312 21.9688 33.5312C21.6621 33.5312 21.368 33.4094 21.1512 33.1926C20.9343 32.9758 20.8125 32.6817 20.8125 32.375C20.8125 32.0683 20.9343 31.7742 21.1512 31.5574C21.368 31.3406 21.6621 31.2188 21.9688 31.2188C22.8887 31.2188 23.771 31.5842 24.4215 32.2347C25.072 32.8852 25.4375 33.7675 25.4375 34.6875C25.4375 34.9942 25.3157 35.2883 25.0988 35.5051C24.882 35.7219 24.5879 35.8438 24.2812 35.8438Z" fill="white"/>
<path d="M25.4375 42.7812H24.2812C23.3613 42.7812 22.479 42.4158 21.8285 41.7653C21.178 41.1148 20.8125 40.2325 20.8125 39.3125V38.1562C20.8125 37.8496 20.9343 37.5555 21.1512 37.3387C21.368 37.1218 21.6621 37 21.9688 37C22.2754 37 22.5695 37.1218 22.7863 37.3387C23.0032 37.5555 23.125 37.8496 23.125 38.1562V39.3125C23.125 39.6192 23.2468 39.9133 23.4637 40.1301C23.6805 40.3469 23.9746 40.4688 24.2812 40.4688H25.4375C25.7442 40.4688 26.0383 40.5906 26.2551 40.8074C26.4719 41.0242 26.5938 41.3183 26.5938 41.625C26.5938 41.9317 26.4719 42.2258 26.2551 42.4426C26.0383 42.6594 25.7442 42.7812 25.4375 42.7812Z" fill="white"/>
<path d="M57.8125 24.2812H3.46875C2.85544 24.2812 2.26724 24.0376 1.83357 23.6039C1.39989 23.1703 1.15625 22.5821 1.15625 21.9688C1.15628 21.8911 1.16403 21.8136 1.17937 21.7375L1.96563 17.8178C2.12583 17.0335 2.55127 16.3282 3.17037 15.8207C3.78948 15.3132 4.56448 15.0345 5.365 15.0312H56.6562C57.2696 15.0312 57.8578 15.2749 58.2914 15.7086C58.7251 16.1422 58.9688 16.7304 58.9688 17.3438V23.125C58.9688 23.4317 58.8469 23.7258 58.6301 23.9426C58.4133 24.1594 58.1192 24.2812 57.8125 24.2812ZM3.49187 21.9688H56.6562V17.3438H5.365C5.09754 17.3458 4.83893 17.4399 4.63275 17.6102C4.42657 17.7806 4.2854 18.0169 4.23303 18.2792L3.49187 21.9688Z" fill="white"/>
<path d="M35.8646 71.6875C34.7553 71.6929 33.6808 71.3012 32.8352 70.5833C32.3285 70.1552 31.9214 69.6216 31.6422 69.0199C31.3631 68.4182 31.2185 67.7628 31.2188 67.0995V23.125C31.2188 22.8183 31.3406 22.5242 31.5574 22.3074C31.7742 22.0906 32.0683 21.9688 32.375 21.9688C32.6817 21.9688 32.9758 22.0906 33.1926 22.3074C33.4094 22.5242 33.5313 22.8183 33.5313 23.125V67.0995C33.5301 67.4266 33.6012 67.75 33.7395 68.0464C33.8778 68.3428 34.0799 68.605 34.3314 68.8142C34.5942 69.0349 34.9015 69.1963 35.2323 69.2875C35.5631 69.3787 35.9097 69.3975 36.2484 69.3426L64.2875 63.2353C65.443 62.9901 66.5287 62.4889 67.4648 61.7685C68.4009 61.0481 69.1635 60.1269 69.6964 59.0728C70.2142 58.0524 70.4967 56.9289 70.5231 55.785C70.5495 54.6411 70.3192 53.5058 69.8491 52.4625L56.8991 23.5921C56.7848 23.3143 56.7831 23.0029 56.8943 22.7239C57.0056 22.4449 57.2211 22.2201 57.4952 22.0971C57.7693 21.9742 58.0805 21.9628 58.3629 22.0653C58.6452 22.1678 58.8766 22.3762 59.0081 22.6463L71.9581 51.5167C72.572 52.8747 72.8732 54.3531 72.8396 55.843C72.806 57.3328 72.4384 58.7962 71.7638 60.125C71.0759 61.4857 70.0918 62.675 68.8838 63.6054C67.6759 64.5359 66.2748 65.1838 64.7835 65.5016L36.6867 71.6193C36.4149 71.6644 36.14 71.6872 35.8646 71.6875Z" fill="white"/>
<path d="M42.7808 38.1562C42.6652 38.1564 42.5503 38.1393 42.4397 38.1054L35.5022 35.9663C35.3571 35.9215 35.2222 35.8485 35.1052 35.7516C34.9882 35.6547 34.8915 35.5357 34.8205 35.4013C34.7496 35.267 34.7057 35.12 34.6916 34.9688C34.6774 34.8175 34.6932 34.665 34.738 34.5198C34.7827 34.3747 34.8557 34.2397 34.9526 34.1228C35.0496 34.0058 35.1686 33.9091 35.3029 33.8381C35.4372 33.7671 35.5842 33.7233 35.7354 33.7091C35.8867 33.695 36.0393 33.7107 36.1844 33.7555L43.1219 35.8946C43.3868 35.9759 43.6137 36.1496 43.7613 36.3841C43.9089 36.6187 43.9674 36.8984 43.926 37.1724C43.8847 37.4464 43.7464 37.6965 43.5362 37.877C43.326 38.0576 43.0579 38.1567 42.7808 38.1562Z" fill="white"/>
<path d="M40.4683 61.2812C40.1778 61.2811 39.8979 61.1718 39.6844 60.9748L35.0594 56.7082C34.8359 56.4999 34.7039 56.2117 34.6922 55.9064C34.6806 55.6011 34.7902 55.3036 34.9972 55.0789C35.2042 54.8542 35.4917 54.7206 35.7969 54.7072C36.1021 54.6938 36.4002 54.8017 36.6261 55.0074L41.2511 59.2739C41.4224 59.4315 41.5422 59.6372 41.5947 59.864C41.6473 60.0907 41.6301 60.3281 41.5456 60.545C41.461 60.7619 41.3129 60.9482 41.1207 61.0796C40.9285 61.2109 40.7011 61.2812 40.4683 61.2812Z" fill="white"/>
<path d="M32.3751 53.8119C32.084 53.8118 31.8036 53.702 31.59 53.5043L24.9751 47.397C21.1028 47.2478 17.3438 45.2001 17.3438 40.8503V33.5312C17.3369 32.0262 17.9018 30.5748 18.9244 29.4705C19.4231 28.9303 20.0279 28.4987 20.7009 28.2027C21.3739 27.9066 22.1008 27.7525 22.836 27.75C26.817 27.75 27.8287 29.8775 28.5016 31.2858L28.5629 31.4153L32.7173 32.6872C32.8625 32.7318 32.9974 32.8046 33.1144 32.9014C33.2315 32.9982 33.3283 33.1171 33.3994 33.2513C33.4704 33.3855 33.5144 33.5324 33.5287 33.6836C33.543 33.8348 33.5274 33.9873 33.4827 34.1325C33.4381 34.2777 33.3653 34.4126 33.2685 34.5296C33.1717 34.6467 33.0528 34.7435 32.9186 34.8146C32.7844 34.8856 32.6375 34.9296 32.4863 34.9439C32.3351 34.9582 32.1826 34.9426 32.0374 34.8979L27.4124 33.4757C27.1232 33.3868 26.8803 33.1879 26.736 32.9219C26.6204 32.7172 26.5198 32.4999 26.4146 32.2744C25.8214 31.0407 25.3566 30.0625 22.836 30.0625C22.417 30.0661 22.0033 30.1559 21.6205 30.3264C21.2378 30.4969 20.8943 30.7444 20.6114 31.0534C19.9906 31.7285 19.6492 32.6141 19.6563 33.5312V40.8503C19.6563 44.8891 24.4721 45.0937 25.4376 45.0937C25.7286 45.0938 26.009 45.2036 26.2227 45.4013L33.1602 51.8069C33.3308 51.9648 33.4499 52.1705 33.5019 52.3971C33.5538 52.6237 33.5363 52.8607 33.4515 53.0772C33.3668 53.2937 33.2187 53.4796 33.0267 53.6107C32.8346 53.7417 32.6076 53.8118 32.3751 53.8119Z" fill="white"/>
</svg>
