<svg width="74" height="74" viewBox="0 0 74 74" fill="none" xmlns="http://www.w3.org/2000/svg">
<path d="M23.1231 2.31348C21.2214 2.31348 19.6589 3.87829 19.6589 5.78001C19.6239 7.35626 22.0064 7.35626 21.9714 5.78001C21.9714 5.11943 22.4626 4.62828 23.1231 4.62828H53.1856C53.8462 4.62828 54.3464 5.11943 54.3464 5.78001V24.2844C54.3114 25.8607 56.6939 25.8607 56.6589 24.2844V5.78001C56.6589 3.87829 55.0873 2.31348 53.1856 2.31348H23.1231ZM16.1834 9.24415C14.2817 9.24415 12.7191 10.8181 12.7191 12.7198V24.2844C12.6841 25.8607 15.0666 25.8607 15.0316 24.2844V12.7198C15.0316 12.0592 15.5228 11.5567 16.1834 11.5567H46.2549C46.9155 11.5567 47.4066 12.0592 47.4066 12.7198V24.2844C47.3717 25.8607 49.7541 25.8607 49.7191 24.2844V12.7198C49.7191 10.8181 48.1566 9.24415 46.2549 9.24415H16.1834ZM25.4334 13.8759C24.7886 13.8759 24.247 14.3495 24.2726 15.2174C24.1733 18.3072 21.6795 20.7607 18.5343 20.8067C17.8197 20.8067 17.3419 21.3592 17.3419 21.9088V24.28C17.3419 25.8221 19.6544 25.8221 19.6544 24.28V23.0447C23.1828 22.5331 25.9936 19.7189 26.5061 16.1907H35.9187C36.4315 19.7211 39.2454 22.5336 42.7771 23.0424V24.289C42.8108 25.7968 45.056 25.7968 45.0896 24.289V21.9675C45.1268 21.1849 44.4088 20.7932 43.6353 20.7932C40.5868 20.6416 38.1814 18.1649 38.1521 15.0842C38.1814 14.4263 37.6566 13.8767 36.9981 13.8759H25.4334Z" fill="#F35F30"/>
<path d="M59.808 16.184C58.2317 16.149 58.2317 18.5313 59.808 18.4964C60.4685 18.4964 60.9669 18.9971 60.971 19.6662V27.7487H8.93976C6.35751 27.7487 4.3125 25.706 4.3125 23.1237C4.3125 20.5414 6.35751 18.4964 8.93976 18.4964C10.516 18.5313 10.516 16.149 8.93976 16.184C5.11638 16.184 2 19.3003 2 23.1237V64.7509C2 68.5743 5.11638 71.6884 8.93976 71.6884H64.4352C66.3369 71.6884 67.8995 70.1169 67.8995 68.2152V61.2753C67.8995 59.7333 65.587 59.7333 65.587 61.2753V68.2152C65.587 68.8758 65.0958 69.3759 64.4352 69.3759H8.93976C6.35751 69.3759 4.3125 67.3332 4.3125 64.7509V28.2793C5.54212 29.384 7.16241 30.0635 8.93976 30.0635H64.4352C65.0958 30.0635 65.587 30.5546 65.587 31.2152V38.1527C65.587 39.6947 67.8995 39.6947 67.8995 38.1527V31.2152C67.8995 29.3135 66.3369 27.7486 64.4352 27.7487H63.2835V19.6526C63.2717 17.7551 61.7097 16.184 59.808 16.184ZM51.7188 41.6281C47.2548 41.6281 43.6273 45.2558 43.6273 49.7197C43.6273 54.1836 47.2548 57.8112 51.7188 57.8112H67.8995C69.8012 57.8112 71.375 56.2464 71.375 54.3447V45.0924C71.375 43.1907 69.8012 41.6281 67.8995 41.6281H51.7188ZM51.7188 43.9316H67.8995C68.56 43.9316 69.0625 44.4318 69.0625 45.0924V54.3447C69.0625 55.0053 68.56 55.4964 67.8995 55.4964H51.7188C48.4959 55.4964 45.9398 52.9425 45.9398 49.7197C45.9398 46.4969 48.4959 43.9316 51.7188 43.9316ZM51.7188 46.2441C49.8171 46.2441 48.2432 47.8181 48.2432 49.7197C48.2432 51.6214 49.8171 53.1839 51.7188 53.1839C53.6204 53.1839 55.183 51.6214 55.183 49.7197C55.183 47.8181 53.6204 46.2441 51.7188 46.2441ZM51.7188 48.5589C51.7188 48.5589 52.8705 49.0592 52.8705 49.7197C52.8705 50.3803 52.3793 50.8715 51.7188 50.8715C51.0582 50.8715 50.5557 50.3803 50.5557 49.7197C50.5557 49.0592 51.7188 48.5589 51.7188 48.5589Z" fill="white"/>
</svg>
