<svg width="74" height="74" viewBox="0 0 74 74" fill="none" xmlns="http://www.w3.org/2000/svg">
<path d="M69.0652 60.7419H4.93413C3.57413 60.7419 2.46756 59.6354 2.46756 58.2754V8.7896C2.46756 7.42959 3.57413 6.32302 4.93413 6.32302H18.5003C19.1814 6.32302 19.7336 5.77082 19.7336 5.08973C19.7336 4.40865 19.1814 3.85645 18.5003 3.85645H4.93413C2.21396 3.85645 0.000976562 6.06943 0.000976562 8.7896V58.2754C0.000976562 60.9955 2.21396 63.2085 4.93413 63.2085H26.4327L24.7173 69.2973C24.0541 71.6572 25.8236 73.9998 28.2788 73.9998H45.7206C48.1719 73.9998 49.9463 71.6609 49.282 69.2973C49.0978 68.6416 48.4167 68.2596 47.761 68.4437C47.1054 68.6281 46.7232 69.309 46.9075 69.9646C47.1291 70.7538 46.5367 71.5332 45.7206 71.5332H28.2788C27.4617 71.5332 26.8705 70.7525 27.0917 69.9654L28.9953 63.2085H69.0652C69.7463 63.2085 70.2985 62.6563 70.2985 61.9752C70.2985 61.2941 69.7463 60.7419 69.0652 60.7419Z" fill="white"/>
<path d="M69.0656 3.85665H56.8868C56.2057 3.85665 55.6535 4.40886 55.6535 5.08994C55.6535 5.77102 56.2057 6.32323 56.8868 6.32323H69.0656C70.4256 6.32323 71.5321 7.4298 71.5321 8.78981V53.0341H57.3493V52.3719C57.3493 48.9718 55.1895 45.9428 51.9749 44.8344L46.6211 42.988C44.6608 42.312 43.2684 40.5968 42.9712 38.5867C47.6612 36.2795 50.5662 31.5073 50.5662 26.399V20.3517H52.7926C53.6052 20.3517 54.2661 21.0128 54.2661 21.8252V26.4322C54.2661 27.2222 53.6487 27.869 52.8604 27.9041C52.2961 27.9294 51.8209 28.335 51.7075 28.8884C51.0167 32.257 49.3878 35.3499 46.9966 37.8332C46.24 38.6189 46.8076 39.9219 47.8849 39.9219C48.2083 39.9219 48.5314 39.7955 48.7735 39.544C51.2937 36.9267 53.0686 33.712 53.9382 30.2042C55.5641 29.714 56.7327 28.2087 56.7327 26.4322V21.8252C56.7327 20.0035 55.4897 18.4671 53.8073 18.0182V11.1679C53.8112 4.99775 48.7912 0.00369987 42.5854 0H34.0805C29.7222 0 25.8312 2.45039 23.9651 6.30504C21.8087 6.69568 20.1679 8.57568 20.1664 10.8307V14.3993C20.1664 15.0804 20.7186 15.6326 21.3997 15.6326C22.0808 15.6326 22.633 15.0804 22.633 14.3993V10.8317C22.6337 9.65435 23.6045 8.69716 24.7974 8.69716C25.3097 8.69716 25.7574 8.38606 25.9433 7.92558C27.2822 4.6088 30.4756 2.46658 34.0813 2.46658H42.5848C47.4284 2.46951 51.3437 6.36115 51.3407 11.1671V17.8853C49.2349 17.8853 49.1842 17.8551 48.8894 17.9689C42.4489 18.7475 36.0533 17.0223 30.8988 13.0716C30.2431 12.5692 29.2873 12.8413 28.9951 13.6143C28.2392 15.6121 26.715 17.1939 24.6123 17.8853H21.2076C19.035 17.8853 17.2675 19.6528 17.2675 21.8254V26.4323C17.2675 27.8668 18.0481 29.189 19.3046 29.8829C19.8995 30.2116 20.6506 29.997 20.9805 29.3996C21.3098 28.8033 21.0934 28.053 20.4972 27.7237C20.0266 27.4638 19.7343 26.969 19.7343 26.4323V21.8254C19.7343 21.0128 20.3953 20.3519 21.2078 20.3519H23.4342V26.2624C23.4343 29.0321 24.2541 31.7066 25.8052 33.9972C26.187 34.5611 26.9537 34.7088 27.5179 34.3268C28.0818 33.9449 28.2295 33.1781 27.8475 32.6142C26.5738 30.7333 25.9007 28.5366 25.9007 26.2617V20.0416C27.8495 19.2737 29.5177 17.8694 30.6285 15.9195C35.8901 19.5097 42.0468 21.0157 48.0999 20.529V26.399C48.0999 34.2841 40.0686 39.6836 32.7962 36.6699C31.9995 36.339 31.1098 36.9147 31.092 37.7834C31.0368 40.3609 29.4418 42.2769 27.3791 42.988L22.0132 44.8382C20.2649 45.4443 18.7729 46.6484 17.8111 48.2301C17.3103 49.0539 17.9092 50.1044 18.8637 50.1044C19.2801 50.1044 19.6865 49.8935 19.9187 49.5118C20.5846 48.4166 21.6183 47.5837 22.8294 47.1661C28.622 45.1686 28.716 45.192 29.6373 44.6477C31.7641 49.0364 37.2399 50.3578 41.2335 48.0339C41.8222 47.6912 42.0217 46.9362 41.6791 46.3476C41.3364 45.7589 40.5813 45.5596 39.9929 45.902C37.0763 47.5996 32.9181 46.5659 31.6129 42.9959C32.4769 41.996 33.0891 40.787 33.3748 39.4733C35.7193 40.1266 38.249 40.1325 40.627 39.4776C41.2111 42.1568 43.1528 44.4014 45.8173 45.3202L51.1715 47.1662C53.3914 47.9316 54.883 50.0238 54.883 52.3721V53.0342H10.161C9.47994 53.0342 8.92773 53.5864 8.92773 54.2675C8.92773 54.9486 9.47994 55.5008 10.161 55.5008H72.7654C73.4465 55.5008 73.9987 54.9486 73.9987 54.2675V8.78996C73.9987 6.06963 71.7857 3.85665 69.0656 3.85665Z" fill="#F35F30"/>
</svg>
