<svg width="36" height="36" viewBox="0 0 36 36" fill="none" xmlns="http://www.w3.org/2000/svg">
<path d="M33.8739 0H8.88903C8.59773 0 8.36169 0.236109 8.36169 0.527344C8.36169 0.818578 8.59773 1.05469 8.88903 1.05469H33.8739C34.0909 1.05469 34.2676 1.23131 34.2676 1.44837V10.1427H33.0722V2.77734C33.0722 2.48611 32.8362 2.25 32.5449 2.25H3.45605C3.16475 2.25 2.92871 2.48611 2.92871 2.77734V25.9857C2.92871 26.2769 3.16475 26.513 3.45605 26.513H7.18578V27.7083H2.12708C1.91002 27.7083 1.7334 27.5317 1.7334 27.3146V1.44837C1.7334 1.23131 1.91002 1.05469 2.12708 1.05469H6.77966C7.07096 1.05469 7.307 0.818578 7.307 0.527344C7.307 0.236109 7.07096 0 6.77966 0H2.12708C1.32847 0 0.678711 0.649758 0.678711 1.44837V27.3146C0.678711 28.1133 1.3284 28.763 2.12708 28.763H21.0726C21.2896 28.763 21.4663 28.9396 21.4663 29.1567V34.5516C21.4663 35.3502 22.1159 36 22.9146 36H27.0222C27.3135 36 27.5495 35.7639 27.5495 35.4727C27.5495 35.1814 27.3135 34.9453 27.0222 34.9453H22.9146C22.6976 34.9453 22.5209 34.7687 22.5209 34.5516V29.1567C22.5209 28.3581 21.8713 27.7083 21.0726 27.7083H15.5704V26.513H21.0726C22.5303 26.513 23.7163 27.699 23.7163 29.1567V33.2227C23.7163 33.5139 23.9523 33.75 24.2436 33.75H32.5448C32.8361 33.75 33.0722 33.5139 33.0722 33.2227V18.5273H34.2675V34.5516C34.2675 34.7687 34.0909 34.9453 33.8738 34.9453H28.4284C28.1371 34.9453 27.901 35.1814 27.901 35.4727C27.901 35.7639 28.1371 36 28.4284 36H33.8738C34.6724 36 35.3222 35.3502 35.3222 34.5516V1.44837C35.3222 0.649758 34.6725 0 33.8739 0V0ZM32.0175 29.5959H29.8496C29.5976 29.5959 29.3926 29.391 29.3926 29.1389V23.134C29.3926 22.882 29.5976 22.677 29.8496 22.677H32.0175V29.5959ZM29.6331 3.30469V3.89918C29.6331 4.40866 29.2186 4.82309 28.7091 4.82309H26.6131C26.1036 4.82309 25.6892 4.40859 25.6892 3.89918V3.30469H29.6331ZM22.2287 3.44531V6.19313C22.2287 6.7789 21.7522 7.25548 21.1664 7.25548C20.5807 7.25548 20.1041 6.7789 20.1041 6.19313V3.44531H22.2287ZM7.08552 5.64469H12.5361V12.05H7.08552V5.64469ZM12.536 3.30469V4.59H7.08545V3.30469H12.536ZM12.7287 19.4947V22.8359H6.32347V19.4947H12.7287ZM5.26878 22.8358H3.98347V19.4946H5.26878V22.8358ZM14.5157 27.7083H8.24047V26.513H14.5157V27.7083ZM24.7709 32.6953V29.1567C24.7709 27.1174 23.1118 25.4583 21.0726 25.4583H19.5871V17.9056H26.0508V18.0865C26.0508 18.3777 26.2868 18.6138 26.5781 18.6138C26.8694 18.6138 27.1055 18.3777 27.1055 18.0865V16.5911C27.1055 16.2999 26.8694 16.0638 26.5781 16.0638C26.2868 16.0638 26.0508 16.2999 26.0508 16.5911V16.8509H19.0597C18.7685 16.8509 18.5324 17.087 18.5324 17.3782V25.4583H3.9834V23.8905H12.8419C13.361 23.8905 13.7834 23.4681 13.7834 22.9489V19.3815C13.7834 18.8623 13.361 18.4399 12.8419 18.4399H3.9834V17.1294H13.6428V17.2574C13.6428 17.5487 13.8788 17.7848 14.1701 17.7848C14.4614 17.7848 14.6975 17.5487 14.6975 17.2574V15.9247C14.6975 15.6334 14.4614 15.3973 14.1701 15.3973C13.8788 15.3973 13.6428 15.6334 13.6428 15.9247V16.0748H3.9834V3.30469H6.03076V12.1631C6.03076 12.6823 6.45313 13.1047 6.97231 13.1047H12.6491C13.1683 13.1047 13.5907 12.6823 13.5907 12.1631V3.30469H16.412V12.05H16.284C15.9927 12.05 15.7567 12.2861 15.7567 12.5774C15.7567 12.8686 15.9927 13.1047 16.284 13.1047H17.6169C17.9081 13.1047 18.1442 12.8686 18.1442 12.5774C18.1442 12.2861 17.9081 12.05 17.6169 12.05H17.4667V3.30469H19.0493V6.19313C19.0493 7.36045 19.999 8.31016 21.1664 8.31016C22.3337 8.31016 23.2833 7.36045 23.2833 6.19313V3.30469H24.6345V3.89918C24.6345 4.99022 25.5222 5.87777 26.6132 5.87777H28.7092C29.8003 5.87777 30.6878 4.99015 30.6878 3.89918V3.30469H32.0176V21.6224H29.8497C29.0161 21.6224 28.338 22.3005 28.338 23.1341V29.139C28.338 29.9725 29.0161 30.6507 29.8497 30.6507H32.0176V32.6953H24.7709ZM33.0722 17.4727V11.1974H34.2675V17.4727H33.0722Z" fill="white"/>
<path d="M29.7269 11.0915C29.7269 10.0545 28.8833 9.21094 27.8463 9.21094C26.8094 9.21094 25.9658 10.0545 25.9658 11.0915C25.9658 12.1284 26.8094 12.972 27.8463 12.972C28.8833 12.972 29.7269 12.1284 29.7269 11.0915ZM27.8463 11.9173C27.3909 11.9173 27.0205 11.5469 27.0205 11.0915C27.0205 10.6361 27.391 10.2656 27.8463 10.2656C28.3017 10.2656 28.6722 10.6361 28.6722 11.0915C28.6722 11.5469 28.3017 11.9173 27.8463 11.9173Z" fill="white"/>
</svg>
