<svg width="36" height="36" viewBox="0 0 36 36" fill="none" xmlns="http://www.w3.org/2000/svg">
<path d="M35.8459 22.8452L33.9336 19.5467C33.5323 18.8547 32.8288 18.3927 32.0466 18.2894V9.19821C32.0466 8.90693 31.8106 8.6709 31.5193 8.6709C31.228 8.6709 30.992 8.90693 30.992 9.19821V16.1698H16.5147C16.2235 16.1698 15.9874 16.4058 15.9874 16.6971C15.9874 16.9884 16.2235 17.2244 16.5147 17.2244H30.992V18.267H9.59301V17.2244H14.0408C14.332 17.2244 14.5681 16.9884 14.5681 16.6971C14.5681 16.4058 14.332 16.1698 14.0408 16.1698H9.59301V7.26663H32.0928C32.8329 7.26663 33.4351 6.66451 33.4351 5.92431V5.08806C33.4351 4.34793 32.833 3.74574 32.0928 3.74574H29.5821V1.38106C29.5821 0.712709 29.0384 0.168945 28.37 0.168945H27.0065C26.3382 0.168945 25.7944 0.712709 25.7944 1.38106V3.74574H7.90364C7.16351 3.74574 6.56132 4.34786 6.56132 5.08806V5.92438C6.56132 6.66451 7.16344 7.26671 7.90364 7.26671H8.53846V12.676H1.73684C1.44562 12.676 1.20953 12.912 1.20953 13.2033C1.20953 13.4946 1.44562 13.7306 1.73684 13.7306H2.56858V16.2281C2.56858 16.7774 3.01546 17.2244 3.56485 17.2244H8.53846V18.2672H6.13476C4.12162 18.2672 2.21711 19.3331 1.16453 21.0491L0.186261 22.6438C-0.0528577 23.0337 -0.0622791 23.5046 0.16109 23.9036C0.384459 24.3027 0.790771 24.5408 1.24799 24.5408H5.5886V27.7547H3.69352V26.4782C3.69352 26.1869 3.45742 25.9509 3.1662 25.9509C2.87499 25.9509 2.63889 26.1869 2.63889 26.4782V31.4601C2.63889 32.2262 3.26225 32.8496 4.02839 32.8496H8.53818V34.7761H6.42942C6.1382 34.7761 5.90211 35.0121 5.90211 35.3034C5.90211 35.5947 6.1382 35.8307 6.42942 35.8307H33.9051C34.1964 35.8307 34.4324 35.5947 34.4324 35.3034C34.4324 35.0121 34.1964 34.7761 33.9051 34.7761H32.0463V24.5409H34.8689C35.2775 24.5409 35.6434 24.3295 35.8474 23.9754C36.0514 23.6213 36.0508 23.1988 35.8459 22.8452ZM26.849 1.38106C26.849 1.29423 26.9197 1.22357 27.0065 1.22357H28.37C28.4569 1.22357 28.5275 1.29423 28.5275 1.38106V3.74574H26.849V1.38106ZM7.61594 5.92431V5.08806C7.61594 4.92945 7.74496 4.80036 7.90364 4.80036H32.0928C32.2514 4.80036 32.3805 4.92945 32.3805 5.08806V5.92438C32.3805 6.08299 32.2514 6.21208 32.0928 6.21208H7.90364C7.74496 6.21201 7.61594 6.08292 7.61594 5.92431ZM8.53839 16.1698H7.61587V13.7306H8.53839V16.1698ZM6.56132 16.1698H5.63318V13.7306H6.56132V16.1698ZM3.62321 13.7306H4.57856V16.1698H3.62321V13.7306ZM1.24806 23.4863C1.15061 23.4863 1.10181 23.425 1.08142 23.3885C1.06097 23.352 1.03432 23.2784 1.08529 23.1953L2.06356 21.6006C2.92582 20.195 4.48582 19.3218 6.13483 19.3218H6.81457C6.75642 19.4014 6.70172 19.4842 6.65251 19.5711L4.79595 22.8559C4.68451 23.0532 4.63628 23.2711 4.65076 23.4863H1.24806ZM6.6433 24.5409H8.53811V27.7547H6.6433V24.5409ZM3.69352 31.4601V28.8094H5.58867V31.795H4.02832C3.84376 31.7949 3.69352 31.6448 3.69352 31.4601ZM6.6433 31.7949V28.8094H8.53811V31.795H6.6433V31.7949ZM22.6052 26.9332C22.6819 26.9332 22.7444 26.9956 22.7444 27.0723V32.8117C21.6528 32.4586 20.9592 31.1019 20.7921 30.7426V26.9331H22.6052V26.9332ZM19.7376 30.7434C19.5446 31.2984 18.5212 32.6604 17.7853 32.8122V27.0723C17.7853 26.9956 17.8478 26.9332 17.9245 26.9332H19.7375V30.7434H19.7376ZM20.2648 31.9663C20.7418 32.7097 21.5678 33.6706 22.7444 33.8999V34.7759H17.7853V33.8999C18.9619 33.6707 19.7878 32.7097 20.2648 31.9663ZM30.9917 34.7761H23.799V33.4235V27.0724C23.799 26.4142 23.2635 25.8786 22.6052 25.8786H17.9245C17.2663 25.8786 16.7308 26.4142 16.7308 27.0724V33.4235V34.7761H9.59273L9.59301 24.5409H30.9917V34.7761H30.9917ZM34.9336 23.4488C34.912 23.4862 34.8795 23.4862 34.8689 23.4862H30.5231L29.8804 21.2578C29.7997 20.978 29.5071 20.8167 29.2276 20.8974C28.9478 20.978 28.7864 21.2704 28.8671 21.5502L29.4256 23.4862H25.9172L25.2744 21.2578C25.1938 20.978 24.9012 20.8167 24.6216 20.8974C24.3419 20.978 24.1804 21.2704 24.2611 21.5502L24.8196 23.4862H20.8513V21.404C20.8513 21.1127 20.6153 20.8767 20.324 20.8767C20.0327 20.8767 19.7967 21.1127 19.7967 21.404V23.4862H15.5293L16.0878 21.5502C16.1685 21.2704 16.0072 20.978 15.7273 20.8974C15.4475 20.8166 15.1552 20.978 15.0745 21.2578L14.4317 23.4862H10.9233L11.4818 21.5502C11.5625 21.2704 11.4011 20.978 11.1213 20.8974C10.8413 20.8166 10.5492 20.978 10.4685 21.2578L9.82573 23.4862H5.77893C5.78976 23.4795 5.67628 23.4773 5.71396 23.3748L7.57052 20.09C7.82715 19.613 8.464 19.2696 9.0657 19.3218H31.5193C32.0524 19.2666 32.7175 19.5478 33.0211 20.0756L34.9334 23.3741C34.9389 23.3834 34.9552 23.4114 34.9336 23.4488Z" fill="white"/>
<path d="M28.525 25.8789H26.3701C25.6626 25.8789 25.0869 26.4546 25.0869 27.1621V32.21C25.0869 32.9175 25.6626 33.4932 26.3701 33.4932H28.525C29.2326 33.4932 29.8083 32.9175 29.8083 32.21V27.1621C29.8083 26.4546 29.2327 25.8789 28.525 25.8789ZM26.3701 26.9335H28.525C28.6511 26.9335 28.7536 27.036 28.7536 27.1621V29.1587H26.1415V27.1621C26.1415 27.036 26.2441 26.9335 26.3701 26.9335ZM28.525 32.4386H26.3701C26.2441 32.4386 26.1415 32.3361 26.1415 32.21V30.2134H28.7536V32.21C28.7536 32.3361 28.6511 32.4386 28.525 32.4386Z" fill="white"/>
<path d="M14.1832 25.8789H12.0283C11.3207 25.8789 10.7451 26.4546 10.7451 27.1621V32.21C10.7451 32.9175 11.3208 33.4932 12.0283 33.4932H14.1832C14.8908 33.4932 15.4664 32.9175 15.4664 32.21V27.1621C15.4664 26.4546 14.8908 25.8789 14.1832 25.8789ZM12.0283 26.9335H14.1832C14.3092 26.9335 14.4118 27.036 14.4118 27.1621V29.1587H11.7997V27.1621C11.7997 27.036 11.9022 26.9335 12.0283 26.9335ZM14.1832 32.4386H12.0283C11.9022 32.4386 11.7997 32.3361 11.7997 32.21V30.2134H14.4118V32.21C14.4118 32.3361 14.3092 32.4386 14.1832 32.4386Z" fill="white"/>
<path d="M26.3701 8.38965C25.6626 8.38965 25.0869 8.96533 25.0869 9.67285V13.6259C25.0869 14.3334 25.6626 14.9091 26.3701 14.9091H28.525C29.2326 14.9091 29.8083 14.3334 29.8083 13.6259V9.67285C29.8083 8.96533 29.2326 8.38965 28.525 8.38965H26.3701ZM28.525 13.8544H26.3701C26.2441 13.8544 26.1415 13.7519 26.1415 13.6259V12.1767H28.7536V13.6259C28.7536 13.7519 28.6511 13.8544 28.525 13.8544ZM28.7536 9.67285V11.122H26.1415V9.67285C26.1415 9.54678 26.2441 9.44427 26.3701 9.44427H28.525C28.6511 9.44427 28.7536 9.54678 28.7536 9.67285Z" fill="white"/>
<path d="M12.0508 8.38965C11.3432 8.38965 10.7676 8.96533 10.7676 9.67285V13.6259C10.7676 14.3334 11.3433 14.9091 12.0508 14.9091H14.2056C14.9132 14.9091 15.4888 14.3334 15.4888 13.6259V9.67285C15.4888 8.96533 14.9132 8.38965 14.2056 8.38965H12.0508ZM14.2057 13.8544H12.0508C11.9248 13.8544 11.8223 13.7519 11.8223 13.6259V12.1767H14.4344V13.6259C14.4343 13.7519 14.3317 13.8544 14.2057 13.8544ZM14.4343 9.67285V11.122H11.8222V9.67285C11.8222 9.54678 11.9247 9.44427 12.0508 9.44427H14.2056C14.3317 9.44427 14.4343 9.54678 14.4343 9.67285Z" fill="white"/>
<path d="M19.4678 8.38965C18.7603 8.38965 18.1846 8.96533 18.1846 9.67285V13.6259C18.1846 14.3334 18.7603 14.9091 19.4678 14.9091H21.6227C22.3302 14.9091 22.9059 14.3334 22.9059 13.6259V9.67285C22.9059 8.96533 22.3302 8.38965 21.6227 8.38965H19.4678ZM21.6227 13.8544H19.4678C19.3417 13.8544 19.2392 13.7519 19.2392 13.6259V12.1767H21.8512V13.6259C21.8512 13.7519 21.7487 13.8544 21.6227 13.8544ZM21.8512 9.67285V11.122H19.2392V9.67285C19.2392 9.54678 19.3417 9.44427 19.4678 9.44427H21.6227C21.7487 9.44427 21.8512 9.54678 21.8512 9.67285Z" fill="white"/>
</svg>
