<svg width="41" height="41" viewBox="0 0 41 41" fill="none" xmlns="http://www.w3.org/2000/svg">
<g clip-path="url(#clip0_28_1112)">
<path d="M40.3994 39.7993H38.4324V31.5442C38.8255 31.1986 39.0743 30.6925 39.0743 30.1292C39.0743 29.0901 38.2289 28.2448 37.1899 28.2448H33.2607L32.6539 18.5372C32.6342 18.2207 32.3717 17.9741 32.0546 17.9741H29.4868C29.1697 17.9741 28.9072 18.2207 28.8875 18.5372L28.2807 28.2448H26.8415L26.2347 18.5372C26.2149 18.2207 25.9524 17.9741 25.6353 17.9741H23.0677C22.7506 17.9741 22.4881 18.2207 22.4683 18.5372L21.8616 28.2448H20.4223L19.8156 18.5372C19.7958 18.2207 19.5333 17.9741 19.2162 17.9741H16.6486C16.3315 17.9741 16.069 18.2207 16.0492 18.5372L15.4424 28.2448H13.7696L13.3976 11.5003C13.3903 11.1739 13.1236 10.9131 12.7971 10.9131H8.94561C8.61913 10.9131 8.35239 11.1739 8.34518 11.5003L7.91604 30.8125H3.16821C2.12912 30.8125 1.28381 31.6579 1.28381 32.6969C1.28381 33.2602 1.53262 33.7663 1.92572 34.1119V39.7993H0.600586C0.268902 39.7993 0 40.0682 0 40.3999C0 40.7315 0.268902 41.0004 0.600586 41.0004H40.3994C40.7311 41.0004 41 40.7315 41 40.3999C41 40.0682 40.7311 39.7993 40.3994 39.7993ZM7.85879 33.3802H5.73616C5.40447 33.3802 5.13557 33.6491 5.13557 33.9808C5.13557 34.3125 5.40447 34.5814 5.73616 34.5814H7.83212L7.71617 39.7993H3.12689V34.5803C3.14066 34.5806 3.15436 34.5813 3.16821 34.5813C3.49989 34.5813 3.7688 34.3124 3.7688 33.9807C3.7688 33.649 3.49989 33.3801 3.16821 33.3801C2.79144 33.3801 2.48498 33.0736 2.48498 32.6969C2.48498 32.3201 2.79152 32.0137 3.16821 32.0137H7.88914L7.85879 33.3802ZM30.051 19.1753H31.4902L32.0571 28.2448H29.4842L30.051 19.1753ZM23.6319 19.1753H25.0711L25.638 28.2448H23.0651L23.6319 19.1753ZM17.2127 19.1753H18.652L19.2188 28.2448H16.6458L17.2127 19.1753ZM10.2707 39.7993H8.91774L9.53282 12.1142H12.2096L12.5681 28.2448H11.5132C10.4741 28.2448 9.62875 29.0902 9.62875 30.1292C9.62875 30.6925 9.87756 31.1986 10.2707 31.5442V39.7993ZM37.1899 30.8124H35.9061C35.5744 30.8124 35.3055 31.0813 35.3055 31.413C35.3055 31.7447 35.5744 32.0136 35.9061 32.0136H37.1899C37.2037 32.0136 37.2174 32.0128 37.2312 32.0126V39.7993H11.4718V32.0126C11.4856 32.0129 11.4993 32.0136 11.5132 32.0136H33.3388C33.6705 32.0136 33.9394 31.7447 33.9394 31.413C33.9394 31.0813 33.6705 30.8124 33.3388 30.8124H11.5132C11.1364 30.8124 10.8298 30.5059 10.8298 30.1292C10.8298 29.7525 11.1364 29.446 11.5132 29.446H37.1898C37.5666 29.446 37.8731 29.7524 37.8731 30.1292C37.8731 30.506 37.5666 30.8124 37.1899 30.8124Z" fill="white"/>
<path d="M33.3386 0C31.5293 0 29.8044 0.631416 28.4256 1.78846C27.4356 1.04566 26.2359 0.641906 24.9937 0.641906C23.4856 0.641906 22.046 1.23729 20.9759 2.28991C20.4212 2.05072 19.8212 1.92572 19.2164 1.92572C17.4308 1.92572 15.8391 2.99484 15.1405 4.59488C14.8995 4.52738 14.6527 4.49334 14.402 4.49334C13.1614 4.49334 12.0945 5.30013 11.7134 6.43027C11.647 6.42291 11.5803 6.41914 11.5134 6.41914C10.4743 6.41914 9.62891 7.26453 9.62891 8.30354C9.62899 8.6353 9.89789 8.90421 10.2296 8.90421C10.5613 8.90421 10.8302 8.6353 10.8302 8.30362C10.8302 7.92685 11.1367 7.62039 11.5135 7.62039C11.6326 7.62039 11.7495 7.65411 11.8606 7.72065C12.0406 7.82836 12.2637 7.83428 12.4493 7.73651C12.6347 7.63865 12.7558 7.45111 12.7685 7.2417C12.8211 6.37422 13.5386 5.69468 14.402 5.69468C14.6749 5.69468 14.9444 5.76843 15.2027 5.91393C15.3646 6.00514 15.5597 6.01619 15.731 5.94388C15.9023 5.87157 16.0304 5.72406 16.078 5.54437C16.4551 4.12106 17.7456 3.12697 19.2163 3.12697C19.7737 3.12697 20.3258 3.27271 20.813 3.54834C21.0621 3.68928 21.3762 3.63491 21.5633 3.41821C22.4278 2.41724 23.6781 1.84316 24.9936 1.84316C26.1183 1.84316 27.1996 2.26301 28.0384 3.02527C28.2725 3.23796 28.6314 3.23275 28.8591 3.01326C30.0715 1.84468 31.6623 1.20117 33.3386 1.20117C36.901 1.20117 39.7991 4.09936 39.7991 7.66163C39.7991 11.2239 36.901 14.1221 33.3386 14.1221C30.9735 14.1221 28.7993 12.8308 27.6645 10.752C27.5132 10.4748 27.1729 10.3622 26.8861 10.4943C26.2837 10.7718 25.647 10.9125 24.9937 10.9125C23.6782 10.9125 22.4279 10.3384 21.5633 9.33743C21.3763 9.12082 21.0622 9.06637 20.8131 9.2073C20.3259 9.48293 19.7738 9.62867 19.2164 9.62867C18.2015 9.62867 17.2624 9.16398 16.6399 8.35375C16.5268 8.20665 16.3522 8.12 16.1666 8.11904C16.1656 8.11904 16.1646 8.11904 16.1637 8.11904C15.9793 8.11904 15.8049 8.20384 15.6911 8.34903C15.3733 8.7543 14.9035 8.98669 14.402 8.98669C14.0704 8.98669 13.8015 9.25559 13.8015 9.58727C13.8015 9.91896 14.0704 10.1879 14.402 10.1879C15.0386 10.1879 15.644 9.97517 16.1373 9.58936C16.9613 10.3844 18.0522 10.8298 19.2164 10.8298C19.8212 10.8298 20.4212 10.7048 20.9759 10.4656C22.046 11.5183 23.4857 12.1137 24.9937 12.1137C25.6409 12.1137 26.2747 12.005 26.8841 11.7901C28.2873 13.9823 30.7137 15.3233 33.3386 15.3233C37.5633 15.3233 41.0002 11.8862 41.0002 7.66163C41.0002 3.43703 37.5633 0 33.3386 0Z" fill="white"/>
<path d="M15.3643 33.3799C15.0326 33.3799 14.7637 33.6488 14.7637 33.9805V35.2643C14.7637 35.596 15.0326 35.8649 15.3643 35.8649C15.6959 35.8649 15.9648 35.596 15.9648 35.2643V33.9805C15.9648 33.6488 15.6959 33.3799 15.3643 33.3799Z" fill="white"/>
<path d="M17.9326 33.3799C17.6009 33.3799 17.332 33.6488 17.332 33.9805V35.2643C17.332 35.596 17.6009 35.8649 17.9326 35.8649C18.2643 35.8649 18.5332 35.596 18.5332 35.2643V33.9805C18.5332 33.6488 18.2643 33.3799 17.9326 33.3799Z" fill="white"/>
<path d="M20.5 33.3799C20.1683 33.3799 19.8994 33.6488 19.8994 33.9805V35.2643C19.8994 35.596 20.1683 35.8649 20.5 35.8649C20.8317 35.8649 21.1006 35.596 21.1006 35.2643V33.9805C21.1006 33.6488 20.8317 33.3799 20.5 33.3799Z" fill="white"/>
<path d="M23.0674 33.3799C22.7357 33.3799 22.4668 33.6488 22.4668 33.9805V35.2643C22.4668 35.596 22.7357 35.8649 23.0674 35.8649C23.3991 35.8649 23.668 35.596 23.668 35.2643V33.9805C23.668 33.6488 23.3991 33.3799 23.0674 33.3799Z" fill="white"/>
<path d="M25.6357 33.3799C25.3041 33.3799 25.0352 33.6488 25.0352 33.9805V35.2643C25.0352 35.596 25.3041 35.8649 25.6357 35.8649C25.9674 35.8649 26.2363 35.596 26.2363 35.2643V33.9805C26.2363 33.6488 25.9674 33.3799 25.6357 33.3799Z" fill="white"/>
<path d="M28.2031 33.3799C27.8714 33.3799 27.6025 33.6488 27.6025 33.9805V35.2643C27.6025 35.596 27.8714 35.8649 28.2031 35.8649C28.5348 35.8649 28.8037 35.596 28.8037 35.2643V33.9805C28.8037 33.6488 28.5348 33.3799 28.2031 33.3799Z" fill="white"/>
<path d="M30.7705 33.3799C30.4388 33.3799 30.1699 33.6488 30.1699 33.9805V35.2643C30.1699 35.596 30.4388 35.8649 30.7705 35.8649C31.1022 35.8649 31.3711 35.596 31.3711 35.2643V33.9805C31.3711 33.6488 31.1022 33.3799 30.7705 33.3799Z" fill="white"/>
<path d="M33.3379 33.3799C33.0062 33.3799 32.7373 33.6488 32.7373 33.9805V35.2643C32.7373 35.596 33.0062 35.8649 33.3379 35.8649C33.6696 35.8649 33.9385 35.596 33.9385 35.2643V33.9805C33.9385 33.6488 33.6696 33.3799 33.3379 33.3799Z" fill="white"/>
</g>
<defs>
<clipPath id="clip0_28_1112">
<rect width="41" height="41" fill="white"/>
</clipPath>
</defs>
</svg>
