<svg width="36" height="36" viewBox="0 0 36 36" fill="none" xmlns="http://www.w3.org/2000/svg">
<path d="M32.5365 26.8415C32.2555 26.8448 32.2864 26.8312 31.9127 26.8574V18.116C31.9127 17.1805 31.1516 16.4194 30.2161 16.4194H25.9327C25.9303 16.4194 25.9282 16.419 25.9258 16.419H20.9933V3.25058L25.0387 7.161C25.2674 7.38207 25.3985 7.69116 25.3985 8.00918V14.4606C25.3985 14.7519 25.6346 14.988 25.9258 14.988C26.2171 14.988 26.4532 14.7519 26.4532 14.4606V8.00918C26.4532 7.40689 26.2048 6.82132 25.7717 6.40268L20.8324 1.62826C20.7214 1.52405 20.5086 1.43054 20.2979 1.50753L11.437 4.48597V2.43284C11.4437 1.53572 10.6388 0.754904 9.70242 0.809325C8.80685 0.809325 8.0782 1.53762 8.0782 2.43284V5.61497L5.75993 6.39425C4.84931 6.70039 4.23745 7.55145 4.23745 8.5122V26.8444C1.89077 26.9045 0 28.8308 0 31.1917V33.8733C0 34.6013 0.592242 35.1935 1.32019 35.1935H34.6797C35.4078 35.1935 35.9999 34.6012 35.9999 33.8733V30.3049C36 28.3952 34.4463 26.8415 32.5365 26.8415ZM32.5365 27.8962C33.8647 27.8962 34.9453 28.9768 34.9453 30.305V30.8582H29.8301V30.305C29.8313 28.8635 31.0978 27.7714 32.5365 27.8962ZM30.858 18.116V27.1295C29.6336 27.664 28.7754 28.8858 28.7754 30.3049V30.8581H20.9933V17.4741H30.2161C30.57 17.4741 30.858 17.7621 30.858 18.116ZM9.13289 2.43284C9.13289 2.11918 9.38841 1.86401 9.70242 1.86401C9.98445 1.8226 10.3642 2.04373 10.3823 2.43284V4.84048L9.13289 5.26046V2.43284ZM4.23752 27.8981V30.8582H1.07142C1.23546 29.2339 2.58398 27.954 4.23752 27.8981ZM1.05469 33.8733V31.9129H4.23752V34.1388H1.32026C1.1738 34.1388 1.05469 34.0197 1.05469 33.8733ZM5.29221 8.5122C5.29221 8.00496 5.61523 7.55567 6.09602 7.39402L19.9387 2.74102V5.61434L8.4375 9.48033C8.16145 9.57307 8.01288 9.87211 8.10569 10.1482C8.17973 10.3686 8.38519 10.5077 8.60548 10.5077C8.66116 10.5077 8.71784 10.4988 8.77359 10.48L19.9387 6.72711V9.40988L8.4375 13.2758C8.16145 13.3686 8.01288 13.6677 8.10569 13.9437C8.17973 14.1641 8.38519 14.3031 8.60548 14.3031C8.66116 14.3031 8.71784 14.2943 8.77359 14.2755L19.9387 10.5225V13.2053L8.4375 17.0713C8.16145 17.164 8.01288 17.463 8.10569 17.7392C8.17973 17.9595 8.38519 18.0986 8.60548 18.0986C8.66116 18.0986 8.71784 18.0897 8.77359 18.071L19.9387 14.318V16.9448C19.9387 16.9455 19.9386 16.9461 19.9386 16.9468V17.0009L8.4375 20.8667C8.16145 20.9595 8.01288 21.2586 8.10569 21.5346C8.17973 21.755 8.38519 21.8941 8.60548 21.8941C8.66116 21.8941 8.71784 21.8852 8.77359 21.8664L19.9385 18.1134V20.7963L12.757 23.2103C12.481 23.303 12.3324 23.602 12.4252 23.8781C12.4992 24.0985 12.7047 24.2376 12.925 24.2376C12.9807 24.2376 13.0373 24.2287 13.0931 24.21L19.9385 21.9089V34.1388H15.3828V28.6591C15.3828 28.3 15.2187 27.9693 14.9326 27.7522C14.6465 27.5351 14.284 27.4659 13.938 27.5625L9.02974 28.9328C8.46956 29.0891 8.07834 29.6045 8.07834 30.1862V34.1388H5.29221V8.5122ZM9.13303 30.1862C9.13303 30.076 9.20721 29.9783 9.31331 29.9486L11.2032 29.421V34.1388H9.13296V30.1862H9.13303ZM12.2579 34.1388V29.1266L14.2216 28.5783C14.2481 28.5709 14.2729 28.5755 14.2949 28.5923C14.3169 28.6091 14.3281 28.6316 14.3281 28.6592V34.1388H12.2579ZM20.9933 34.1388V31.9129H28.7754V34.1388H20.9933ZM34.9453 33.8733C34.9453 34.0198 34.8262 34.1388 34.6798 34.1388H29.8301V31.9129H34.9453V33.8733Z" fill="white"/>
<path d="M8.60554 25.6897C8.66123 25.6897 8.7179 25.6809 8.77366 25.6621L10.7316 25.004C11.0076 24.9112 11.1562 24.6122 11.0634 24.3361C10.9706 24.0599 10.6715 23.9113 10.3955 24.0043L8.43756 24.6624C8.16152 24.7551 8.01295 25.0542 8.10576 25.3303C8.1798 25.5506 8.38525 25.6897 8.60554 25.6897Z" fill="white"/>
<path d="M23.3024 21.8234H28.474C28.9644 21.8234 29.3633 21.4245 29.3633 20.9341V19.6648C29.3633 19.1743 28.9644 18.7754 28.474 18.7754H23.3024C22.812 18.7754 22.4131 19.1743 22.4131 19.6648V20.9341C22.4131 21.4245 22.812 21.8234 23.3024 21.8234ZM23.4678 19.8301H28.3086V20.7687H23.4678V19.8301Z" fill="white"/>
<path d="M23.3024 25.8332H28.474C28.9644 25.8332 29.3633 25.4343 29.3633 24.9438V23.6745C29.3633 23.184 28.9644 22.7852 28.474 22.7852H23.3024C22.812 22.7852 22.4131 23.1841 22.4131 23.6745V24.9438C22.4131 25.4343 22.812 25.8332 23.3024 25.8332ZM23.4678 23.8398H28.3086V24.7785H23.4678V23.8398Z" fill="white"/>
<path d="M23.3024 29.884H25.013C25.5034 29.884 25.9023 29.485 25.9023 28.9947V27.7253C25.9023 27.2349 25.5034 26.8359 25.013 26.8359H23.3024C22.812 26.8359 22.4131 27.2349 22.4131 27.7253V28.9947C22.4131 29.485 22.812 29.884 23.3024 29.884ZM23.4678 27.8906H24.8477V28.8293H23.4678V27.8906Z" fill="white"/>
</svg>
