<svg width="36" height="34" viewBox="0 0 36 34" fill="none" xmlns="http://www.w3.org/2000/svg">
<path d="M33.3554 20.6282C31.8895 20.5584 30.588 21.7752 30.5925 23.2727V26.7238C30.5925 28.0284 31.5424 29.1147 32.7867 29.3292V32.5518H28.5121V22.8301C28.5121 22.108 27.9245 21.5204 27.2024 21.5204H19.1133C18.3911 21.5204 17.8036 22.108 17.8036 22.8301V32.5518H13.4269V6.55863H17.8036V8.85173C17.8036 9.70335 18.4965 10.3962 19.3481 10.3962H26.9676C27.8192 10.3962 28.5121 9.70335 28.5121 8.85173V6.55863H32.7867V18.7069C32.7867 18.9982 33.0228 19.2343 33.3141 19.2343C33.6053 19.2343 33.8414 18.9982 33.8414 18.7069V4.63698C33.8414 3.89259 33.2362 3.28698 32.4921 3.28698H28.5121V1.93804C28.5121 1.08641 27.8192 0.393555 26.9676 0.393555H19.3481C18.4965 0.393555 17.8036 1.08641 17.8036 1.93804V3.28698H13.7215C12.9774 3.28698 12.3722 3.89259 12.3722 4.63698L12.3718 29.2892H2.9122V12.2017C2.9122 12.0392 3.04439 11.9071 3.20681 11.9071H10.4115C10.7028 11.9071 10.9389 11.671 10.9389 11.3797C10.9389 11.0885 10.7028 10.8524 10.4115 10.8524H3.20688C2.46284 10.8524 1.85759 11.4577 1.85759 12.2017V29.2892H1.3493C0.60532 29.2892 0 29.8945 0 30.6385V32.2572C0 33.0013 0.60532 33.6066 1.3493 33.6066L33.3141 33.6064C33.6053 33.6064 33.8414 33.3703 33.8414 33.0791V29.3229C35.0682 29.0939 36 28.016 36 26.7238V23.2728C36 21.8145 34.8136 20.6282 33.3554 20.6282ZM32.7867 4.63698V5.50394H31.2251V4.34167H32.4921C32.6545 4.34167 32.7867 4.47414 32.7867 4.63698ZM30.1704 4.34167V5.50394H28.5121V4.34167H30.1704ZM19.3481 1.44817H26.9676C27.2377 1.44817 27.4574 1.6679 27.4574 1.93797V8.85173C27.4574 9.1218 27.2377 9.34152 26.9676 9.34152H19.3481C19.078 9.34152 18.8583 9.1218 18.8583 8.85173V1.93804C18.8583 1.6679 19.078 1.44817 19.3481 1.44817ZM17.8036 4.34167V5.50394H16.058V4.34167H17.8036ZM13.4269 4.63698C13.4269 4.47414 13.559 4.34167 13.7215 4.34167H15.0033V5.50394H13.4269V4.63698ZM12.3718 32.5519H1.3493C1.1868 32.5519 1.05469 32.4197 1.05469 32.2572V30.6385C1.05469 30.4761 1.18687 30.3439 1.3493 30.3439H12.3718V32.5519ZM27.4574 22.8301V32.5518H23.6413V27.7907H24.3076C24.5988 27.7907 24.8349 27.5546 24.8349 27.2633C24.8349 26.9721 24.5988 26.736 24.3076 26.736H23.6413V22.5751H27.2024C27.343 22.5751 27.4574 22.6895 27.4574 22.8301ZM18.8583 22.8301C18.8583 22.6895 18.9727 22.5751 19.1133 22.5751H22.5866V32.5518H18.8582V22.8301H18.8583ZM34.9453 26.7238C34.9453 27.6004 34.2321 28.3137 33.3554 28.3137C32.4863 28.38 31.6421 27.643 31.6472 26.7238V23.2727C31.6411 22.3898 32.434 21.6255 33.3554 21.6828C34.2321 21.6828 34.9453 22.3961 34.9453 23.2727V26.7238Z" fill="white"/>
<path d="M30.3763 16.3965H15.8175C15.2698 16.3965 14.8242 16.8421 14.8242 17.3897V18.67C14.8242 19.2177 15.2698 19.6633 15.8175 19.6633H30.3763C30.924 19.6633 31.3695 19.2177 31.3695 18.67V17.3897C31.3696 16.8421 30.924 16.3965 30.3763 16.3965ZM30.3149 18.6086H15.8789V17.4512H30.3149V18.6086Z" fill="white"/>
<path d="M31.3696 12.9542C31.3696 12.4064 30.924 11.9609 30.3764 11.9609H15.8175C15.2698 11.9609 14.8242 12.4065 14.8242 12.9542V14.2345C14.8242 14.7822 15.2698 15.2277 15.8175 15.2277H17.1353C17.4266 15.2277 17.6627 14.9916 17.6627 14.7004C17.6627 14.4091 17.4266 14.173 17.1353 14.173H15.8789V13.0156H30.3149V14.173H19.6089C19.3177 14.173 19.0816 14.4091 19.0816 14.7004C19.0816 14.9916 19.3177 15.2277 19.6089 15.2277H30.3763C30.924 15.2277 31.3695 14.7822 31.3695 14.2345V12.9542H31.3696Z" fill="white"/>
<path d="M6.53418 13.667C6.53418 13.3758 6.29807 13.1396 6.00684 13.1396C5.7156 13.1396 5.47949 13.3758 5.47949 13.667V15.3077C5.47949 15.5989 5.7156 15.835 6.00684 15.835C6.29807 15.835 6.53418 15.5989 6.53418 15.3077V13.667Z" fill="white"/>
<path d="M9.8877 13.667C9.8877 13.3758 9.65159 13.1396 9.36035 13.1396C9.06912 13.1396 8.83301 13.3758 8.83301 13.667V15.3077C8.83301 15.5989 9.06912 15.835 9.36035 15.835C9.65159 15.835 9.8877 15.5989 9.8877 15.3077V13.667Z" fill="white"/>
<path d="M6.53418 17.7529C6.53418 17.4617 6.29807 17.2256 6.00684 17.2256C5.7156 17.2256 5.47949 17.4617 5.47949 17.7529V19.3936C5.47949 19.6848 5.7156 19.9209 6.00684 19.9209C6.29807 19.9209 6.53418 19.6848 6.53418 19.3936V17.7529Z" fill="white"/>
<path d="M9.8877 17.7529C9.8877 17.4617 9.65159 17.2256 9.36035 17.2256C9.06912 17.2256 8.83301 17.4617 8.83301 17.7529V19.3936C8.83301 19.6848 9.06912 19.9209 9.36035 19.9209C9.65159 19.9209 9.8877 19.6848 9.8877 19.3936V17.7529Z" fill="white"/>
<path d="M6.53418 21.8379C6.53418 21.5467 6.29807 21.3105 6.00684 21.3105C5.7156 21.3105 5.47949 21.5467 5.47949 21.8379V23.4786C5.47949 23.7698 5.7156 24.0059 6.00684 24.0059C6.29807 24.0059 6.53418 23.7698 6.53418 23.4786V21.8379Z" fill="white"/>
<path d="M9.8877 21.8379C9.8877 21.5467 9.65159 21.3105 9.36035 21.3105C9.06912 21.3105 8.83301 21.5467 8.83301 21.8379V23.4786C8.83301 23.7698 9.06912 24.0059 9.36035 24.0059C9.65159 24.0059 9.8877 23.7698 9.8877 23.4786V21.8379Z" fill="white"/>
<path d="M6.00684 25.3955C5.7156 25.3955 5.47949 25.6316 5.47949 25.9229V27.5635C5.47949 27.8548 5.7156 28.0909 6.00684 28.0909C6.29807 28.0909 6.53418 27.8548 6.53418 27.5635V25.9229C6.53418 25.6316 6.29807 25.3955 6.00684 25.3955Z" fill="white"/>
<path d="M9.36035 25.3955C9.06912 25.3955 8.83301 25.6316 8.83301 25.9229V27.5635C8.83301 27.8548 9.06912 28.0909 9.36035 28.0909C9.65159 28.0909 9.8877 27.8548 9.8877 27.5635V25.9229C9.8877 25.6316 9.65159 25.3955 9.36035 25.3955Z" fill="white"/>
<path d="M21.3213 6.95732H21.5571V7.19315C21.5571 7.69286 21.9636 8.0994 22.4633 8.0994H23.8518C24.3515 8.0994 24.758 7.69286 24.758 7.19315V6.95732H24.9939C25.4936 6.95732 25.9001 6.55077 25.9001 6.05106V4.66253C25.9001 4.16282 25.4936 3.75627 24.9939 3.75627H24.758V3.52052C24.758 3.0208 24.3515 2.61426 23.8518 2.61426H22.4633C21.9636 2.61426 21.5571 3.0208 21.5571 3.52052V3.75627H21.3213C20.8216 3.75627 20.415 4.16282 20.415 4.66253V6.05106C20.415 6.55077 20.8216 6.95732 21.3213 6.95732ZM21.4697 4.81096H22.0844C22.3756 4.81096 22.6117 4.57485 22.6117 4.28362V3.66895H23.7033V4.28362C23.7033 4.57485 23.9395 4.81096 24.2307 4.81096H24.8454V5.90256H24.2307C23.9395 5.90256 23.7033 6.13867 23.7033 6.42991V7.04465H22.6117V6.42991C22.6117 6.13867 22.3756 5.90256 22.0844 5.90256H21.4697V4.81096Z" fill="white"/>
</svg>
