<svg width="36" height="36" viewBox="0 0 36 36" fill="none" xmlns="http://www.w3.org/2000/svg">
<path d="M35.5111 20.1492V17.8526C35.5111 17.2525 35.023 16.7643 34.4228 16.7643H34.0507V11.9679H34.5639C35.0861 11.9679 35.511 11.5427 35.511 11.0201V6.97922C35.511 6.45659 35.0861 6.03141 34.5639 6.03141H29.8066V3.9382C29.8066 3.12637 29.1458 2.46586 28.3335 2.46586H24.552V1.40351C24.552 0.629649 23.9223 0 23.1484 0H12.8509C12.077 0 11.4474 0.629649 11.4474 1.40351V2.46586H7.66585C6.8536 2.46586 6.1928 3.12637 6.1928 3.9382V6.03141H1.43546C0.91325 6.03141 0.488352 6.45659 0.488352 6.97922V11.0201C0.488352 11.5427 0.91325 11.9679 1.43546 11.9679H1.94867V16.7643H1.57651C0.976461 16.7643 0.488281 17.2525 0.488281 17.8526V20.1493C0.488281 21.2278 1.07659 22.1708 1.94874 22.6762L1.94867 31.7855H1.43546C0.91325 31.7855 0.488352 32.2103 0.488352 32.7326V35.0529C0.488352 35.5751 0.91325 36 1.43546 36H34.5639C35.0861 36 35.511 35.5751 35.511 35.0529V32.7326C35.511 32.2104 35.0861 31.7855 34.5639 31.7855H34.0507V25.0623C34.0507 25.0618 34.0506 25.0613 34.0506 25.0609V22.6761C34.9228 22.1707 35.5111 21.2277 35.5111 20.1492ZM34.4564 17.8526V20.1492C34.4564 21.1773 33.6199 22.0137 32.5919 22.0137C31.5822 22.0585 30.6538 21.198 30.6584 20.1492V17.819H34.4228C34.4413 17.819 34.4564 17.8341 34.4564 17.8526ZM29.6037 20.1492C29.6087 21.1681 28.7243 22.0489 27.6702 22.0137C26.6422 22.0137 25.8058 21.1773 25.8058 20.1492V17.819H29.6037V20.1492ZM24.7512 20.1492C24.7561 21.1681 23.8718 22.0489 22.8176 22.0137C21.7923 22.0137 20.9578 21.1817 20.9534 20.1574C20.9534 20.1547 20.9536 20.152 20.9536 20.1493V17.8191H24.7512V20.1492ZM15.0462 20.1492C15.0512 21.1681 14.1668 22.0489 13.1127 22.0137C12.0846 22.0137 11.2482 21.1773 11.2482 20.1492V17.819H15.0462V20.1492ZM10.1935 20.1492C10.1985 21.1681 9.31412 22.0489 8.26006 22.0137C7.23202 22.0137 6.39559 21.1773 6.39559 20.1492V17.819H10.1935V20.1492ZM16.1009 17.819H19.8985V20.1492C19.9047 21.1671 19.0191 22.0494 17.9654 22.0137C16.9373 22.0137 16.1009 21.1773 16.1009 20.1492V17.819ZM28.7519 3.9382V6.03141H27.2078V3.52055H28.3335C28.5642 3.52055 28.7519 3.70786 28.7519 3.9382ZM26.1531 3.52055V6.03141H24.552V3.52055H26.1531ZM11.4474 3.52055V6.03141H9.84624V3.52055H11.4474ZM7.24749 3.9382C7.24749 3.70793 7.43516 3.52055 7.66585 3.52055H8.79155V6.03141H7.24749V3.9382ZM1.54304 7.08609H11.4474V8.33745C11.4474 9.11131 12.077 9.74095 12.8509 9.74095H19.5783C19.8696 9.74095 20.1056 9.50484 20.1056 9.21361C20.1056 8.92237 19.8696 8.68627 19.5783 8.68627H12.8509C12.6586 8.68627 12.5021 8.52975 12.5021 8.33745V1.40351C12.5021 1.2112 12.6586 1.05469 12.8509 1.05469H23.1484C23.3407 1.05469 23.4972 1.2112 23.4972 1.40351V8.33745C23.4972 8.52975 23.3407 8.68627 23.1484 8.68627H22.051C21.7597 8.68627 21.5237 8.92237 21.5237 9.21361C21.5237 9.50484 21.7597 9.74095 22.051 9.74095H23.1484C23.9223 9.74095 24.5519 9.11131 24.5519 8.33745V7.08609H34.4563V10.9132H1.54304V7.08609ZM3.00336 11.9679H32.996V16.7643H3.00336V11.9679ZM1.54297 17.8526C1.54297 17.8341 1.55802 17.8189 1.57651 17.8189H2.47602H5.34097V20.1492C5.34596 21.168 4.46157 22.0488 3.40744 22.0136C2.37941 22.0136 1.54297 21.1772 1.54297 20.1492V17.8526ZM10.9949 25.5896V31.7855H7.47369V25.5896H10.9949ZM6.419 31.7855H3.00343V25.5896H6.419V31.7855ZM1.54304 32.8402H10.9949V34.9453H1.54304V32.8402ZM12.0496 25.5896H17.4723V34.9453H12.0496V25.5896ZM18.527 34.9453V25.5896H23.9498V34.9453H18.527ZM32.9959 25.5896V31.7855H29.5804V27.5486C29.5804 27.2574 29.3443 27.0213 29.053 27.0213C28.7617 27.0213 28.5257 27.2574 28.5257 27.5486V31.7855H25.0045V25.5896H32.9959ZM34.4563 34.9453H25.0045V32.8402H34.4563V34.9453ZM32.9959 24.5349H3.00343V23.0397C4.00777 23.2189 5.30841 22.6981 5.86831 21.8197C6.39664 22.5738 7.27147 23.0683 8.26013 23.0683C9.20429 23.1031 10.2012 22.5799 10.7209 21.8197C11.2493 22.5739 12.1241 23.0683 13.1127 23.0683C14.0569 23.1031 15.0539 22.5799 15.5736 21.8197C16.1019 22.5739 16.9768 23.0683 17.9654 23.0683C18.9095 23.1031 19.9063 22.5801 20.4261 21.82C20.9544 22.574 21.8292 23.0683 22.8177 23.0683C23.7619 23.1031 24.7588 22.5799 25.2786 21.8197C25.8069 22.5739 26.6817 23.0683 27.6704 23.0683C28.6146 23.1031 29.6115 22.5799 30.1312 21.8197C30.7386 22.6791 31.8313 23.2104 32.9961 23.0397V24.5349H32.9959Z" fill="white"/>
<path d="M11.915 14.8428H30.1315C30.4228 14.8428 30.6588 14.6067 30.6588 14.3154C30.6588 14.0242 30.4228 13.7881 30.1315 13.7881H11.915C11.6237 13.7881 11.3877 14.0242 11.3877 14.3154C11.3877 14.6067 11.6237 14.8428 11.915 14.8428Z" fill="white"/>
<path d="M9.44714 14.8428C9.73844 14.8428 9.97448 14.6067 9.97448 14.3154C9.97448 14.0242 9.73844 13.7881 9.44714 13.7881H5.86816C5.57686 13.7881 5.34082 14.0242 5.34082 14.3154C5.34082 14.6067 5.57686 14.8428 5.86816 14.8428H9.44714Z" fill="white"/>
<path d="M20.3919 28.293C20.1004 28.293 19.8643 28.5292 19.8643 28.8206C19.8643 29.112 20.1005 29.3483 20.3919 29.3483C20.6833 29.3483 20.9195 29.112 20.9195 28.8206C20.9195 28.5292 20.6833 28.293 20.3919 28.293Z" fill="white"/>
<path d="M21.6494 6.49981V4.3853C21.6494 3.81521 21.1855 3.35136 20.6154 3.35136H16.8422L16.6897 2.89805C16.5013 2.33816 15.9778 1.96191 15.3871 1.96191H14.4199C14.1286 1.96191 13.8926 2.19802 13.8926 2.48926C13.8926 2.78049 14.1286 3.0166 14.4199 3.0166H15.3871C15.5245 3.0166 15.6463 3.10414 15.6901 3.23436L16.8296 6.80926C16.9656 7.24259 17.362 7.53376 17.8162 7.53376H20.6154C21.1856 7.53376 21.6494 7.0699 21.6494 6.49981ZM20.5947 6.47907H17.8313L17.1812 4.40605H20.5947V6.47907Z" fill="white"/>
</svg>
