<svg width="43" height="43" viewBox="0 0 43 43" fill="none" xmlns="http://www.w3.org/2000/svg">
<g clip-path="url(#clip0_28_1143)">
<path d="M6.10462 3.9136C5.75654 3.9136 5.47473 4.19541 5.47473 4.54349V8.62427H3.99713V4.30859C3.99713 3.96052 3.71533 3.67871 3.36725 3.67871C3.01917 3.67871 2.73737 3.96052 2.73737 4.30859V8.62427H1.25977V4.30859C1.25977 3.96052 0.977959 3.67871 0.629883 3.67871C0.281807 3.67871 0 3.96052 0 4.30859V12.4767C0 13.2598 0.435013 14.0632 1.05735 14.4303C1.24139 14.5386 1.55306 15.217 1.55306 15.5924V20.3253C1.55306 24.2126 1.51861 28.0197 1.10262 31.863C0.845421 34.2369 0.703369 36.2446 0.703369 36.7249C0.703369 38.2668 1.87357 39.4744 3.36725 39.4744C4.86093 39.4744 6.03113 38.2668 6.03113 36.7249C6.03113 36.2446 5.88908 34.2372 5.63188 31.863C5.21589 28.0194 5.18145 24.2122 5.18145 20.3257V15.6278C5.18145 15.1905 5.52591 14.5586 5.90417 14.3024C6.51634 13.8877 6.7345 13.0876 6.7345 12.4771V4.54349C6.7345 4.19541 6.45237 3.9136 6.10462 3.9136ZM3.36725 38.2147C2.56677 38.2147 1.96314 37.5743 1.96314 36.7246C1.96314 36.3385 2.09764 34.375 2.35484 31.9985C2.77772 28.0929 2.81282 24.2483 2.81282 20.3253V16.2317L3.92135 16.2485V20.3257C3.92135 24.248 3.95645 28.0922 4.37933 31.9985C4.63686 34.375 4.77136 36.3385 4.77136 36.7246C4.77136 37.5743 4.16773 38.2147 3.36725 38.2147ZM5.47473 12.4767C5.47473 12.8159 5.35565 13.1525 5.19785 13.2595C4.64539 13.6332 4.19627 14.3103 4.0119 14.9897L2.72392 14.9707C2.56546 14.3516 2.20262 13.6433 1.6974 13.3451C1.46021 13.205 1.25977 12.8074 1.25977 12.4767V9.88404H5.47473V12.4767Z" fill="white"/>
<path d="M30.3692 31.7575C27.9897 33.7354 24.9722 34.8246 21.8723 34.8246C14.5381 34.8246 8.57129 28.8578 8.57129 21.5236C8.57129 18.4244 9.66046 15.4072 11.638 13.0277C11.8605 12.76 11.8237 12.3631 11.5563 12.1406C11.2886 11.9182 10.8914 11.9549 10.6693 12.2223C8.50404 14.8278 7.31152 18.1311 7.31152 21.5236C7.31152 29.5526 13.8433 36.0844 21.8723 36.0844C25.2655 36.0844 28.5691 34.8918 31.1746 32.7263C31.4419 32.5039 31.4787 32.1066 31.2563 31.8392C31.0338 31.5715 30.6365 31.5351 30.3692 31.7575Z" fill="white"/>
<path d="M21.8718 6.96289C18.5003 6.96289 15.2131 8.14195 12.6158 10.2829C12.3475 10.5043 12.3094 10.9013 12.5305 11.1697C12.752 11.438 13.1486 11.4764 13.4173 11.2553C15.7895 9.29969 18.792 8.22298 21.8718 8.22298C29.206 8.22298 35.1728 14.1898 35.1728 21.524C35.1728 24.6065 34.0942 27.6112 32.136 29.9845C31.9145 30.2525 31.9522 30.6498 32.2206 30.8712C32.338 30.968 32.4801 31.0152 32.6215 31.0152C32.8029 31.0152 32.983 30.9372 33.1074 30.7862C35.2516 28.188 36.4326 24.8985 36.4326 21.524C36.4326 13.495 29.9005 6.96289 21.8718 6.96289Z" fill="white"/>
<path d="M21.8721 33.2918C28.3609 33.2918 33.6398 28.0129 33.6398 21.5242C33.6398 15.0357 28.3609 9.75684 21.8721 9.75684C15.3837 9.75684 10.1045 15.0357 10.1045 21.5242C10.1045 28.0129 15.3837 33.2918 21.8721 33.2918ZM21.8721 11.0166C27.6664 11.0166 32.38 15.7302 32.38 21.5242C32.38 27.3184 27.6664 32.0321 21.8721 32.0321C16.0782 32.0321 11.3643 27.3184 11.3643 21.5242C11.3643 15.7302 16.0782 11.0166 21.8721 11.0166Z" fill="white"/>
<path d="M43.0001 4.07228C42.9998 3.84526 42.842 3.63628 42.6445 3.52474C42.447 3.4132 42.2049 3.41648 42.0104 3.5336C39.295 5.16473 37.6084 8.14618 37.6084 11.314V20.9964C37.6084 21.4075 37.8111 21.812 38.1792 22.1355C38.5099 22.4265 38.9508 22.6322 39.3947 22.7188V25.1232C39.3947 27.3704 39.0063 30.7875 38.7225 33.2828C38.5411 34.8778 38.398 36.1376 38.398 36.69C38.398 39.3946 40.1391 39.6046 40.6725 39.6046C41.7978 39.6046 43.0001 38.8392 43.0001 36.6874C42.9998 36.6608 43.0001 4.07228 43.0001 4.07228ZM38.8682 20.9964V11.314C38.8682 8.97782 39.9331 6.75978 41.7072 5.28841C41.7151 9.90722 41.7217 16.418 41.7269 21.4633L40.0134 21.4941C39.9901 21.4944 39.9669 21.4961 39.9439 21.499C39.6552 21.5371 39.2543 21.4032 39.0109 21.1893C38.8934 21.0863 38.8682 21.0099 38.8682 20.9964ZM40.6725 38.3448C40.4215 38.3448 39.6578 38.3448 39.6578 36.69C39.6578 36.2091 39.8045 34.9188 39.9744 33.4248C40.2615 30.8997 40.6545 27.4416 40.6545 25.1228V22.7424L41.7062 22.7237C41.7282 33.9855 41.7404 36.6667 41.7404 36.69C41.7404 37.4452 41.555 38.3448 40.6725 38.3448Z" fill="white"/>
</g>
<defs>
<clipPath id="clip0_28_1143">
<rect width="43" height="43" fill="white"/>
</clipPath>
</defs>
</svg>
