<svg width="36" height="36" viewBox="0 0 36 36" fill="none" xmlns="http://www.w3.org/2000/svg">
<path d="M36 14.2925C35.9976 14.2547 35.9977 14.192 35.9648 14.1043L34.92 11.3872C34.6505 10.6577 34.1077 9.69497 33.5457 9.02475C31.9067 7.02612 29.4846 5.87988 26.9002 5.87988H4.03383C1.80956 5.87988 0 7.68951 0 9.91378V25.7849C0 27.0996 1.06959 28.1692 2.3843 28.1692H3.48117C3.72361 29.283 4.7167 30.1198 5.90203 30.1198C6.69333 30.1198 7.39863 29.7465 7.85257 29.1673C8.30658 29.7465 9.01188 30.1198 9.80311 30.1198C10.9885 30.1198 11.9816 29.283 12.224 28.1692H25.0716C25.314 29.283 26.3071 30.1198 27.4925 30.1198C28.8589 30.1198 29.9704 29.0082 29.9704 27.6419C29.9704 26.2756 28.8588 25.164 27.4925 25.164C26.3072 25.164 25.3141 26.0008 25.0716 27.1145H21.9316V22.0134H28.9983C29.2574 22.0134 29.5069 22.0918 29.7195 22.2398C29.9328 22.3886 30.093 22.5955 30.1826 22.8378C30.517 23.7439 31.3903 24.3526 32.3557 24.3526H34.9453V25.6302C34.9453 26.4486 34.2795 27.1145 33.461 27.1145H31.9326C31.6413 27.1145 31.4052 27.3506 31.4052 27.6418C31.4052 27.933 31.6413 28.1691 31.9326 28.1691H33.461C34.861 28.1691 36 27.0302 36 25.6302V14.2933C36 14.293 36 14.2928 36 14.2925ZM1.05469 20.9587V17.3524H7.85531V20.9587H1.05469ZM14.5955 12.354C14.8868 12.354 15.1228 12.1179 15.1228 11.8266V9.88706H20.8772V13.766H8.91V9.88706H14.0681V11.8266C14.0681 12.1179 14.3042 12.354 14.5955 12.354ZM32.8826 9.88706C32.9743 10.0347 33.4387 10.5264 33.9357 11.7659L34.7048 13.766H29.8742L28.3965 9.88706H32.8826ZM27.268 9.88706L28.7456 13.766H21.9319V9.88706H27.268ZM7.85531 13.7659H3.67734V10.6751C3.67734 10.2406 4.03087 9.88706 4.46548 9.88706H7.85531V13.7659ZM34.9453 14.8209V16.2977H1.05469V14.8209H34.9453ZM8.91 17.3524H14.0681V20.9587H8.91V17.3524ZM21.9319 17.3524H27.1041V20.9587H21.9319V17.3524ZM4.03383 6.93457H26.9002C28.7648 6.93457 30.5327 7.61519 31.9019 8.8323H4.46548C3.44932 8.8323 2.62266 9.65897 2.62266 10.6751V13.7658H1.05469V9.91364C1.05469 8.27107 2.39112 6.93457 4.03383 6.93457ZM1.05469 25.7849V25.4431H2.24923C2.54053 25.4431 2.77657 25.207 2.77657 24.9158C2.77657 24.6245 2.54053 24.3884 2.24923 24.3884H1.05469V22.0134H14.0683V27.1145H12.2241C11.9817 26.0008 10.9886 25.164 9.80318 25.164C9.01188 25.164 8.30658 25.5373 7.85264 26.1165C7.39863 25.5373 6.69333 25.164 5.9021 25.164C4.71677 25.164 3.72368 26.0008 3.48124 27.1145H2.3843C1.65115 27.1145 1.05469 26.518 1.05469 25.7849ZM5.90203 29.0651C5.11748 29.0651 4.47919 28.427 4.47884 27.6426C4.47884 27.6424 4.47884 27.6421 4.47884 27.6419C4.47884 27.6417 4.47884 27.6414 4.47884 27.6412C4.47919 26.8568 5.11748 26.2187 5.90203 26.2187C6.68679 26.2187 7.32523 26.8572 7.32523 27.6419C7.32523 28.4267 6.68686 29.0651 5.90203 29.0651ZM9.80318 29.0651C9.01842 29.0651 8.37998 28.4266 8.37998 27.6419C8.37998 26.8571 9.01842 26.2187 9.80318 26.2187C10.5868 26.2187 11.2244 26.8553 11.2263 27.6385C11.2263 27.6396 11.2262 27.6407 11.2262 27.6419C11.2262 27.643 11.2263 27.6441 11.2263 27.6453C11.2244 28.4285 10.5868 29.0651 9.80318 29.0651ZM27.4926 26.2187C28.2774 26.2187 28.9158 26.8571 28.9158 27.6419C28.9158 28.4266 28.2774 29.0651 27.4926 29.0651C26.7079 29.0651 26.0693 28.4266 26.0693 27.6419C26.0693 26.8571 26.7079 26.2187 27.4926 26.2187ZM18.5273 27.1145V25.6053C18.5273 25.314 18.2913 25.0779 18 25.0779C17.7087 25.0779 17.4727 25.314 17.4727 25.6053V27.1145H15.123V17.3524H17.4727V23.1228C17.4727 23.4141 17.7087 23.6502 18 23.6502C18.2913 23.6502 18.5273 23.4141 18.5273 23.1228V17.3524H20.877V27.1145H18.5273ZM32.3557 23.298C31.8298 23.298 31.3542 22.9663 31.1719 22.4724C31.0071 22.0269 30.7136 21.6475 30.3226 21.3746C29.9318 21.1025 29.4739 20.9587 28.9983 20.9587H28.1588V17.3524H34.9453V18.678L33.4629 20.4164C33.2739 20.638 33.3004 20.9708 33.522 21.1598C33.6213 21.2445 33.743 21.2858 33.8639 21.2858C34.013 21.2858 34.1612 21.223 34.2655 21.1007L34.9453 20.3035V23.2979H32.3557V23.298Z" fill="white"/>
<path d="M27.4925 28.1695C27.784 28.1695 28.0202 27.9333 28.0202 27.6419C28.0202 27.3505 27.7839 27.1143 27.4925 27.1143C27.2011 27.1143 26.9648 27.3505 26.9648 27.6419C26.9648 27.9333 27.2011 28.1695 27.4925 28.1695Z" fill="white"/>
<path d="M9.80302 28.1695C10.0944 28.1695 10.3306 27.9333 10.3306 27.6419C10.3306 27.3505 10.0944 27.1143 9.80302 27.1143C9.51162 27.1143 9.27539 27.3505 9.27539 27.6419C9.27539 27.9333 9.51162 28.1695 9.80302 28.1695Z" fill="white"/>
<path d="M5.90172 27.1143C5.61027 27.1143 5.37402 27.3505 5.37402 27.6419C5.37402 27.9333 5.61027 28.1695 5.90172 28.1695C6.19316 28.1695 6.42934 27.9333 6.42934 27.6419C6.42934 27.3505 6.19316 27.1143 5.90172 27.1143Z" fill="white"/>
</svg>
