<svg width="68" height="76" viewBox="0 0 68 76" fill="none" xmlns="http://www.w3.org/2000/svg">
<path d="M41.7171 76C33.9219 76 27.5801 69.5422 27.5801 61.6045C27.5801 59.4606 28.0463 57.3652 28.9402 55.4488H6.96063C6.35684 55.4488 5.86733 54.9504 5.86733 54.3355C5.86733 53.7207 6.35684 53.2223 6.96063 53.2223H30.8061C31.2078 53.2223 31.5772 53.4467 31.768 53.8067C31.959 54.1666 31.9406 54.6042 31.7202 54.9462C30.4422 56.9301 29.7667 59.2323 29.7667 61.6045C29.7667 68.3145 35.1276 73.7734 41.7171 73.7734C45.5151 73.7734 49.0021 71.9956 51.284 68.8961C51.6461 68.4042 52.3312 68.3043 52.8146 68.6731C53.2977 69.0418 53.3958 69.7398 53.0336 70.2317C50.3347 73.8974 46.2101 76 41.7171 76Z" fill="#173F5B"/>
<path d="M54.1576 66.7185C54.0487 66.7185 53.9379 66.7019 53.8286 66.6667C53.2528 66.4817 52.9331 65.8565 53.1148 65.2702C53.4806 64.0885 53.6662 62.8551 53.6662 61.6045C53.6662 60.227 53.4392 58.8709 52.9919 57.5739C52.8952 57.2938 52.9126 56.9859 53.0398 56.7187C53.1671 56.4517 53.3941 56.2473 53.6699 56.1514C60.9334 53.6245 65.8134 46.6748 65.8134 38.858C65.8134 34.8579 64.5676 31.06 62.2108 27.8746C59.9303 24.7925 56.6878 22.4815 53.0805 21.3671C52.7725 21.272 52.5215 21.0435 52.3939 20.7427C52.2665 20.4418 52.2757 20.099 52.4191 19.8057C53.2465 18.1135 53.6661 16.2928 53.6661 14.3941C53.6661 7.68491 48.3059 2.22671 41.7171 2.22671C35.1276 2.22671 29.7667 7.68491 29.7667 14.3941C29.7667 16.7648 30.4428 19.0671 31.7217 21.0524C31.9421 21.3944 31.9604 21.832 31.7696 22.192C31.5787 22.552 31.2093 22.7764 30.8075 22.7764H6.96063C6.35684 22.7764 5.86733 22.2779 5.86733 21.6631C5.86733 21.0483 6.35684 20.5498 6.96063 20.5498H28.9415C28.0469 18.6328 27.5803 16.537 27.5803 14.3941C27.5801 6.45703 33.9219 0 41.7171 0C49.5116 0 55.8527 6.45703 55.8527 14.394C55.8527 16.2128 55.527 17.9716 54.8831 19.6386C58.4595 20.9987 61.6484 23.4145 63.9572 26.5347C66.602 30.1092 68 34.3706 68 38.858C68 47.2649 62.9678 54.7779 55.3725 57.882C55.6914 59.094 55.8528 60.3418 55.8528 61.6045C55.8528 63.0825 55.6333 64.5411 55.2 65.9398C55.0529 66.4146 54.622 66.7185 54.1576 66.7185Z" fill="#173F5B"/>
<path d="M13.2011 33.7502H1.09329C0.489503 33.7502 0 33.2518 0 32.637C0 32.0221 0.489503 31.5237 1.09329 31.5237H13.2011C13.8049 31.5237 14.2944 32.0221 14.2944 32.637C14.2944 33.2518 13.8049 33.7502 13.2011 33.7502Z" fill="#173F5B"/>
<path d="M33.1253 33.7502H17.5743C16.9705 33.7502 16.481 33.2518 16.481 32.637C16.481 32.0221 16.9705 31.5237 17.5743 31.5237H33.1253C37.6442 31.5237 41.3206 27.7801 41.3206 23.1785V18.8842C41.3206 18.2694 41.8101 17.7709 42.4139 17.7709C43.0177 17.7709 43.5072 18.2694 43.5072 18.8842V23.1785C43.5072 29.0078 38.8499 33.7502 33.1253 33.7502Z" fill="#173F5B"/>
<path d="M42.4146 58.3632C41.8108 58.3632 41.3213 57.8648 41.3213 57.25V52.9561C41.3213 48.3541 37.6445 44.6101 33.1251 44.6101H1.09329C0.489503 44.6101 0 44.1116 0 43.4968C0 42.882 0.489503 42.3835 1.09329 42.3835H33.1251C38.8502 42.3835 43.5079 47.1264 43.5079 52.9561V57.25C43.5079 57.8648 43.0184 58.3632 42.4146 58.3632Z" fill="#173F5B"/>
</svg>
