<svg width="73" height="56" viewBox="0 0 73 56" fill="none" xmlns="http://www.w3.org/2000/svg">
<path d="M63.3312 45.6391C60.4962 45.6391 58.1898 47.9631 58.1898 50.8197C58.1898 51.3069 58.2571 51.7893 58.3897 52.254C58.553 52.8257 59.1451 53.1561 59.713 52.9917C60.2806 52.8271 60.6084 52.2303 60.4451 51.6584C60.3677 51.3873 60.3285 51.1052 60.3285 50.8197C60.3285 49.1513 61.6755 47.794 63.3312 47.794C64.987 47.794 66.334 49.1512 66.334 50.8197C66.334 52.5602 64.8729 53.9464 63.1463 53.8396C62.5543 53.8056 62.0504 54.2575 62.0155 54.8515C61.9806 55.4455 62.4301 55.9556 63.0195 55.991C66.0118 56.1661 68.4727 53.7678 68.4727 50.8198C68.4727 47.9631 66.1662 45.6391 63.3312 45.6391Z" fill="#173F5B"/>
<path d="M6.31753 2.15494C6.90809 2.15494 7.38687 1.67267 7.38687 1.07747C7.38687 0.482276 6.90809 0 6.31753 0C3.75227 0 1.66535 2.10294 1.66535 4.68772C1.66535 7.27235 3.75241 9.37529 6.31753 9.37529C8.8828 9.37529 10.9699 7.27235 10.9699 4.68772C10.9699 4.47107 10.955 4.25299 10.9255 4.03951C10.8445 3.45021 10.3052 3.03804 9.71959 3.12036C9.13459 3.20196 8.7261 3.74601 8.80723 4.3356C8.82306 4.45125 8.83118 4.56977 8.83118 4.68772C8.83118 6.08426 7.70353 7.22035 6.31753 7.22035C4.93153 7.22035 3.80403 6.08426 3.80403 4.68772C3.80403 3.29117 4.93153 2.15494 6.31753 2.15494Z" fill="#173F5B"/>
<path d="M68.0753 17.8444C67.8467 17.6541 67.7333 17.3532 67.7722 17.0394C68.1445 14.041 67.15 11.0732 65.0299 8.90163C63.2549 7.08387 60.898 6.03743 58.3933 5.95554C55.1554 5.85138 52.0812 7.35927 50.1695 9.9939C49.9592 10.2838 49.5883 10.4097 49.2465 10.3082C46.5881 9.51565 43.6001 9.55602 40.8083 10.6213C40.5853 10.7063 40.3419 10.6943 40.1228 10.5874C39.9029 10.4801 39.742 10.2944 39.6695 10.0644C37.894 4.42381 32.544 0.609992 26.6678 0.781095C22.1207 0.915994 17.8772 3.48986 15.5929 7.49833C15.5064 7.65033 15.3384 7.74745 15.151 7.73897C11.2134 7.67504 8.41771 11.5419 9.62634 15.2657C9.70647 15.5124 9.57501 15.7788 9.32051 15.8852C6.53554 17.0502 4.18 19.0086 2.50856 21.5487C0.792349 24.1566 -0.0735271 27.1977 0.00489085 30.3432C0.102557 34.2659 1.69116 37.9606 4.47799 40.7471C7.26454 43.5334 10.9436 45.1059 14.8376 45.1752C16.9015 45.2092 18.9082 44.8367 20.8029 44.0598C21.2234 43.8872 21.7362 44.1105 21.923 44.5468C23.5521 48.3514 27.2614 50.8099 31.3733 50.8099C34.6428 50.8099 37.7486 49.2207 39.6815 46.5587C39.9682 46.1639 40.5213 46.0676 40.9033 46.3565C42.9574 47.9104 45.4043 48.7318 47.9797 48.7318C52.3192 48.7318 56.2978 46.3404 58.3632 42.4908C58.5265 42.1869 58.8421 42.0063 59.1828 42.009C63.944 42.1155 68.3859 39.6896 70.9462 35.5673C71.2594 35.0629 71.1076 34.398 70.607 34.0824C70.1067 33.7669 69.4467 33.9198 69.1333 34.4242C67.0327 37.8064 63.361 39.9355 59.2262 39.8546C58.0841 39.8302 57.0281 40.4487 56.482 41.466C54.7906 44.6185 51.5329 46.5769 47.9798 46.5769C45.8712 46.5769 43.8683 45.9047 42.1875 44.6331C40.8595 43.6285 38.9518 43.9143 37.9556 45.2864C36.4239 47.3958 33.9634 48.655 31.3735 48.655C28.1161 48.655 25.1775 46.7074 23.8869 43.6933C23.2393 42.1805 21.4941 41.4496 19.9968 42.0639C18.3714 42.7303 16.6475 43.0513 14.8755 43.0205C8.02662 42.8987 2.3148 37.1874 2.14299 30.289C2.00726 24.8371 5.1464 19.9645 10.1405 17.8754C11.4156 17.3421 12.0827 15.9016 11.6589 14.596C10.9094 12.2855 12.629 9.85426 15.1113 9.89377C16.0806 9.91072 16.9722 9.40546 17.4475 8.5715C19.3643 5.20806 22.9215 3.04852 26.7307 2.93546C31.6608 2.78763 36.1427 5.98858 37.631 10.7162C38.1502 12.3662 39.957 13.2509 41.5657 12.6367C43.8404 11.769 46.3475 11.6914 48.6395 12.3748C49.8449 12.7343 51.1539 12.2889 51.896 11.266C53.3901 9.20677 55.7918 8.0296 58.3239 8.10962C62.3286 8.24064 65.6414 11.6329 65.7086 15.6717C65.7147 16.0401 65.695 16.4103 65.6501 16.7719C65.5196 17.8217 65.9173 18.8438 66.7137 19.5062C69.941 22.1912 71.3288 26.2802 70.7232 30.1494C70.6312 30.7372 71.0296 31.2889 71.613 31.3814C72.1956 31.4741 72.7438 31.0728 72.8359 30.485C72.945 29.7879 73.0001 29.0753 73 28.3664C72.999 24.2823 71.2041 20.4474 68.0753 17.8444Z" fill="#173F5B"/>
<path d="M52.0349 37.4671C53.1695 38.1486 54.4855 38.4896 55.8591 38.4222C59.2821 38.2518 62.1184 35.4857 62.3111 31.9581C62.3248 31.7072 62.4542 31.4675 62.6577 31.317C64.8083 29.7258 65.2998 26.7295 63.8251 24.5385C63.4936 24.046 62.8286 23.9174 62.3399 24.2516C61.8511 24.5856 61.7236 25.2555 62.0551 25.7481C62.8945 26.9952 62.5995 28.6864 61.3917 29.5802C60.668 30.1157 60.2247 30.9394 60.1757 31.8403C60.0458 34.2498 58.1076 36.1527 55.7536 36.2697C54.8261 36.3155 53.9188 36.0897 53.1299 35.6159C52.6226 35.3112 51.9663 35.4787 51.6638 35.9898C51.3615 36.5011 51.5276 37.1624 52.0349 37.4671Z" fill="#173F5B"/>
<path d="M9.1383 27.9698C8.54246 27.9509 8.05556 28.4209 8.03845 29.0157C7.9914 30.6545 8.58894 32.2036 9.72101 33.3777C10.8534 34.5522 12.3717 35.199 13.9965 35.199C14.4766 35.199 14.9545 35.1412 15.4167 35.0271C16.0386 34.874 16.6941 35.0401 17.1279 35.4603C18.4526 36.7436 20.1945 37.4504 22.0326 37.4504C24.0109 37.4504 25.9126 36.6074 27.2503 35.1375C27.6493 34.6989 27.6201 34.0173 27.1848 33.6151C26.7495 33.2128 26.0731 33.2423 25.6739 33.6812C24.7403 34.7071 23.4132 35.2954 22.0326 35.2954C20.75 35.2954 19.5345 34.8022 18.6102 33.9067C17.6389 32.9659 16.2554 32.602 14.9084 32.934C14.6122 33.0071 14.3055 33.0442 13.9965 33.0442C12.9547 33.0442 11.9812 32.6294 11.255 31.8763C10.5291 31.1235 10.146 30.1298 10.1763 29.0781C10.1934 28.4832 9.72857 27.9871 9.1383 27.9698Z" fill="#173F5B"/>
</svg>
