<svg width="73" height="77" viewBox="0 0 73 77" fill="none" xmlns="http://www.w3.org/2000/svg">
<path d="M25.5463 17.1017V7.64691C25.5463 5.90704 24.8894 4.62767 23.8147 3.77014C22.5395 2.74658 20.6587 2.25631 18.5435 2.25631C16.4325 2.25631 14.5517 2.74673 13.2765 3.77014C12.2018 4.62767 11.5449 5.90704 11.5449 7.64691V17.1402C11.5449 17.2083 12.142 17.4088 13.1016 17.6819C14.4748 18.0657 16.3982 18.3086 18.5435 18.3086C20.6929 18.3086 22.612 18.0657 23.9894 17.6819C24.1813 17.6262 25.5036 17.2981 25.5463 17.1017ZM63.1952 57.5357C63.1952 56.9131 63.6984 56.4097 64.3211 56.4097C64.9438 56.4097 65.4512 56.9132 65.4512 57.5357V61.0881C65.4512 61.7108 64.9438 62.2183 64.3211 62.2183C63.6984 62.2183 63.1952 61.7108 63.1952 61.0881V57.5357ZM58.9989 57.5357C58.9989 56.9131 59.5063 56.4097 60.1291 56.4097C60.7517 56.4097 61.2593 56.9132 61.2593 57.5357V61.0881C61.2593 61.7108 60.7517 62.2183 60.1291 62.2183C59.5063 62.2183 58.9989 61.7108 58.9989 61.0881V57.5357ZM54.8066 57.5357C54.8066 56.9131 55.3098 56.4097 55.9368 56.4097C56.5594 56.4097 57.0626 56.9132 57.0626 57.5357V61.0881C57.0626 61.7108 56.5594 62.2183 55.9368 62.2183C55.31 62.2183 54.8066 61.7108 54.8066 61.0881V57.5357ZM50.3371 60.568C49.0748 60.7342 47.9361 61.3227 47.0746 62.1841C46.0468 63.212 45.4112 64.6238 45.4112 66.1801V71.4599C45.4112 72.9823 44.7886 74.3685 43.7821 75.3749C42.78 76.3772 41.3939 77 39.8671 77C38.3445 77 36.9587 76.3772 35.9521 75.375C34.9499 74.3686 34.3273 72.9868 34.3273 71.4601V59.2586C34.3273 58.0899 34.4254 56.9558 34.643 55.8297C34.8604 54.708 35.1931 53.5994 35.6709 52.4863L37.1891 48.9167C36.1058 48.5159 35.1803 47.697 34.7069 46.3919L29.6787 32.5018V72.9229C29.6787 74.4157 28.5443 75.8315 27.2478 76.4712C26.5954 76.7952 25.8618 76.9746 25.124 76.9956C24.382 77.0172 23.6356 76.8804 22.9617 76.5733C21.6907 75.9976 20.6843 74.8545 20.4241 73.0847L18.5435 60.248L16.6669 73.0846C16.4067 74.8545 15.4003 75.9975 14.1294 76.5732C13.4556 76.8803 12.7092 77.0168 11.9672 76.9955C11.2294 76.9743 10.4959 76.795 9.8434 76.4711C8.53846 75.827 7.41249 74.4241 7.41249 72.9228V59.007C7.41249 58.3843 7.91569 57.8768 8.53831 57.8768C9.16514 57.8768 9.6685 58.3843 9.6685 59.007V72.8928C9.76655 73.6222 10.2356 74.1552 10.8412 74.4537C11.208 74.633 11.6176 74.7353 12.0269 74.7482C12.4363 74.7608 12.8414 74.6883 13.204 74.5219C13.8139 74.2448 14.3043 73.6691 14.4365 72.7566L17.4261 52.3198C17.49 51.8294 17.8696 51.4199 18.3814 51.3432C18.9996 51.2534 19.5713 51.6802 19.6608 52.2985L22.6546 72.7566C22.7868 73.6691 23.2773 74.2448 23.8872 74.5219C24.2496 74.6882 24.6548 74.7608 25.0599 74.7482C25.4735 74.7353 25.883 74.633 26.2498 74.4537C26.8554 74.1552 27.3245 73.6222 27.4226 72.8928V26.0831C27.4226 25.6227 27.7083 25.1919 28.1646 25.0258C28.7489 24.8123 29.3972 25.1154 29.6061 25.6995L36.822 45.6245C37.2698 46.8655 38.6388 47.181 39.7605 46.8056C41.0185 46.3833 41.5089 45.3002 41.0868 44.0251L36.9627 31.6105C36.7665 31.022 37.0864 30.3863 37.6748 30.1945C38.2677 29.9984 38.9031 30.3181 39.095 30.9066L41.624 38.5107L45.8887 28.4886C46.0423 28.0453 46.4644 27.7296 46.9591 27.7296H51.7313C52.354 27.7296 52.8614 28.2327 52.8614 28.8553C52.8614 29.4781 52.354 29.9855 51.7313 29.9855H47.7011L42.6943 41.7391L43.2188 43.3212C43.897 45.3601 43.2785 46.9762 42.1014 48.0125C41.6367 48.4219 41.0737 48.7333 40.4723 48.938C40.1695 49.0403 39.8539 49.1129 39.534 49.1555L37.7386 53.369C37.3291 54.3288 37.0434 55.2836 36.8558 56.252C36.6681 57.2244 36.5827 58.218 36.5827 59.2586V71.4601C36.5827 72.3597 36.9537 73.1829 37.5466 73.78C38.1436 74.3772 38.9667 74.7438 39.8665 74.7438C40.7706 74.7438 41.5937 74.3772 42.1866 73.78C42.7836 73.1829 43.1546 72.3598 43.1546 71.4601V66.1803C43.1546 64.0011 44.046 62.0224 45.4789 60.5892C46.7499 59.3183 48.4515 58.4738 50.3365 58.2947V54.7296H49.1764C48.5538 54.7296 48.0462 54.226 48.0462 53.6036V48.3241C48.0462 47.7014 48.5536 47.1938 49.1764 47.1938H50.6478L52.5586 41.351C52.6864 40.8649 53.1257 40.5023 53.6546 40.5023H66.6023C67.0756 40.5023 67.5193 40.8053 67.6727 41.2828L69.6089 47.1938H71.0802C71.7028 47.1938 72.206 47.7014 72.206 48.3241V53.6036C72.206 54.2262 71.7028 54.7296 71.0802 54.7296H69.9202V75.874C69.9202 76.4968 69.417 77 68.7943 77H63.9624C63.3398 77 62.8366 76.4966 62.8366 75.874V71.7246H57.4204V75.874C57.4204 76.4968 56.917 77 56.2946 77H51.4627C50.8399 77 50.3368 76.4966 50.3368 75.874C50.3371 70.7734 50.3371 65.6685 50.3371 60.568ZM67.2382 47.1938L65.7881 42.7586H54.4696L53.0195 47.1938H57.5744C58.197 47.1938 58.7002 47.7014 58.7002 48.3241C58.7002 48.9467 58.197 49.4543 57.5744 49.4543H50.3072V52.4735H51.463H68.7947H69.9505V49.4543H62.6833C62.0607 49.4543 61.5531 48.9467 61.5531 48.3241C61.5531 47.7014 62.0607 47.1938 62.6833 47.1938H67.2382ZM67.6647 71.7246H65.093V74.7438H67.6647V71.7246ZM55.1647 71.7246H52.593V74.7438H55.1647V71.7246ZM67.6647 54.7296H52.5931V69.4684H67.6647V54.7296ZM19.6737 20.5434V44.9933C19.6737 45.6159 19.1705 46.1235 18.5435 46.1235C17.9209 46.1235 17.4177 45.6159 17.4177 44.9933V20.5434C15.5199 20.471 13.8053 20.2193 12.4961 19.8484C11.2935 19.5114 10.3723 19.0294 9.83062 18.4367C7.85178 18.9312 6.0307 19.6054 4.73854 20.4495C3.7022 21.1233 3.0498 21.8782 3.0498 22.6801V40.8264C3.0498 42.3488 3.66821 43.7307 4.6662 44.7328C5.40402 45.4751 6.35073 46.0079 7.41279 46.234V26.0364C7.41279 25.4138 7.91599 24.9062 8.53861 24.9062C9.16544 24.9062 9.6688 25.4138 9.6688 26.0364V53.898C9.6688 54.5207 9.16559 55.0237 8.53861 55.0237C7.91599 55.0237 7.41279 54.5205 7.41279 53.898V48.5244C5.73247 48.2769 4.22285 47.4795 3.06695 46.3194C1.66396 44.9077 0.793945 42.9631 0.793945 40.8265V22.6801C0.793945 21.0212 1.84307 19.652 3.51481 18.5603C5.02022 17.5795 7.08012 16.8075 9.28936 16.253V7.64691C9.28936 5.16065 10.2702 3.29671 11.8653 2.01313C13.5665 0.652695 15.942 0 18.5435 0C21.145 0 23.5247 0.652695 25.2263 2.01313C26.8213 3.29671 27.8022 5.16065 27.8022 7.64691V16.4449C29.653 16.9143 31.4571 17.5324 32.8942 18.3344C34.4168 19.1831 35.5596 20.2576 36.0031 21.6011L37.4829 26.0576C37.6792 26.6462 37.3593 27.2819 36.7707 27.4777C36.1822 27.6696 35.5468 27.3499 35.3507 26.7613L33.8709 22.3047C33.6235 21.5583 32.8557 20.8887 31.8025 20.3002C30.5146 19.5837 28.8386 19.0207 27.107 18.5899C26.5526 19.1145 25.6869 19.5412 24.5952 19.8483C23.2859 20.2191 21.5715 20.4709 19.6737 20.5434ZM14.974 6.51673H22.0918C22.7146 6.51673 23.2176 7.02414 23.2176 7.64691V14.1336C23.2176 14.7563 22.7144 15.2637 22.0918 15.2637H14.974C14.3512 15.2637 13.8438 14.7563 13.8438 14.1336V7.64691C13.8438 7.02414 14.3512 6.51673 14.974 6.51673ZM20.9616 8.77695H16.0998V13.0074H20.9616V8.77695Z" fill="#173F5B"/>
</svg>
