<svg width="150" height="151" viewBox="0 0 150 151" fill="none" xmlns="http://www.w3.org/2000/svg">
<path d="M95.6512 3.78349C90.777 -1.08672 82.9077 -1.08672 78.0585 3.78349L9.52498 68.3391C5.69319 71.9488 1.12603 78.7888 0.79681 84.054C-0.0842229 98.2983 0.536929 125.574 0.968122 140.034C1.12312 145.305 5.53528 149.723 10.7865 149.844C29.181 150.274 68.1539 150.733 71.7765 147.091L147.247 78.5155C152.093 73.6453 147.697 61.327 142.813 56.4316L95.6512 3.78349ZM35.5959 128.897C31.4855 133.015 24.8393 133.015 20.7255 128.897C16.6245 124.765 16.6245 118.093 20.7255 113.975C24.8422 109.852 31.4885 109.852 35.5959 113.975C39.7004 118.093 39.7004 124.768 35.5959 128.897Z" fill="#173F5B"/>
</svg>
