<svg width="219" height="56" viewBox="0 0 219 56" fill="none" xmlns="http://www.w3.org/2000/svg">
<path fill-rule="evenodd" clip-rule="evenodd" d="M49.3762 36.5444C47.5532 33.1492 45.1692 29.9089 42.2523 26.8096L44.9728 28.1338C46.4173 27.0913 46.5575 25.9643 49.5305 24.6259C51.7462 23.6397 53.0223 24.1892 53.9198 23.8792C53.3448 22.879 50.6664 23.1185 49.6006 23.4003C47.6092 23.9215 46.5154 24.8654 44.8606 26.3728C44.1595 26.1897 41.2706 24.5836 40.4853 24.1328L40.7237 22.4845C42.8132 23.5693 44.7905 23.358 45.5899 20.5122C46.4734 17.4128 46.0526 19.6106 47.3708 17.5819C47.9458 16.6943 48.1562 15.4405 47.5672 14.6516C46.7538 15.2151 47.2026 15.6659 45.66 16.4548C45.2253 16.004 45.1551 15.5814 44.7344 15.0742C44.2576 14.5248 43.7949 14.3839 43.3742 13.8767C44.3278 12.4257 44.7204 12.9328 45.3795 12.1862C43.7388 10.6365 41.5932 12.7074 41.0463 13.1019C40.1628 13.7499 37.6666 13.0878 36.699 15.046C36.2082 16.0322 36.5307 16.8352 36.7691 18.0327L35.1704 18.2018C34.8199 17.3283 33.5577 14.243 33.4596 13.5386C35.1003 12.1016 36.1381 11.1577 36.9093 9.26994C37.3441 8.18516 37.919 5.48025 36.9935 4.78994C36.5167 5.7761 37.1758 7.98792 34.2449 11.0873C33.4315 11.9608 32.4779 12.3975 31.7627 13.2146L33.7541 18.9203L33.5157 19.1879C32.7584 18.6385 31.9871 18.0891 31.1878 17.5396C31.903 18.1454 32.6182 18.7653 33.3053 19.4133L33.2913 19.4274C33.6559 19.7514 34.0065 20.0755 34.3571 20.4136C35.4509 21.4702 36.5027 22.5972 37.5404 23.7665C38.1013 24.4287 38.6483 25.1049 39.1811 25.7952L39.2232 25.767C42.3925 29.6976 45.2814 34.1776 47.8897 39.207L47.8757 39.2211C48.2263 39.8974 48.5628 40.5877 48.8714 41.2639C52.0827 36.798 53.4851 31.839 54.2003 24.8231C53.5692 25.0345 52.8961 24.964 52.237 24.9922H52.1949C52.1388 25.4571 52.0827 25.922 52.0266 26.3869C51.6059 29.8808 50.8907 33.3464 49.3762 36.5444ZM54.3966 22.9072C54.7051 19.0611 54.8594 14.6234 55.0136 9.36855C55.0136 9.36855 46.7819 6.19874 30.8232 0C21.0488 3.78969 14.2194 6.45233 10.377 7.94566C11.7793 8.07245 13.1536 8.2556 14.4858 8.48101C19.9269 6.3678 25.368 4.25459 30.7951 2.14138L36.1801 4.21233L36.6429 3.25434L37.6105 3.97283C37.9611 4.2405 38.1995 4.60679 38.3397 5.05761C43.2199 6.9595 48.1141 8.84729 53.0083 10.7351C52.9101 14.5248 52.7979 18.399 52.4894 22.2028C53.2186 22.2732 53.9198 22.4845 54.3966 22.9072Z" fill="#F2F4F6"/>
<path d="M74.0716 13.3204H81.7758L83.948 25.5718H84.0059L86.1781 13.3204H93.8823V34H88.8427V18.5917H88.7848L85.9175 34H82.0364L79.1691 18.5917H79.1112V34H74.0716V13.3204ZM103 34.3186C101.629 34.3186 100.471 34.1352 99.5246 33.7683C98.5785 33.3821 97.8158 32.7642 97.2366 31.9147C96.6573 31.0651 96.2422 29.9645 95.9912 28.6129C95.7401 27.2613 95.6146 25.6104 95.6146 23.6602C95.6146 21.7294 95.7401 20.0881 95.9912 18.7365C96.2422 17.3656 96.6573 16.2554 97.2366 15.4058C97.8158 14.5369 98.5785 13.9094 99.5246 13.5232C100.471 13.1177 101.629 12.915 103 12.915C104.371 12.915 105.53 13.1177 106.476 13.5232C107.422 13.9094 108.185 14.5369 108.764 15.4058C109.343 16.2554 109.758 17.3656 110.009 18.7365C110.26 20.0881 110.386 21.7294 110.386 23.6602C110.386 25.6104 110.26 27.2613 110.009 28.6129C109.758 29.9645 109.343 31.0651 108.764 31.9147C108.185 32.7642 107.422 33.3821 106.476 33.7683C105.53 34.1352 104.371 34.3186 103 34.3186ZM103 30.7561C103.406 30.7561 103.724 30.65 103.956 30.4376C104.207 30.2252 104.39 29.8486 104.506 29.308C104.641 28.7674 104.728 28.0433 104.767 27.1358C104.806 26.209 104.825 25.0504 104.825 23.6602C104.825 22.27 104.806 21.1211 104.767 20.2136C104.728 19.2868 104.641 18.5531 104.506 18.0124C104.39 17.4718 104.207 17.0953 103.956 16.8829C103.724 16.6705 103.406 16.5643 103 16.5643C102.595 16.5643 102.266 16.6705 102.015 16.8829C101.784 17.0953 101.6 17.4718 101.465 18.0124C101.349 18.5531 101.272 19.2868 101.233 20.2136C101.195 21.1211 101.176 22.27 101.176 23.6602C101.176 25.0504 101.195 26.209 101.233 27.1358C101.272 28.0433 101.349 28.7674 101.465 29.308C101.6 29.8486 101.784 30.2252 102.015 30.4376C102.266 30.65 102.595 30.7561 103 30.7561ZM119.094 34.3186C117.588 34.3186 116.352 34.1352 115.387 33.7683C114.421 33.3821 113.668 32.7642 113.128 31.9147C112.587 31.0651 112.21 29.9645 111.998 28.6129C111.805 27.2613 111.708 25.6104 111.708 23.6602C111.708 21.6907 111.824 20.0205 112.056 18.6496C112.307 17.2787 112.722 16.1685 113.301 15.3189C113.881 14.4693 114.643 13.8611 115.589 13.4942C116.535 13.108 117.704 12.915 119.094 12.915C120.31 12.915 121.343 13.0694 122.193 13.3784C123.042 13.6873 123.728 14.1314 124.249 14.7107C124.79 15.2706 125.176 15.9561 125.408 16.767C125.659 17.5587 125.784 18.4565 125.784 19.4606V20.7639H120.571V19.6054C120.571 18.4276 120.455 17.6263 120.223 17.2015C119.992 16.7767 119.615 16.5643 119.094 16.5643C118.688 16.5643 118.36 16.6705 118.109 16.8829C117.877 17.0953 117.694 17.4718 117.559 18.0124C117.443 18.5531 117.366 19.2868 117.327 20.2136C117.289 21.1211 117.269 22.27 117.269 23.6602C117.269 25.0504 117.289 26.209 117.327 27.1358C117.366 28.0433 117.443 28.7674 117.559 29.308C117.694 29.8486 117.877 30.2252 118.109 30.4376C118.36 30.65 118.688 30.7561 119.094 30.7561C119.422 30.7561 119.692 30.6789 119.905 30.5244C120.117 30.3507 120.281 30.0707 120.397 29.6845C120.513 29.2983 120.59 28.7867 120.629 28.1495C120.687 27.493 120.716 26.6724 120.716 25.6876H125.929V27.2227C125.929 28.6901 125.736 29.8873 125.35 30.8141C124.964 31.7216 124.452 32.436 123.815 32.9573C123.178 33.4787 122.444 33.8359 121.614 34.029C120.803 34.222 119.963 34.3186 119.094 34.3186ZM127.989 13.3204H139.603V17.7228H133.376V34H127.989V13.3204ZM147.604 34.3186C146.233 34.3186 145.075 34.1352 144.129 33.7683C143.183 33.3821 142.42 32.7642 141.841 31.9147C141.261 31.0651 140.846 29.9645 140.595 28.6129C140.344 27.2613 140.219 25.6104 140.219 23.6602C140.219 21.7294 140.344 20.0881 140.595 18.7365C140.846 17.3656 141.261 16.2554 141.841 15.4058C142.42 14.5369 143.183 13.9094 144.129 13.5232C145.075 13.1177 146.233 12.915 147.604 12.915C148.975 12.915 150.134 13.1177 151.08 13.5232C152.026 13.9094 152.789 14.5369 153.368 15.4058C153.947 16.2554 154.362 17.3656 154.613 18.7365C154.864 20.0881 154.99 21.7294 154.99 23.6602C154.99 25.6104 154.864 27.2613 154.613 28.6129C154.362 29.9645 153.947 31.0651 153.368 31.9147C152.789 32.7642 152.026 33.3821 151.08 33.7683C150.134 34.1352 148.975 34.3186 147.604 34.3186ZM147.604 30.7561C148.01 30.7561 148.328 30.65 148.56 30.4376C148.811 30.2252 148.995 29.8486 149.11 29.308C149.246 28.7674 149.332 28.0433 149.371 27.1358C149.41 26.209 149.429 25.0504 149.429 23.6602C149.429 22.27 149.41 21.1211 149.371 20.2136C149.332 19.2868 149.246 18.5531 149.11 18.0124C148.995 17.4718 148.811 17.0953 148.56 16.8829C148.328 16.6705 148.01 16.5643 147.604 16.5643C147.199 16.5643 146.871 16.6705 146.62 16.8829C146.388 17.0953 146.204 17.4718 146.069 18.0124C145.953 18.5531 145.876 19.2868 145.838 20.2136C145.799 21.1211 145.78 22.27 145.78 23.6602C145.78 25.0504 145.799 26.209 145.838 27.1358C145.876 28.0433 145.953 28.7674 146.069 29.308C146.204 29.8486 146.388 30.2252 146.62 30.4376C146.871 30.65 147.199 30.7561 147.604 30.7561ZM156.718 13.3204H164.799C165.822 13.3204 166.71 13.4846 167.463 13.8128C168.216 14.1411 168.834 14.5948 169.317 15.1741C169.819 15.734 170.186 16.4098 170.417 17.2015C170.649 17.9738 170.765 18.8041 170.765 19.6923C170.765 21.8549 170.186 23.4671 169.027 24.5291C167.888 25.5911 166.208 26.1221 163.988 26.1221H162.105V34H156.718V13.3204ZM163.119 22.241C163.795 22.241 164.306 22.0383 164.654 21.6328C165.021 21.2273 165.204 20.5901 165.204 19.7213C165.204 18.0414 164.509 17.2015 163.119 17.2015H162.105V22.241H163.119ZM179.254 34.3186C177.748 34.3186 176.512 34.1352 175.547 33.7683C174.582 33.3821 173.829 32.7642 173.288 31.9147C172.747 31.0651 172.371 29.9645 172.158 28.6129C171.965 27.2613 171.869 25.6104 171.869 23.6602C171.869 21.6907 171.985 20.0205 172.216 18.6496C172.467 17.2787 172.882 16.1685 173.462 15.3189C174.041 14.4693 174.804 13.8611 175.75 13.4942C176.696 13.108 177.864 12.915 179.254 12.915C180.471 12.915 181.504 13.0694 182.353 13.3784C183.203 13.6873 183.888 14.1314 184.41 14.7107C184.95 15.2706 185.336 15.9561 185.568 16.767C185.819 17.5587 185.945 18.4565 185.945 19.4606V20.7639H180.731V19.6054C180.731 18.4276 180.616 17.6263 180.384 17.2015C180.152 16.7767 179.776 16.5643 179.254 16.5643C178.849 16.5643 178.521 16.6705 178.27 16.8829C178.038 17.0953 177.854 17.4718 177.719 18.0124C177.603 18.5531 177.526 19.2868 177.488 20.2136C177.449 21.1211 177.43 22.27 177.43 23.6602C177.43 25.0504 177.449 26.209 177.488 27.1358C177.526 28.0433 177.603 28.7674 177.719 29.308C177.854 29.8486 178.038 30.2252 178.27 30.4376C178.521 30.65 178.849 30.7561 179.254 30.7561C179.582 30.7561 179.853 30.6789 180.065 30.5244C180.278 30.3507 180.442 30.0707 180.558 29.6845C180.673 29.2983 180.751 28.7867 180.789 28.1495C180.847 27.493 180.876 26.6724 180.876 25.6876H186.09V27.2227C186.09 28.6901 185.896 29.8873 185.51 30.8141C185.124 31.7216 184.612 32.436 183.975 32.9573C183.338 33.4787 182.604 33.8359 181.774 34.029C180.963 34.222 180.123 34.3186 179.254 34.3186ZM194.666 34.3186C193.314 34.3186 192.175 34.1641 191.248 33.8552C190.321 33.5462 189.568 33.0925 188.989 32.4939C188.429 31.876 188.024 31.1134 187.773 30.2059C187.522 29.2983 187.396 28.246 187.396 27.0489V26.4117H192.609C192.609 27.0682 192.619 27.6668 192.638 28.2074C192.677 28.7287 192.754 29.1825 192.87 29.5687C193.005 29.9548 193.189 30.2541 193.42 30.4665C193.652 30.6789 193.971 30.7851 194.376 30.7851C194.704 30.7851 194.975 30.7175 195.187 30.5824C195.399 30.4472 195.564 30.1865 195.679 29.8004C195.815 29.4142 195.911 28.8736 195.969 28.1784C196.027 27.4833 196.066 26.5758 196.085 25.4559H192.667V21.2853H196.114C196.095 20.3584 196.056 19.5958 195.998 18.9972C195.959 18.3793 195.872 17.8966 195.737 17.549C195.602 17.1822 195.428 16.9312 195.216 16.796C195.004 16.6415 194.733 16.5643 194.405 16.5643C194 16.5643 193.681 16.6801 193.449 16.9119C193.237 17.1436 193.073 17.4428 192.957 17.8097C192.86 18.1766 192.802 18.5917 192.783 19.0551C192.764 19.5185 192.754 19.9819 192.754 20.4453H187.57V19.924C187.57 18.7848 187.676 17.7807 187.888 16.9119C188.12 16.043 188.497 15.3092 189.018 14.7107C189.559 14.1121 190.263 13.668 191.132 13.3784C192.02 13.0694 193.111 12.915 194.405 12.915C196.085 12.915 197.398 13.1853 198.344 13.7259C199.309 14.2473 200.034 14.981 200.516 15.9271C201.018 16.8732 201.327 18.0028 201.443 19.3158C201.578 20.6095 201.646 22.0286 201.646 23.5733C201.646 25.0022 201.598 26.3634 201.501 27.6571C201.404 28.9508 201.124 30.09 200.661 31.0747C200.217 32.0595 199.522 32.8511 198.576 33.4497C197.649 34.029 196.346 34.3186 194.666 34.3186ZM210.367 34.3186C208.861 34.3186 207.625 34.1352 206.66 33.7683C205.694 33.3821 204.941 32.7642 204.4 31.9147C203.86 31.0651 203.483 29.9645 203.271 28.6129C203.078 27.2613 202.981 25.6104 202.981 23.6602C202.981 21.6907 203.097 20.0205 203.329 18.6496C203.58 17.2787 203.995 16.1685 204.574 15.3189C205.153 14.4693 205.916 13.8611 206.862 13.4942C207.808 13.108 208.977 12.915 210.367 12.915C211.583 12.915 212.616 13.0694 213.466 13.3784C214.315 13.6873 215.001 14.1314 215.522 14.7107C216.063 15.2706 216.449 15.9561 216.681 16.767C216.932 17.5587 217.057 18.4565 217.057 19.4606V20.7639H211.844V19.6054C211.844 18.4276 211.728 17.6263 211.496 17.2015C211.265 16.7767 210.888 16.5643 210.367 16.5643C209.961 16.5643 209.633 16.6705 209.382 16.8829C209.15 17.0953 208.967 17.4718 208.832 18.0124C208.716 18.5531 208.639 19.2868 208.6 20.2136C208.561 21.1211 208.542 22.27 208.542 23.6602C208.542 25.0504 208.561 26.209 208.6 27.1358C208.639 28.0433 208.716 28.7674 208.832 29.308C208.967 29.8486 209.15 30.2252 209.382 30.4376C209.633 30.65 209.961 30.7561 210.367 30.7561C210.695 30.7561 210.965 30.6789 211.178 30.5244C211.39 30.3507 211.554 30.0707 211.67 29.6845C211.786 29.2983 211.863 28.7867 211.902 28.1495C211.96 27.493 211.989 26.6724 211.989 25.6876H217.202V27.2227C217.202 28.6901 217.009 29.8873 216.623 30.8141C216.237 31.7216 215.725 32.436 215.088 32.9573C214.451 33.4787 213.717 33.8359 212.887 34.029C212.076 34.222 211.236 34.3186 210.367 34.3186Z" fill="#F2F4F6"/>
<path d="M78.6668 45.7191H79.705C79.6509 46.2166 79.5085 46.6618 79.2778 47.0547C79.0471 47.4476 78.7209 47.7594 78.2991 47.9901C77.8774 48.2172 77.351 48.3308 76.7202 48.3308C76.2588 48.3308 75.8388 48.2443 75.4603 48.0713C75.0854 47.8982 74.7628 47.6531 74.4924 47.3359C74.222 47.015 74.013 46.6311 73.8652 46.1841C73.721 45.7335 73.6489 45.2324 73.6489 44.6809V43.8968C73.6489 43.3453 73.721 42.846 73.8652 42.399C74.013 41.9484 74.2238 41.5627 74.4978 41.2419C74.7754 40.921 75.1088 40.6741 75.4982 40.5011C75.8875 40.3281 76.3255 40.2415 76.8121 40.2415C77.4069 40.2415 77.9098 40.3533 78.3207 40.5768C78.7317 40.8003 79.0507 41.1103 79.2778 41.5068C79.5085 41.8998 79.6509 42.3558 79.705 42.8749H78.6668C78.6163 42.5072 78.5226 42.1918 78.3856 41.9286C78.2486 41.6618 78.054 41.4564 77.8016 41.3122C77.5493 41.168 77.2195 41.0959 76.8121 41.0959C76.4625 41.0959 76.1542 41.1626 75.8875 41.296C75.6243 41.4293 75.4026 41.6186 75.2224 41.8637C75.0457 42.1088 74.9124 42.4026 74.8222 42.7451C74.7321 43.0876 74.6871 43.4679 74.6871 43.886V44.6809C74.6871 45.0666 74.7267 45.4289 74.806 45.7678C74.8889 46.1066 75.0133 46.404 75.1791 46.66C75.3449 46.9159 75.5558 47.1178 75.8118 47.2656C76.0677 47.4098 76.3705 47.4819 76.7202 47.4819C77.1636 47.4819 77.5169 47.4116 77.78 47.271C78.0432 47.1304 78.2414 46.9285 78.3748 46.6654C78.5118 46.4022 78.6091 46.0868 78.6668 45.7191ZM85.149 41.0472L82.5427 48.2227H81.4775L84.4785 40.3497H85.1653L85.149 41.0472ZM87.3336 48.2227L84.7219 41.0472L84.7056 40.3497H85.3924L88.4042 48.2227H87.3336ZM87.1984 45.3081V46.1625H82.7752V45.3081H87.1984ZM95.7083 43.7346V44.5836H91.4474V43.7346H95.7083ZM91.6096 40.3497V48.2227H90.566V40.3497H91.6096ZM96.6168 40.3497V48.2227H95.5786V40.3497H96.6168ZM100.666 46.4166L104.543 40.3497H105.586V48.2227H104.543V42.1503L100.666 48.2227H99.6275V40.3497H100.666V46.4166ZM111.339 40.3497V48.2227H110.311V40.3497H111.339ZM113.869 40.3497V41.204H107.786V40.3497H113.869ZM118.626 41.0472L116.02 48.2227H114.955L117.956 40.3497H118.643L118.626 41.0472ZM120.811 48.2227L118.199 41.0472L118.183 40.3497H118.87L121.882 48.2227H120.811ZM120.676 45.3081V46.1625H116.253V45.3081H120.676ZM126.947 45.1351H124.844V44.2862H126.947C127.355 44.2862 127.684 44.2213 127.937 44.0915C128.189 43.9617 128.373 43.7815 128.488 43.5508C128.607 43.3201 128.667 43.0569 128.667 42.7613C128.667 42.491 128.607 42.2368 128.488 41.9989C128.373 41.761 128.189 41.5699 127.937 41.4257C127.684 41.2779 127.355 41.204 126.947 41.204H125.087V48.2227H124.043V40.3497H126.947C127.542 40.3497 128.045 40.4524 128.456 40.6579C128.867 40.8634 129.179 41.1482 129.391 41.5122C129.604 41.8727 129.71 42.2855 129.71 42.7505C129.71 43.2552 129.604 43.686 129.391 44.0428C129.179 44.3997 128.867 44.6719 128.456 44.8593C128.045 45.0432 127.542 45.1351 126.947 45.1351ZM137.279 43.7346V44.5836H133.018V43.7346H137.279ZM133.181 40.3497V48.2227H132.137V40.3497H133.181ZM138.188 40.3497V48.2227H137.15V40.3497H138.188ZM144.162 41.0472L141.555 48.2227H140.49L143.491 40.3497H144.178L144.162 41.0472ZM146.346 48.2227L143.735 41.0472L143.718 40.3497H144.405L147.417 48.2227H146.346ZM146.211 45.3081V46.1625H141.788V45.3081H146.211ZM153.948 45.1567H151.736L151.223 44.9459C150.653 44.7656 150.215 44.4898 149.909 44.1185C149.602 43.7436 149.449 43.2786 149.449 42.7235C149.449 42.2152 149.561 41.7844 149.784 41.4311C150.011 41.0779 150.332 40.8093 150.747 40.6255C151.165 40.4416 151.659 40.3497 152.228 40.3497H154.748V48.2227H153.704V41.204H152.228C151.652 41.204 151.217 41.341 150.925 41.615C150.637 41.8889 150.493 42.2584 150.493 42.7235C150.493 43.0263 150.556 43.2966 150.682 43.5346C150.812 43.7725 151.003 43.9599 151.255 44.0969C151.507 44.2339 151.821 44.3024 152.196 44.3024H153.953L153.948 45.1567ZM152.174 44.616L150.26 48.2227H149.152L151.12 44.616H152.174ZM170.199 45.7191H171.237C171.183 46.2166 171.041 46.6618 170.81 47.0547C170.579 47.4476 170.253 47.7594 169.831 47.9901C169.409 48.2172 168.883 48.3308 168.252 48.3308C167.791 48.3308 167.371 48.2443 166.992 48.0713C166.617 47.8982 166.295 47.6531 166.024 47.3359C165.754 47.015 165.545 46.6311 165.397 46.1841C165.253 45.7335 165.181 45.2324 165.181 44.6809V43.8968C165.181 43.3453 165.253 42.846 165.397 42.399C165.545 41.9484 165.756 41.5627 166.03 41.2419C166.307 40.921 166.641 40.6741 167.03 40.5011C167.419 40.3281 167.857 40.2415 168.344 40.2415C168.939 40.2415 169.442 40.3533 169.853 40.5768C170.264 40.8003 170.583 41.1103 170.81 41.5068C171.041 41.8998 171.183 42.3558 171.237 42.8749H170.199C170.148 42.5072 170.055 42.1918 169.918 41.9286C169.781 41.6618 169.586 41.4564 169.334 41.3122C169.081 41.168 168.751 41.0959 168.344 41.0959C167.994 41.0959 167.686 41.1626 167.419 41.296C167.156 41.4293 166.935 41.6186 166.754 41.8637C166.578 42.1088 166.444 42.4026 166.354 42.7451C166.264 43.0876 166.219 43.4679 166.219 43.886V44.6809C166.219 45.0666 166.259 45.4289 166.338 45.7678C166.421 46.1066 166.545 46.404 166.711 46.66C166.877 46.9159 167.088 47.1178 167.344 47.2656C167.6 47.4098 167.903 47.4819 168.252 47.4819C168.696 47.4819 169.049 47.4116 169.312 47.271C169.575 47.1304 169.773 46.9285 169.907 46.6654C170.044 46.4022 170.141 46.0868 170.199 45.7191ZM178.828 40.3497V41.204H175.226V40.3497H178.828ZM179.725 40.3497V48.2227H178.682V40.3497H179.725ZM174.87 40.3497H175.908L175.729 44.2051C175.704 44.7602 175.661 45.2559 175.6 45.6921C175.542 46.1246 175.459 46.5013 175.351 46.8222C175.243 47.1394 175.102 47.4026 174.929 47.6116C174.756 47.8171 174.543 47.9703 174.291 48.0713C174.042 48.1722 173.743 48.2227 173.393 48.2227H173.112V47.3737L173.329 47.3575C173.53 47.3431 173.703 47.298 173.848 47.2223C173.995 47.143 174.12 47.024 174.221 46.8654C174.325 46.7068 174.41 46.5013 174.475 46.249C174.54 45.9967 174.59 45.6885 174.626 45.3244C174.666 44.9567 174.697 44.5277 174.718 44.0374L174.87 40.3497ZM185.153 45.6109L187.235 40.3497H188.435L185.651 46.9087C185.571 47.0925 185.483 47.271 185.386 47.444C185.288 47.6134 185.169 47.7648 185.029 47.8982C184.888 48.0316 184.713 48.1379 184.504 48.2172C184.299 48.2966 184.043 48.3362 183.736 48.3362C183.65 48.3362 183.547 48.3308 183.428 48.32C183.309 48.3128 183.232 48.3038 183.196 48.293L183.228 47.4602C183.268 47.4674 183.345 47.4747 183.461 47.4819C183.576 47.4855 183.661 47.4873 183.715 47.4873C183.92 47.4873 184.082 47.4458 184.201 47.3629C184.32 47.28 184.416 47.1754 184.488 47.0493C184.564 46.9195 184.632 46.7879 184.693 46.6546L185.153 45.6109ZM183.385 40.3497L185.575 45.2541L185.834 46.222L184.958 46.2869L182.217 40.3497H183.385ZM193.041 44.6268L190.229 40.3497H191.451L193.544 43.7617H195.026L194.858 44.6268H193.041ZM193.604 44.5457L191.316 48.2227H190.019L192.944 43.6481L193.604 44.5457ZM195.474 40.3497V48.2227H194.442V40.3497H195.474ZM199.649 40.3497L196.826 44.6268H195.064L194.901 43.7617H196.329L198.421 40.3497H199.649ZM198.557 48.2227L196.275 44.5457L196.94 43.6481L199.854 48.2227H198.557ZM206.753 40.3497V41.204H202.957V48.2227H201.919V40.3497H206.753ZM202.714 43.5562H204.86C205.437 43.5562 205.924 43.6535 206.32 43.8482C206.717 44.0392 207.018 44.3078 207.223 44.6539C207.429 44.9999 207.532 45.4055 207.532 45.8705C207.532 46.2166 207.474 46.5338 207.359 46.8222C207.243 47.107 207.072 47.3557 206.845 47.5684C206.618 47.7775 206.338 47.9397 206.007 48.055C205.675 48.1668 205.293 48.2227 204.86 48.2227H201.919V40.3497H202.962V47.3737H204.86C205.246 47.3737 205.558 47.3034 205.796 47.1628C206.037 47.0186 206.214 46.8312 206.326 46.6005C206.438 46.3698 206.493 46.1228 206.493 45.8597C206.493 45.5965 206.438 45.355 206.326 45.1351C206.214 44.9152 206.037 44.7404 205.796 44.6106C205.558 44.4772 205.246 44.4105 204.86 44.4105H202.714V43.5562ZM212.959 41.0472L210.353 48.2227H209.288L212.289 40.3497H212.976L212.959 41.0472ZM215.144 48.2227L212.532 41.0472L212.516 40.3497H213.203L216.215 48.2227H215.144ZM215.009 45.3081V46.1625H210.586V45.3081H215.009Z" fill="#F2F4F6"/>
<path fill-rule="evenodd" clip-rule="evenodd" d="M30.1228 24.4145L29.4637 25.4852C26.7151 23.5692 24.6537 22.9212 21.849 25.1189C20.7551 24.7808 18.8059 23.2452 17.684 22.6676C16.5621 22.09 15.0616 23.541 13.2386 24.7244C9.19982 27.3448 10.9527 26.0346 8.27427 31.3458C7.89563 32.0925 7.86759 31.9798 8.00782 32.3883C8.68095 32.1629 10.7284 28.3592 11.5838 27.5139C11.682 27.4153 16.6182 23.9214 17.1651 24.0623L20.7972 26.1896L19.3388 29.458C18.5114 31.5571 18.1187 33.6844 17.6419 35.8681C17.5157 36.4598 17.4176 36.9529 17.3194 37.5446C17.1231 38.8125 16.8005 39.855 18.9742 39.7C21.7929 39.5028 24.5274 39.376 27.3321 38.6575C27.837 38.5307 28.426 38.3758 29.043 38.1926C29.632 38.0095 30.263 37.7136 30.81 37.5727L32.5909 41.4047C32.5348 41.4751 32.5489 41.5033 32.5068 41.5597L28.4821 46.5891C27.5565 47.3358 23.5318 48.9559 23.2513 49.5898C23.7001 49.8153 23.2233 49.7166 23.7141 49.6462L27.6266 48.3219C30.1789 47.4485 29.3796 47.7584 31.441 45.2507C32.8293 43.5743 34.428 42.2359 33.9933 41.0525C33.5586 39.8691 32.2684 37.7277 32.058 36.6007C34.5542 34.0648 34.1616 31.9516 32.619 29.0213L33.5165 28.5846C32.4227 27.1194 31.3008 25.7388 30.1228 24.4145ZM30.852 55.9999C38.4808 51.2241 43.6134 47.4485 47.1052 43.4897C46.951 42.9685 46.6985 42.25 46.362 41.3061C40.9209 26.26 31.2727 16.1871 17.2072 11.1576C11.5558 9.24167 6.03051 8.11462 0.645508 7.80469C8.58278 9.3262 15.4963 11.9747 21.3581 15.7363L21.5685 15.8771C21.7228 15.9758 21.891 16.0885 22.0453 16.1871L22.0733 16.2012L22.1014 16.2153L22.1715 16.2716L22.1996 16.2857L22.2276 16.2998L22.2556 16.3139L22.2837 16.328C22.494 16.4688 22.7044 16.6097 22.9148 16.7647L22.9428 16.7788C23.1251 16.9056 23.2934 17.0324 23.4757 17.1592L25.8597 18.8638H25.6914C27.1919 20.0895 28.6223 21.3997 29.9685 22.8085L29.9826 22.7944L30.824 23.7242C31.0063 23.9355 31.1886 24.1327 31.3709 24.3441L31.427 24.4145C31.5953 24.6117 31.7636 24.809 31.9318 24.9921L31.9879 25.0625C32.1702 25.2739 32.3525 25.4993 32.5348 25.7247L32.5909 25.7951C32.7452 25.9924 32.9135 26.1896 33.0677 26.4009L33.1238 26.4714C33.2781 26.6686 33.4323 26.8799 33.5866 27.0771L33.6427 27.1476L33.6988 27.218C33.853 27.4293 34.0073 27.6266 34.1475 27.8379L34.2036 27.9083C34.3018 28.0492 34.4 28.176 34.4981 28.3169L34.9889 28.9931H34.9749C36.3632 31.0359 37.6113 33.2195 38.7472 35.53L39.799 37.7981C39.8411 37.9109 39.8972 38.0095 39.9392 38.1222L39.9532 38.1503L39.9673 38.1785L40.0935 38.4744L40.1075 38.5025C40.2057 38.728 40.2898 38.9534 40.388 39.1788L40.402 39.207L40.416 39.2351L40.43 39.2633L40.4441 39.2915L40.4581 39.3197C40.5282 39.5028 40.6124 39.6859 40.6825 39.8832L40.8507 40.3058C41.4818 41.9259 42.0427 43.6165 42.5616 45.3493L42.4354 45.4621C38.9436 48.5192 34.8908 51.2241 30.9362 53.7176C29.1552 52.5906 27.3462 51.4213 25.5792 50.1956C25.0463 50.3929 24.5134 50.576 23.9946 50.7451C23.672 50.8578 23.3495 50.8719 23.069 50.8296C25.2707 52.4075 27.865 54.1262 30.852 55.9999ZM23.1251 48.4346C21.8209 47.4626 20.5588 46.4623 19.3528 45.4057C16.7024 43.0812 14.3745 40.5171 12.7337 37.3755C11.6539 35.3187 10.9387 33.135 10.4339 30.895C10.1674 31.3176 9.88696 31.7262 9.59247 32.1348C9.41017 32.3883 9.17177 32.6983 8.90532 32.9519C10.7985 39.7846 14.4867 44.5181 22.0874 50.1252C21.9752 49.7871 22.1014 49.3363 22.6203 48.8291C22.7605 48.7023 22.9148 48.5896 23.1251 48.4346ZM9.63454 26.1755C9.04556 21.4419 8.87728 16.5393 8.75106 11.7353C8.09196 11.4112 7.43286 11.0872 6.74571 10.7773C6.97009 18.568 7.25055 24.5131 8.10599 29.3735C8.33036 28.8804 8.54071 28.3873 8.75106 27.8802C8.97544 27.3307 9.19982 26.739 9.5504 26.26C9.57845 26.2319 9.6065 26.2037 9.63454 26.1755ZM21.1198 16.7506C20.9655 16.7647 20.8112 16.7929 20.657 16.807C20.2363 16.8633 19.7595 16.8915 19.4229 17.1592C18.5815 17.8354 19.9558 16.3702 19.1565 17.4973C19.1424 17.5254 19.1004 17.5818 19.0864 17.6241C19.0864 18.568 20.3765 17.8072 22.7184 17.8213C22.1996 17.4691 21.6667 17.1028 21.1198 16.7506ZM38.9856 38.4744C38.7052 39.5873 38.4808 40.1649 39.1118 40.2495L39.5746 39.8973C39.3783 39.4183 39.182 38.9534 38.9856 38.4744Z" fill="#F2F4F6"/>
</svg>
