<svg width="56" height="56" viewBox="0 0 56 56" fill="none" xmlns="http://www.w3.org/2000/svg">
<path fill-rule="evenodd" clip-rule="evenodd" d="M49.3767 36.5444C47.5536 33.1492 45.1697 29.9089 42.2528 26.8096L44.9733 28.1338C46.4177 27.0913 46.558 25.9643 49.531 24.6259C51.7467 23.6397 53.0228 24.1892 53.9203 23.8792C53.3453 22.879 50.6669 23.1185 49.6011 23.4003C47.6097 23.9215 46.5159 24.8654 44.8611 26.3728C44.16 26.1897 41.2711 24.5836 40.4858 24.1328L40.7242 22.4845C42.8137 23.5693 44.791 23.358 45.5904 20.5122C46.4738 17.4128 46.0531 19.6106 47.3713 17.5819C47.9463 16.6943 48.1567 15.4405 47.5677 14.6516C46.7543 15.2151 47.2031 15.6659 45.6605 16.4548C45.2257 16.004 45.1556 15.5814 44.7349 15.0742C44.2581 14.5248 43.7954 14.3839 43.3746 13.8767C44.3282 12.4257 44.7209 12.9328 45.38 12.1862C43.7393 10.6365 41.5937 12.7074 41.0468 13.1019C40.1633 13.7499 37.6671 13.0878 36.6995 15.046C36.2087 16.0322 36.5312 16.8352 36.7696 18.0327L35.1709 18.2018C34.8203 17.3283 33.5582 14.243 33.4601 13.5386C35.1008 12.1016 36.1385 11.1577 36.9098 9.26994C37.3446 8.18516 37.9195 5.48025 36.994 4.78994C36.5172 5.7761 37.1763 7.98792 34.2454 11.0873C33.432 11.9608 32.4784 12.3975 31.7632 13.2146L33.7546 18.9203L33.5162 19.1879C32.7589 18.6385 31.9876 18.0891 31.1883 17.5396C31.9035 18.1454 32.6187 18.7653 33.3058 19.4133L33.2918 19.4274C33.6564 19.7514 34.007 20.0755 34.3576 20.4136C35.4514 21.4702 36.5032 22.5972 37.5409 23.7665C38.1018 24.4287 38.6487 25.1049 39.1816 25.7952L39.2237 25.767C42.393 29.6976 45.2818 34.1776 47.8902 39.207L47.8762 39.2211C48.2268 39.8974 48.5633 40.5877 48.8718 41.2639C52.0832 36.798 53.4856 31.839 54.2008 24.8231C53.5697 25.0345 52.8966 24.964 52.2375 24.9922H52.1954C52.1393 25.4571 52.0832 25.922 52.0271 26.3869C51.6064 29.8808 50.8912 33.3464 49.3767 36.5444ZM54.3971 22.9072C54.7056 19.0611 54.8599 14.6234 55.0141 9.36855C55.0141 9.36855 46.7824 6.19874 30.8237 0C21.0493 3.78969 14.2199 6.45233 10.3774 7.94566C11.7798 8.07245 13.1541 8.2556 14.4863 8.48101C19.9274 6.3678 25.3685 4.25459 30.7956 2.14138L36.1806 4.21233L36.6434 3.25434L37.611 3.97283C37.9616 4.2405 38.2 4.60679 38.3402 5.05761C43.2204 6.9595 48.1146 8.84729 53.0088 10.7351C52.9106 14.5248 52.7984 18.399 52.4899 22.2028C53.2191 22.2732 53.9203 22.4845 54.3971 22.9072Z" fill="#3F3A41"/>
<path fill-rule="evenodd" clip-rule="evenodd" d="M30.1223 24.4145L29.4632 25.4852C26.7146 23.5692 24.6532 22.9212 21.8485 25.1189C20.7547 24.7808 18.8054 23.2452 17.6835 22.6676C16.5616 22.09 15.0611 23.541 13.2381 24.7244C9.19933 27.3448 10.9523 26.0346 8.27378 31.3458C7.89515 32.0925 7.8671 31.9798 8.00733 32.3883C8.68046 32.1629 10.7279 28.3592 11.5833 27.5139C11.6815 27.4153 16.6177 23.9214 17.1646 24.0623L20.7967 26.1896L19.3383 29.458C18.5109 31.5571 18.1182 33.6844 17.6414 35.8681C17.5152 36.4598 17.4171 36.9529 17.3189 37.5446C17.1226 38.8125 16.8 39.855 18.9737 39.7C21.7924 39.5028 24.527 39.376 27.3317 38.6575C27.8365 38.5307 28.4255 38.3758 29.0425 38.1926C29.6315 38.0095 30.2626 37.7136 30.8095 37.5727L32.5904 41.4047C32.5344 41.4751 32.5484 41.5033 32.5063 41.5597L28.4816 46.5891C27.556 47.3358 23.5313 48.9559 23.2508 49.5898C23.6996 49.8153 23.2228 49.7166 23.7136 49.6462L27.6261 48.3219C30.1784 47.4485 29.3791 47.7584 31.4405 45.2507C32.8288 43.5743 34.4275 42.2359 33.9928 41.0525C33.5581 39.8691 32.2679 37.7277 32.0576 36.6007C34.5537 34.0648 34.1611 31.9516 32.6185 29.0213L33.516 28.5846C32.4222 27.1194 31.3003 25.7388 30.1223 24.4145ZM30.8515 55.9999C38.4803 51.2241 43.6129 47.4485 47.1047 43.4897C46.9505 42.9685 46.698 42.25 46.3615 41.3061C40.9204 26.26 31.2722 16.1871 17.2067 11.1576C11.5553 9.24167 6.03003 8.11462 0.64502 7.80469C8.58229 9.3262 15.4959 11.9748 21.3577 15.7363L21.568 15.8771C21.7223 15.9758 21.8906 16.0885 22.0448 16.1871L22.0729 16.2012L22.1009 16.2153L22.171 16.2716L22.1991 16.2857L22.2271 16.2998L22.2552 16.3139L22.2832 16.328C22.4936 16.4688 22.7039 16.6097 22.9143 16.7647L22.9423 16.7788C23.1246 16.9056 23.2929 17.0324 23.4752 17.1592L25.8592 18.8638H25.6909C27.1914 20.0895 28.6218 21.3997 29.9681 22.8085L29.9821 22.7944L30.8235 23.7242C31.0058 23.9355 31.1881 24.1327 31.3704 24.3441L31.4265 24.4145C31.5948 24.6117 31.7631 24.809 31.9313 24.9921L31.9874 25.0625C32.1697 25.2739 32.352 25.4993 32.5344 25.7247L32.5904 25.7951C32.7447 25.9924 32.913 26.1896 33.0672 26.4009L33.1233 26.4714C33.2776 26.6686 33.4319 26.8799 33.5861 27.0771L33.6422 27.1476L33.6983 27.218C33.8526 27.4293 34.0068 27.6266 34.1471 27.8379L34.2031 27.9083C34.3013 28.0492 34.3995 28.176 34.4976 28.3169L34.9885 28.9931H34.9744C36.3628 31.0359 37.6108 33.2195 38.7467 35.53L39.7985 37.7981C39.8406 37.9109 39.8967 38.0095 39.9387 38.1222L39.9528 38.1503L39.9668 38.1785L40.093 38.4744L40.107 38.5026C40.2052 38.728 40.2893 38.9534 40.3875 39.1788L40.4015 39.207L40.4155 39.2351L40.4296 39.2633L40.4436 39.2915L40.4576 39.3197C40.5277 39.5028 40.6119 39.6859 40.682 39.8832L40.8503 40.3058C41.4813 41.9259 42.0423 43.6165 42.5611 45.3493L42.4349 45.4621C38.9431 48.5192 34.8903 51.2241 30.9357 53.7176C29.1547 52.5906 27.3457 51.4213 25.5787 50.1956C25.0458 50.3929 24.5129 50.576 23.9941 50.7451C23.6715 50.8578 23.349 50.8719 23.0685 50.8296C25.2702 52.4075 27.8645 54.1262 30.8515 55.9999ZM23.1246 48.4346C21.8204 47.4626 20.5583 46.4623 19.3523 45.4057C16.7019 43.0812 14.374 40.5171 12.7332 37.3755C11.6534 35.3186 10.9382 33.135 10.4334 30.895C10.1669 31.3176 9.88648 31.7262 9.59198 32.1348C9.40968 32.3883 9.17128 32.6983 8.90483 32.9519C10.798 39.7846 14.4862 44.5181 22.0869 50.1252C21.9747 49.7871 22.1009 49.3363 22.6198 48.8291C22.76 48.7023 22.9143 48.5896 23.1246 48.4346ZM9.63405 26.1755C9.04507 21.4419 8.87679 16.5393 8.75058 11.7353C8.09147 11.4112 7.43237 11.0872 6.74522 10.7773C6.9696 18.568 7.25007 24.5131 8.1055 29.3735C8.32987 28.8804 8.54023 28.3873 8.75058 27.8802C8.97495 27.3307 9.19933 26.739 9.54991 26.26C9.57796 26.2319 9.60601 26.2037 9.63405 26.1755ZM21.1193 16.7506C20.965 16.7647 20.8107 16.7929 20.6565 16.807C20.2358 16.8633 19.759 16.8915 19.4224 17.1592C18.581 17.8354 19.9553 16.3702 19.156 17.4973C19.142 17.5254 19.0999 17.5818 19.0859 17.6241C19.0859 18.568 20.376 17.8072 22.7179 17.8213C22.1991 17.4691 21.6662 17.1028 21.1193 16.7506ZM38.9851 38.4744C38.7047 39.5873 38.4803 40.1649 39.1114 40.2495L39.5741 39.8973C39.3778 39.4183 39.1815 38.9534 38.9851 38.4744Z" fill="#F36132"/>
</svg>
